<svg width="1280" height="568" viewBox="0 0 1280 568" fill="none" xmlns="http://www.w3.org/2000/svg">
<g clip-path="url(#clip0_319_5091)">
<path d="M0 0H1280V544C1280 557.255 1269.25 568 1256 568H24C10.7452 568 0 557.255 0 544V0Z" fill="#EBF0FF"/>
<path d="M1280 -193H0V704H1280V-193Z" fill="url(#paint0_linear_319_5091)"/>
<g opacity="0.6">
<path d="M294.873 346.537C296.39 343.672 298.075 340.807 300.266 338.278C317.121 317.209 347.965 313.67 369.202 330.693C390.27 347.549 393.809 378.394 376.786 399.632C374.764 402.16 372.741 404.351 370.381 406.205" stroke="white" stroke-width="2" stroke-miterlimit="10"/>
<path d="M353.191 415.644C338.19 420.363 321.167 417.667 308.02 407.048C294.874 396.429 288.637 380.585 289.817 364.91" stroke="white" stroke-width="2" stroke-miterlimit="10"/>
<path d="M382.517 390.698C390.608 400.306 394.316 407.891 391.956 410.756C387.237 416.655 359.595 402.665 330.437 379.237C301.278 355.808 281.39 332.042 286.109 325.974C288.469 322.94 296.559 324.963 307.683 330.693L311.559 327.828C278.524 305.916 252.063 295.129 246.163 302.377C238.242 312.321 271.614 352.1 320.661 391.372C369.708 430.645 415.889 454.411 423.811 444.466C429.71 437.219 413.193 413.621 384.54 386.147" stroke="white" stroke-width="2" stroke-miterlimit="10"/>
</g>
<g opacity="0.6">
<path d="M1310.72 168.545C1356.72 156.124 1383.93 108.769 1371.51 62.7732C1359.09 16.7778 1311.74 -10.4398 1265.74 1.98095C1219.75 14.4017 1192.53 61.7574 1204.95 107.753C1217.37 153.748 1264.73 180.966 1310.72 168.545Z" stroke="white" stroke-width="2" stroke-miterlimit="10"/>
<path d="M1286.31 59.9087C1266.57 70.8748 1246.58 83.7905 1226.6 89.8828C1217.83 92.5634 1210.03 93.7819 1202.48 94.2693C1203.21 101.093 1204.67 107.916 1207.11 114.496C1213.44 115.227 1220.02 115.714 1228.55 114.252C1249.27 110.84 1274.85 95.244 1298.25 82.3284C1321.4 69.169 1349.66 58.6903 1369.4 62.1019C1370.13 62.1019 1370.62 62.3456 1371.35 62.3456C1370.62 59.9087 1369.89 57.4718 1369.16 55.2786C1367.21 50.161 1365.01 45.2872 1362.33 40.6571C1357.95 39.4386 1353.07 38.7075 1346.74 38.7075C1328.46 38.9512 1305.8 48.6989 1286.31 59.9087Z" stroke="white" stroke-width="2" stroke-miterlimit="10"/>
<path d="M1237.57 60.3962C1252.68 54.3039 1271.2 51.1359 1288.25 47.2368C1305.56 43.3377 1323.83 37.4891 1334.8 29.2036C1339.18 25.7919 1342.11 22.8676 1344.54 19.9433C1341.86 17.5064 1338.7 15.3132 1335.77 13.3636C1324.81 22.6239 1305.07 29.9347 1286.55 34.0774C1266.32 38.9513 1243.17 43.3377 1228.55 50.6485C1220.27 54.7913 1216.12 58.934 1211.01 63.3205C1208.81 65.27 1206.13 67.4632 1203.45 69.6564C1202.72 74.2866 1202.23 78.9167 1201.99 83.5469C1212.47 74.2866 1221.24 66.9758 1237.57 60.3962Z" stroke="white" stroke-width="2" stroke-miterlimit="10"/>
<path d="M1326.51 97.4373C1343.08 91.8324 1361.12 84.5216 1374.03 76.9672C1373.79 73.7992 1373.3 70.6312 1372.57 67.2195C1359.41 74.5302 1342.84 81.5973 1327.24 86.9585C1304.82 94.7567 1279.48 103.042 1262.42 112.059C1252.68 117.176 1247.56 121.319 1241.22 125.949C1235.86 130.092 1229.28 134.722 1221.97 140.083C1223.43 141.789 1224.9 143.495 1226.6 145.201C1240.01 134.966 1250.97 126.924 1270.22 118.151C1287.04 110.353 1307.51 104.017 1326.51 97.4373Z" stroke="white" stroke-width="2" stroke-miterlimit="10"/>
<path d="M1210.52 48.2115C1230.26 43.094 1253.41 29.2036 1274.61 17.5064C1285.57 11.1704 1298 5.56546 1309.7 1.66639C1293.37 -2.47637 1275.58 -1.98898 1258.52 4.10331C1236.59 12.3888 1219.78 28.4725 1210.52 48.2115Z" stroke="white" stroke-width="2" stroke-miterlimit="10"/>
<path d="M1307.5 117.907C1287.77 128.874 1267.78 141.789 1247.8 147.882C1242.68 149.587 1237.81 150.562 1233.18 151.293C1242.68 159.091 1253.65 164.94 1265.35 168.108C1282.65 161.772 1301.66 150.318 1319.44 140.571C1334.07 132.285 1350.64 125.218 1365.99 121.807C1369.64 114.008 1372.08 105.723 1373.3 97.1936C1371.59 96.9499 1369.89 96.95 1367.94 96.95C1349.9 97.1936 1327 106.941 1307.5 117.907Z" stroke="white" stroke-width="2" stroke-miterlimit="10"/>
</g>
<g opacity="0.6">
<path d="M45.6419 88.4998C53.7414 68.8383 44.3691 46.3335 24.7085 38.2337C5.04783 30.134 -17.4562 39.5065 -25.5556 59.1679C-33.6551 78.8294 -24.2828 101.334 -4.62217 109.434C15.0385 117.534 37.5425 108.161 45.6419 88.4998Z" stroke="white" stroke-width="2" stroke-miterlimit="10"/>
<path d="M-9.20418 71.5553C-4.22465 71.5553 -0.187979 67.5184 -0.187979 62.5387C-0.187979 57.559 -4.22465 53.5221 -9.20418 53.5221C-14.1837 53.5221 -18.2205 57.559 -18.2205 62.5387C-18.2205 67.5184 -14.1837 71.5553 -9.20418 71.5553Z" stroke="white" stroke-width="2" stroke-miterlimit="10"/>
<path d="M8.82723 48.6483C8.82723 50.5979 7.36515 52.06 5.41569 52.06C3.46623 52.06 2.00415 50.5979 2.00415 48.6483C2.00415 46.6988 3.46623 45.2367 5.41569 45.2367C7.12147 44.993 8.82723 46.6988 8.82723 48.6483Z" stroke="white" stroke-width="2" stroke-miterlimit="10"/>
<path d="M36.6087 52.06C36.6087 54.0095 35.1466 55.4717 33.1972 55.4717C31.2477 55.4717 29.7856 54.0095 29.7856 52.06C29.7856 50.1105 31.2477 48.6483 33.1972 48.6483C35.1466 48.6483 36.6087 50.1105 36.6087 52.06Z" stroke="white" stroke-width="2" stroke-miterlimit="10"/>
<path d="M26.1307 59.127C26.1307 63.0261 22.9628 66.1941 19.0639 66.1941C15.165 66.1941 11.9971 63.0261 11.9971 59.127C11.9971 55.228 15.165 52.0599 19.0639 52.0599C22.9628 52.0599 26.1307 55.228 26.1307 59.127Z" stroke="white" stroke-width="2" stroke-miterlimit="10"/>
<path d="M45.3815 89.3448C42.9446 87.3953 40.0204 86.4205 36.8526 86.4205C29.2984 86.4205 22.9626 92.5128 22.9626 100.311C22.9626 103.723 24.1811 106.647 26.1306 109.084C34.6594 104.941 41.4825 97.874 45.3815 89.3448Z" stroke="white" stroke-width="2" stroke-miterlimit="10"/>
</g>
<g opacity="0.6">
<path d="M1101.6 21.1618C1101.6 21.8929 1101.11 22.3803 1100.38 22.3803C1099.65 22.3803 1099.16 21.8929 1099.16 21.1618C1099.16 20.4307 1099.65 19.9434 1100.38 19.9434C1101.11 19.9434 1101.6 20.4307 1101.6 21.1618Z" fill="url(#paint1_linear_319_5091)"/>
<path d="M1055.83 21.4601C1055.83 24.8718 1053.15 27.5524 1049.74 27.5524C1046.33 27.5524 1043.65 24.8718 1043.65 21.4601C1043.65 18.0484 1046.33 15.3678 1049.74 15.3678C1053.15 15.3678 1055.83 18.0484 1055.83 21.4601Z" fill="white"/>
<path d="M372.984 17.9938C373.715 17.9938 374.446 18.7249 374.446 19.4559C374.446 20.187 373.715 20.9181 372.984 20.9181C372.253 20.9181 371.522 20.187 371.522 19.4559C371.278 18.7249 372.009 17.9938 372.984 17.9938Z" fill="white"/>
<path d="M713.513 506.07C713.513 508.685 711.225 510.973 708.61 510.973C705.994 510.973 703.706 508.685 703.706 506.07C703.706 503.455 705.994 501.166 708.61 501.166C711.225 501.166 713.513 503.455 713.513 506.07Z" fill="white"/>
</g>
<path d="M-69.8131 482.603C-40.2924 482.603 -15.6112 504.889 -9.31995 534.927C5.19839 499.318 37.6227 474.367 75.6124 474.367C105.133 474.367 131.508 489.628 148.446 513.125C163.932 481.15 194.905 459.106 230.475 459.106C263.383 459.106 292.178 477.758 308.632 506.1C319.521 491.808 336.217 482.603 354.607 482.603C377.594 482.603 397.678 496.895 407.599 517.97C434.216 477.758 477.287 451.596 525.923 451.596C572.14 451.596 613.275 475.094 639.892 511.672C652.717 484.057 679.092 465.162 709.338 465.162C740.553 465.162 767.412 485.268 779.994 514.094C791.367 499.318 808.305 490.113 827.421 490.113C852.828 490.113 874.605 506.585 884.284 530.324C896.141 488.901 931.227 459.106 972.846 459.106C1009.14 459.106 1040.84 482.119 1055.84 515.306C1063.34 502.709 1076.17 494.473 1090.69 494.473C1103.03 494.473 1114.16 500.529 1121.9 509.976C1141.26 467.827 1181.18 439 1227.16 439C1292.25 439 1345 496.653 1345 567.872V837H-132V550.673C-132 513.125 -104.173 482.603 -69.8131 482.603Z" fill="white"/>
<g opacity="0.6">
<path d="M892.681 453.392C892.681 454.02 892.301 454.439 891.731 454.439C891.16 454.439 890.78 454.02 890.78 453.392C890.78 452.764 891.16 452.345 891.731 452.345C892.301 452.345 892.681 452.764 892.681 453.392Z" fill="url(#paint2_linear_319_5091)"/>
<path d="M953.722 315.426C953.722 316.263 953.152 316.891 952.391 316.891C951.631 316.891 951.06 316.263 951.06 315.426C951.06 314.588 951.631 313.96 952.391 313.96C953.152 313.96 953.722 314.588 953.722 315.426Z" fill="url(#paint3_linear_319_5091)"/>
<path d="M856.967 453.648C856.967 456.579 854.875 458.882 852.213 458.882C849.551 458.882 847.459 456.579 847.459 453.648C847.459 450.717 849.551 448.414 852.213 448.414C854.875 448.414 856.967 450.717 856.967 453.648Z" fill="white"/>
<path d="M147.552 431.061C147.552 432.736 146.221 434.201 144.699 434.201C143.178 434.201 141.847 432.736 141.847 431.061C141.847 429.386 143.178 427.92 144.699 427.92C146.221 427.92 147.552 429.386 147.552 431.061Z" fill="white"/>
<path d="M918.541 394.981C918.541 395.609 917.971 396.237 917.4 396.237C916.83 396.237 916.259 395.609 916.259 394.981C916.259 394.353 916.83 393.725 917.4 393.725C917.971 393.725 918.541 394.353 918.541 394.981Z" fill="white"/>
<path d="M1011.34 293.234C1011.34 296.165 1009.25 298.468 1006.59 298.468C1003.92 298.468 1001.83 296.165 1001.83 293.234C1001.83 290.303 1003.92 288 1006.59 288C1009.25 288 1011.34 290.512 1011.34 293.234Z" fill="white"/>
<path d="M1030.55 347.667C1030.55 348.713 1029.79 349.551 1028.84 349.551C1027.88 349.551 1027.12 348.713 1027.12 347.667C1027.12 346.62 1027.88 345.782 1028.84 345.782C1029.79 345.782 1030.55 346.62 1030.55 347.667Z" fill="white"/>
<path d="M251.653 411.939C252.413 411.939 252.984 412.567 252.984 413.405C252.984 414.242 252.413 414.87 251.653 414.87C250.892 414.87 250.322 414.242 250.322 413.405C250.322 412.567 250.892 411.939 251.653 411.939Z" fill="url(#paint4_linear_319_5091)"/>
<path d="M324.103 450.67C324.674 450.67 325.244 451.298 325.244 451.926C325.244 452.554 324.674 453.183 324.103 453.183C323.533 453.183 322.962 452.554 322.962 451.926C322.772 451.298 323.343 450.67 324.103 450.67Z" fill="white"/>
<path d="M158.474 322.334C161.137 322.334 163.228 324.637 163.228 327.568C163.228 330.499 161.137 332.802 158.474 332.802C155.812 332.802 153.72 330.499 153.72 327.568C153.72 324.637 156.002 322.334 158.474 322.334Z" fill="white"/>
<path d="M207.916 300.98C208.867 300.98 209.628 301.818 209.628 302.864C209.628 303.911 208.867 304.749 207.916 304.749C206.965 304.749 206.205 303.911 206.205 302.864C206.205 301.818 206.965 300.98 207.916 300.98Z" fill="white"/>
</g>
</g>
<defs>
<linearGradient id="paint0_linear_319_5091" x1="-3.03845e-06" y1="-68.2097" x2="731.225" y2="604.899" gradientUnits="userSpaceOnUse">
<stop stop-color="#262C92"/>
<stop offset="1" stop-color="#091F50"/>
</linearGradient>
<linearGradient id="paint1_linear_319_5091" x1="1099.03" y1="21.2549" x2="1101.59" y2="21.2549" gradientUnits="userSpaceOnUse">
<stop stop-color="white"/>
<stop offset="1" stop-color="#FBE9F5"/>
</linearGradient>
<linearGradient id="paint2_linear_319_5091" x1="890.682" y1="453.472" x2="892.675" y2="453.472" gradientUnits="userSpaceOnUse">
<stop stop-color="white"/>
<stop offset="1" stop-color="#FBE9F5"/>
</linearGradient>
<linearGradient id="paint3_linear_319_5091" x1="950.853" y1="315.479" x2="953.699" y2="315.479" gradientUnits="userSpaceOnUse">
<stop stop-color="white"/>
<stop offset="1" stop-color="#FBE9F5"/>
</linearGradient>
<linearGradient id="paint4_linear_319_5091" x1="251.743" y1="415.039" x2="251.743" y2="411.906" gradientUnits="userSpaceOnUse">
<stop stop-color="white"/>
<stop offset="1" stop-color="#FBE9F5"/>
</linearGradient>
<clipPath id="clip0_319_5091">
<path d="M0 0H1280V544C1280 557.255 1269.25 568 1256 568H24C10.7452 568 0 557.255 0 544V0Z" fill="white"/>
</clipPath>
</defs>
</svg>
