<svg width="1920" height="239" viewBox="0 0 1920 239" fill="none" xmlns="http://www.w3.org/2000/svg">
<path d="M27.9545 58.8314C67.8083 58.8314 101.129 88.9008 109.622 129.429C129.222 81.3834 172.996 47.7188 224.284 47.7188C264.138 47.7188 299.745 68.3098 322.612 100.013C343.519 56.8704 385.333 27.1279 433.353 27.1279C477.78 27.1279 516.654 52.2946 538.868 90.535C553.568 71.2514 576.108 58.8314 600.935 58.8314C631.969 58.8314 659.083 78.115 672.476 106.55C708.41 52.2946 766.558 16.9958 832.219 16.9958C894.613 16.9958 950.147 48.6993 986.081 98.0523C1003.39 60.7924 1039 35.2989 1079.84 35.2989C1121.98 35.2989 1158.24 62.4267 1175.22 101.321C1190.58 81.3834 1213.44 68.9635 1239.25 68.9635C1273.55 68.9635 1302.95 91.1887 1316.02 123.219C1332.03 67.3293 1379.39 27.1279 1435.58 27.1279C1484.58 27.1279 1527.37 58.1777 1547.63 102.955C1557.75 85.9592 1575.07 74.8467 1594.67 74.8467C1611.33 74.8467 1626.36 83.0177 1636.81 95.7645C1662.94 38.8941 1716.84 0 1778.91 0C1866.79 0 1938 77.7882 1938 173.88V537H-56V150.674C-56 100.013 -18.4328 58.8314 27.9545 58.8314Z" fill="white"/>
</svg>
