<svg width="424" height="424" viewBox="0 0 424 424" fill="none" xmlns="http://www.w3.org/2000/svg">
<g clip-path="url(#clip0_675_23835)">
<path d="M84.8318 361.842C84.8318 362.456 83.5704 362.997 81.6942 363.283C80.7402 363.432 79.9982 364.184 79.8498 365.128C79.553 367.014 79.023 368.265 78.4082 368.265C77.7934 368.265 77.2528 367.004 76.9666 365.128C76.8182 364.174 76.0656 363.432 75.1222 363.283C73.2354 362.986 71.974 362.456 71.974 361.842C71.974 361.227 73.2354 360.686 75.1222 360.389C76.0762 360.241 76.8288 359.488 76.9772 358.545C77.274 356.658 77.804 355.397 78.4188 355.397C79.0336 355.397 79.5742 356.658 79.8604 358.545C80.0088 359.499 80.7614 360.241 81.7154 360.389C83.5704 360.686 84.8318 361.216 84.8318 361.842Z" fill="white"/>
<path d="M379.512 273.385C379.385 273.978 378.06 274.222 376.194 274.105C375.251 274.042 374.381 274.604 374.032 275.483C373.353 277.222 372.569 278.314 371.986 278.186C371.403 278.059 371.148 276.734 371.265 274.869C371.329 273.925 370.767 273.056 369.887 272.706C368.149 272.028 367.046 271.243 367.184 270.65C367.311 270.056 368.636 269.812 370.502 269.929C371.445 269.993 372.325 269.431 372.664 268.551C373.343 266.813 374.127 265.71 374.71 265.848C375.304 265.975 375.547 267.3 375.431 269.166C375.367 270.109 375.929 270.989 376.809 271.328C378.558 272.007 379.65 272.791 379.512 273.385Z" fill="white"/>
<path d="M363.262 53.6571C363.262 54.3673 361.81 54.9821 359.626 55.3319C358.524 55.5015 357.665 56.3707 357.496 57.4625C357.156 59.6355 356.531 61.0983 355.821 61.0983C355.111 61.0983 354.496 59.6461 354.146 57.4625C353.976 56.3601 353.107 55.5015 352.015 55.3319C349.842 54.9927 348.38 54.3673 348.38 53.6571C348.38 52.9469 349.842 52.3215 352.015 51.9823C353.118 51.8127 353.976 50.9435 354.157 49.8411C354.496 47.6681 355.121 46.2053 355.831 46.2053C356.542 46.2053 357.156 47.6575 357.506 49.8411C357.676 50.9435 358.545 51.8021 359.647 51.9823C361.81 52.3215 363.262 52.9363 363.262 53.6571Z" fill="white"/>
<path d="M368.085 115.943C369.238 115.943 370.173 115.008 370.173 113.855C370.173 112.701 369.238 111.766 368.085 111.766C366.932 111.766 365.997 112.701 365.997 113.855C365.997 115.008 366.932 115.943 368.085 115.943Z" fill="white"/>
<path d="M345.102 360.371C346.157 360.152 346.835 359.12 346.617 358.065C346.398 357.011 345.366 356.333 344.311 356.551C343.256 356.77 342.578 357.802 342.797 358.857C343.015 359.912 344.048 360.59 345.102 360.371Z" fill="white"/>
<path d="M377.561 324.971C378.881 324.627 379.672 323.278 379.328 321.958C378.983 320.638 377.634 319.848 376.315 320.192C374.995 320.536 374.204 321.885 374.548 323.205C374.892 324.525 376.242 325.316 377.561 324.971Z" fill="white"/>
<path d="M56.8518 103.797C57.8676 102.526 57.6604 100.671 56.3888 99.6554C55.1173 98.6395 53.263 98.8468 52.2471 100.118C51.2312 101.39 51.4385 103.244 52.7101 104.26C53.9816 105.276 55.8359 105.069 56.8518 103.797Z" fill="white"/>
<path d="M305.1 65.2853C306.253 65.2853 307.188 64.3504 307.188 63.1971C307.188 62.0438 306.253 61.1089 305.1 61.1089C303.947 61.1089 303.012 62.0438 303.012 63.1971C303.012 64.3504 303.947 65.2853 305.1 65.2853Z" fill="white"/>
<path d="M79.8833 52.6804C81.5088 52.5993 82.7608 51.2158 82.6797 49.5903C82.5986 47.9648 81.2151 46.7128 79.5896 46.7939C77.9641 46.8749 76.7121 48.2584 76.7932 49.8839C76.8743 51.5095 78.2577 52.7615 79.8833 52.6804Z" fill="white"/>
<path d="M63.5682 339.37C64.862 339.37 65.9108 338.321 65.9108 337.027C65.9108 335.733 64.862 334.684 63.5682 334.684C62.2744 334.684 61.2256 335.733 61.2256 337.027C61.2256 338.321 62.2744 339.37 63.5682 339.37Z" fill="white"/>
<path d="M383.336 165.269C383.754 164.851 383.754 164.173 383.336 163.755C382.917 163.337 382.24 163.337 381.821 163.755C381.403 164.173 381.403 164.851 381.821 165.269C382.24 165.687 382.917 165.687 383.336 165.269Z" fill="white"/>
<path d="M321.795 371.604C321.254 372.049 320.449 371.965 320.003 371.424C319.558 370.883 319.643 370.078 320.184 369.633C320.724 369.187 321.53 369.272 321.975 369.813C322.42 370.353 322.335 371.159 321.795 371.604Z" fill="white"/>
<path d="M129.959 59.7301C130.096 58.9044 129.539 58.1233 128.713 57.9854C127.888 57.8475 127.106 58.4051 126.969 59.2308C126.831 60.0565 127.388 60.8376 128.214 60.9755C129.04 61.1134 129.821 60.5558 129.959 59.7301Z" fill="white"/>
<path d="M77.2103 146.386C77.2527 147.223 76.6061 147.933 75.7687 147.976C74.9313 148.018 74.2211 147.372 74.1787 146.534C74.1363 145.697 74.7829 144.987 75.6203 144.944C76.4577 144.912 77.1679 145.559 77.2103 146.386Z" fill="white"/>
<path d="M78.2597 266.972C78.2597 267.639 77.7192 268.18 77.0514 268.169C76.3836 268.169 75.8429 267.629 75.8535 266.961C75.8641 266.293 76.3941 265.752 77.0619 265.763C77.7191 265.774 78.2597 266.314 78.2597 266.972Z" fill="white"/>
<path d="M58.7087 247.979C59.6867 247.045 59.7224 245.495 58.7883 244.517C57.8543 243.539 56.3042 243.503 55.3262 244.437C54.3482 245.371 54.3126 246.921 55.2467 247.899C56.1807 248.877 57.7307 248.913 58.7087 247.979Z" fill="white"/>
<path d="M196.117 240.868C196.887 240.868 197.511 240.244 197.511 239.474V135.965C197.511 135.195 196.887 134.571 196.117 134.571C195.347 134.571 194.723 135.195 194.723 135.965V239.474C194.723 240.243 195.347 240.868 196.117 240.868Z" fill="#A4A9C9"/>
<path d="M256.852 283.086C256.852 283.086 291.175 292.03 292.4 305.495C293.467 317.237 280.596 356.826 273.037 361.176C267.524 364.348 250.9 358.531 250.9 358.531L256.852 283.086Z" fill="white"/>
<g opacity="0.35">
<path d="M292.457 307.694C292.062 321.515 280.177 357.068 273.038 361.174C267.523 364.347 250.902 358.53 250.902 358.53L253.542 343.131C253.542 343.131 270.163 348.95 275.678 345.776C280.834 342.81 288.464 323.432 292.457 307.694Z" fill="#091A3F"/>
</g>
<path d="M266.183 363.424C269.747 363.424 273.335 362.655 276.311 360.456C284.53 354.384 294.794 317.364 294.096 305.397C293.427 293.955 272.451 286.912 271.558 286.618C270.662 286.324 269.707 286.809 269.413 287.699C269.12 288.59 269.604 289.55 270.494 289.844C275.966 291.652 290.261 298.004 290.704 305.595C291.373 317.055 280.9 352.843 274.293 357.724C266.256 363.661 251.405 356.301 251.255 356.225C250.419 355.804 249.397 356.141 248.974 356.98C248.552 357.818 248.889 358.839 249.729 359.26C250.202 359.499 258.131 363.424 266.183 363.424Z" fill="#091A3F"/>
<path d="M217.339 287.454C217.339 287.454 218.838 299.599 213.573 291.27C208.768 283.662 202.787 270.978 197.508 250.297C197.464 250.129 197.419 249.956 197.375 249.787C197.375 249.787 194.997 249.58 192.081 248.122C185.205 244.686 186.678 231.295 188.007 226.743C189.569 221.38 193.262 222.828 193.262 222.828C194.557 220.707 197.112 219.58 201.418 219.645C209.5 219.764 211.145 226.298 211.145 226.298C218.554 248.596 227.581 262.338 232.954 269.183C235.797 272.816 237.615 274.507 237.615 274.507L217.339 287.454Z" fill="white"/>
<g opacity="0.35">
<path d="M217.339 287.454C217.339 287.454 218.838 299.599 213.573 291.27C208.768 283.663 202.787 270.979 197.508 250.297C199.278 249.867 201.883 249.056 203.258 247.831C206.698 244.756 207.321 237.673 207.321 237.673C208.744 244.505 207.321 248.504 205.66 250.757C203.87 253.179 203.321 256.308 204.364 259.136C205.882 263.243 207.794 267.712 210.825 270.599C217.784 277.228 227.488 274.257 232.954 269.186C235.797 272.819 237.615 274.509 237.615 274.509L217.339 287.454Z" fill="#091A3F"/>
</g>
<g opacity="0.35">
<path d="M194.973 249.271C194.973 249.271 201.249 251.564 205.429 242.077C205.429 242.077 203.016 243.281 197.065 242.976C191.156 242.673 187.147 237.048 187.147 237.048C187.147 237.048 186.737 247.272 194.973 249.271Z" fill="#091A3F"/>
</g>
<path d="M236.758 274.692C237.245 274.692 237.728 274.49 238.075 274.095C238.711 273.368 238.64 272.263 237.913 271.625C237.708 271.443 223.822 258.857 212.826 225.804C212.106 223.076 208.837 218.005 201.443 217.894C197.267 217.835 194.347 218.814 192.52 220.893C190.61 223.068 190.034 226.229 190.706 230.842C191.368 235.396 194.453 238.584 197.871 238.265C201.012 237.971 204.239 234.567 203.872 225.896C203.832 224.93 203.027 224.186 202.049 224.221C201.083 224.262 200.334 225.078 200.374 226.044C200.619 231.841 199.078 234.636 197.543 234.78C196.246 234.89 194.593 233.237 194.17 230.338C193.664 226.865 193.984 224.531 195.151 223.204C196.243 221.959 198.345 221.349 201.391 221.396C208.053 221.494 209.436 226.676 209.45 226.728L209.486 226.853C220.849 261.042 235.007 273.734 235.604 274.258C235.937 274.548 236.348 274.692 236.758 274.692Z" fill="#091A3F"/>
<path d="M222.698 303.595C223.302 303.595 223.888 303.283 224.213 302.723C224.699 301.888 224.415 300.815 223.579 300.331C223.454 300.256 209.765 291.57 199.074 249.358L198.768 248.152L197.529 248.044C197.515 248.042 195.41 247.83 192.863 246.556C187.386 243.817 188.358 231.789 189.685 227.234C190.083 225.867 190.662 224.954 191.36 224.591C192.003 224.256 192.632 224.463 192.66 224.472C193.559 224.826 194.557 224.375 194.911 223.476C195.264 222.576 194.803 221.553 193.903 221.201C193.699 221.12 191.854 220.448 189.852 221.432C188.209 222.238 187.022 223.862 186.325 226.256C184.654 231.983 183.589 245.834 191.298 249.689C193.18 250.63 194.873 251.1 195.964 251.329C207.065 294.359 221.219 303.01 221.82 303.359C222.097 303.518 222.399 303.595 222.698 303.595Z" fill="#091A3F"/>
<path d="M198.595 251.568C200.79 251.568 202.625 250.861 204.062 249.458C206.833 246.752 207.854 241.651 207.099 234.298C206.361 227.114 203.14 225.982 202.503 225.828L201.705 229.13C201.705 229.13 201.658 229.127 201.58 229.093C201.595 229.099 203.228 229.862 203.72 234.646C204.346 240.74 203.626 245.137 201.689 247.028C200.717 247.979 199.376 248.33 197.592 248.105C196.664 247.993 195.812 248.646 195.693 249.577C195.576 250.508 196.235 251.357 197.165 251.476C197.656 251.536 198.133 251.568 198.595 251.568Z" fill="#091A3F"/>
<path d="M270.213 323.22C269.388 324.933 268.762 326.703 268.238 328.515C266.592 334.169 265.94 340.193 263.354 345.908C262.713 347.323 261.933 348.55 261.128 349.581C260.876 349.904 260.625 350.208 260.374 350.494C258.47 352.654 256.684 353.732 256.684 353.732C256.674 354.296 256.633 355.015 256.607 355.871C256.494 359.39 256.536 365.286 259.075 372.637C259.259 373.181 259.454 373.73 259.675 374.284C261.378 378.702 260.348 393.001 258.485 396.263C253.134 405.672 239.723 404.241 235.906 397.818C232.453 391.989 233.9 380.682 234.551 376.706C234.7 375.798 234.808 375.275 234.808 375.275C231.268 367.867 228.226 357.918 228.226 350.464C228.226 350.464 227.271 350.622 225.979 350.638L225.984 350.884C225.476 355.496 226.333 363.372 228.012 370.57C228.196 371.365 228.391 372.155 228.596 372.93C229.586 376.664 227.749 388.475 222.814 394.345C217.093 401.159 204.559 398.777 202.045 393.694C199.018 387.589 202.974 377.337 204.488 373.843C204.826 373.069 205.042 372.633 205.042 372.633C198.731 357.698 198.361 344.923 199.48 332.014C201.246 311.779 209.295 295.849 217.565 284.88C218.084 284.192 218.627 283.52 219.181 282.858C219.884 282.022 220.612 281.206 221.326 280.426C222.593 279.051 223.829 277.778 224.882 276.661L226.323 277.881L228.667 278.425L267.567 287.485L267.905 292.051L268.054 294.099L268.376 298.496L269.197 309.542L269.684 316.149L270.09 321.577L270.213 323.22Z" fill="white"/>
<g opacity="0.35">
<path d="M222.812 394.347C217.093 401.158 204.557 398.78 202.041 393.694C199.016 387.589 202.971 377.338 204.488 373.843C204.676 373.937 204.775 373.966 204.775 373.966C204.775 373.966 199.05 384.555 205.284 390.229C210.198 394.708 218.126 393.289 221.379 387.343C225.344 380.086 225.858 367.051 225.858 367.051L228.008 370.57C228.196 371.366 228.389 372.157 228.596 372.933C229.584 376.665 227.744 388.474 222.812 394.347Z" fill="#091A3F"/>
</g>
<g opacity="0.3">
<path d="M244.27 379.013L243.974 378.944C244.111 378.969 244.215 378.994 244.27 379.013Z" fill="#293856"/>
</g>
<g opacity="0.3">
<path d="M244.328 379.029L244.269 379.014C244.309 379.024 244.328 379.029 244.328 379.029Z" fill="#293856"/>
</g>
<g opacity="0.35">
<path d="M258.486 396.264C253.133 405.676 239.722 404.242 235.906 397.822C232.451 391.988 233.899 380.684 234.551 376.704L243.948 378.938C242.652 378.692 238.466 378.445 238.209 385.468C238.036 390.08 238.777 395.216 244.941 396.031C260.087 398.023 258.95 382.709 258.267 374.025C258.134 372.29 258.46 371.993 259.072 372.635C259.256 373.179 259.453 373.728 259.67 374.287C261.377 378.702 260.344 393.002 258.486 396.264Z" fill="#091A3F"/>
</g>
<g opacity="0.35">
<path d="M232.088 371.077C232.088 371.077 235.551 378.17 244.594 379.614C245.473 379.754 245.873 378.559 245.088 378.138C241.571 376.257 236.436 371.502 235.034 365.011C233.833 359.447 234.337 354.011 235.016 350.293C235.474 347.79 233.635 345.458 231.092 345.342C226.523 345.135 219.895 344.611 215.539 343.287C212.615 342.399 209.595 341.183 207.019 338.957C205.973 338.052 204.353 338.729 204.268 340.11C204.184 341.457 204.294 342.842 204.937 343.54C207.385 346.192 218.867 349.498 228.24 351.451C228.24 351.451 228.426 355.714 229.789 361.391C231.334 367.815 232.088 371.077 232.088 371.077Z" fill="#091A3F"/>
</g>
<g opacity="0.35">
<path d="M225.98 350.889C225.98 350.889 212.422 348.751 205.849 342.404C205.849 342.404 206.496 350.528 218.203 356.91C223.436 359.763 225.786 363.356 227.366 368.301C227.365 368.301 225.136 357.156 225.98 350.889Z" fill="#091A3F"/>
</g>
<path d="M212.793 400.253C217.395 400.253 221.519 398.528 224.113 395.439C229.471 389.058 231.318 376.569 230.24 372.498C228.226 364.889 227.143 355.878 227.667 351.073C227.769 350.14 227.095 349.302 226.162 349.2C225.228 349.098 224.392 349.772 224.289 350.705C223.717 355.956 224.814 365.276 226.955 373.368C227.76 376.409 226.216 387.654 221.511 393.254C219.238 395.962 215.282 397.265 210.932 396.745C207.497 396.332 204.466 394.768 203.562 392.943C200.847 387.459 204.809 376.963 206.565 373.382L206.906 372.686L206.604 371.972C200.12 356.634 200.162 343.775 201.172 332.163C202.566 316.141 206.808 303.342 214.518 291.88C215.041 291.101 214.835 290.046 214.057 289.523C213.278 288.999 212.222 289.207 211.699 289.984C203.654 301.942 199.235 315.25 197.788 331.868C196.755 343.74 196.705 356.885 203.183 372.593C201.814 375.609 196.97 387.281 200.518 394.45C201.967 397.379 205.803 399.551 210.528 400.118C211.291 400.209 212.049 400.253 212.793 400.253Z" fill="#091A3F"/>
<path d="M219.487 282.148C218.631 282.665 217.845 283.244 217.072 283.838C216.31 284.441 215.57 285.066 214.86 285.722C214.151 286.378 213.445 287.045 212.829 287.791C212.212 288.535 211.638 289.325 211.217 290.235C210.817 291.101 211.195 292.124 212.06 292.524C212.726 292.831 213.488 292.678 213.984 292.196L214.008 292.171C214.668 291.526 215.224 290.796 215.758 290.036C216.293 289.279 216.764 288.461 217.243 287.642C217.722 286.823 218.183 285.984 218.629 285.128C219.065 284.264 219.497 283.391 219.857 282.458C219.908 282.326 219.842 282.177 219.711 282.126C219.635 282.098 219.552 282.108 219.487 282.148Z" fill="#091A3F"/>
<path d="M266.656 320.454L265.346 324.097L265.444 322.427C265.772 321.754 266.167 321.092 266.656 320.454Z" fill="white"/>
<path d="M246.562 404.68C246.615 404.68 246.667 404.68 246.721 404.68C252.426 404.628 257.252 401.868 259.962 397.108C262.03 393.474 263.166 378.622 261.258 373.678C257.937 365.077 258.199 358.454 258.339 354.894C258.343 354.813 258.346 354.733 258.348 354.654C259.811 353.582 262.955 350.915 264.901 346.612C266.741 342.541 267.452 337.872 268.139 333.357C268.884 328.467 269.588 323.847 271.628 320.742C272.143 319.958 271.925 318.904 271.141 318.389C270.357 317.875 269.303 318.092 268.788 318.876C266.341 322.602 265.583 327.577 264.781 332.845C264.127 337.134 263.452 341.567 261.805 345.212C259.707 349.852 255.834 352.265 255.796 352.289L255.004 352.773L254.981 353.704C254.974 354.01 254.96 354.362 254.944 354.76C254.804 358.293 254.514 365.644 258.087 374.901C259.604 378.834 258.611 392.611 257.009 395.427C254.914 399.107 251.152 401.242 246.689 401.283C242.652 401.333 238.925 399.581 237.367 396.956C233.508 390.457 236.438 375.768 236.469 375.621L236.583 375.063L236.338 374.549C232.427 366.373 230.184 357.955 230.184 351.455C230.184 350.517 229.424 349.757 228.485 349.757C227.547 349.757 226.787 350.517 226.787 351.455C226.787 358.308 229.058 367.046 233.032 375.507C232.49 378.455 230.347 391.786 234.446 398.69C236.614 402.338 241.358 404.68 246.562 404.68Z" fill="#091A3F"/>
<path d="M229.041 349.554C228.084 349.258 227.119 349.008 226.15 348.775C225.19 348.51 224.222 348.276 223.256 348.041C221.337 347.53 219.395 347.085 217.489 346.52C215.577 345.973 213.674 345.381 211.807 344.682C209.946 343.988 208.069 343.238 206.346 342.248L206.331 342.239C206.234 342.184 206.11 342.217 206.054 342.314C206.007 342.394 206.023 342.493 206.084 342.556C206.821 343.312 207.641 343.93 208.48 344.535C209.317 345.144 210.198 345.681 211.087 346.206C212.874 347.24 214.738 348.134 216.639 348.925C218.537 349.73 220.478 350.42 222.45 351.002C223.437 351.284 224.432 351.536 225.432 351.771C226.435 351.982 227.443 352.174 228.457 352.322C229.232 352.436 229.952 351.899 230.065 351.123C230.167 350.422 229.737 349.765 229.08 349.564L229.041 349.554Z" fill="#091A3F"/>
<path d="M194.374 294.295C195.613 294.295 196.412 294.118 196.442 294.111C197.203 293.932 197.674 293.169 197.495 292.409C197.316 291.649 196.56 291.178 195.793 291.356C195.445 291.434 187.117 293.168 183.713 281.927C181.685 275.233 186.331 269.086 190.823 263.141C194.273 258.574 197.533 254.26 197.533 249.861C197.533 249.079 196.899 248.445 196.118 248.445C195.336 248.445 194.702 249.079 194.702 249.861C194.702 253.31 191.721 257.257 188.564 261.434C183.874 267.64 178.56 274.675 181.004 282.748C184.087 292.929 190.928 294.295 194.374 294.295Z" fill="#A4A9C9"/>
<path d="M207.235 328.006C209.098 328.986 211.2 330.048 213.483 331.136C212.078 330.587 210.789 330.064 209.646 329.587C208.733 329.202 207.918 328.663 207.235 328.006Z" fill="white"/>
<path d="M244.899 378.828C243.788 378.517 242.716 378.108 241.722 377.614C240.722 377.13 239.79 376.557 238.947 375.904C238.1 375.256 237.336 374.539 236.636 373.77C236.469 373.571 236.266 373.408 236.111 373.196C235.949 372.992 235.779 372.795 235.605 372.602C235.261 372.209 234.969 371.771 234.593 371.384L234.463 371.249C233.919 370.689 233.024 370.674 232.462 371.218C232.008 371.657 231.914 372.33 232.181 372.867C232.751 374.006 233.513 375.067 234.464 375.941C235.381 376.85 236.498 377.54 237.638 378.094C238.782 378.653 239.999 379.025 241.224 379.223C242.451 379.414 243.684 379.456 244.901 379.231C245.011 379.21 245.085 379.103 245.065 378.992C245.05 378.912 244.991 378.852 244.919 378.832L244.899 378.828Z" fill="#091A3F"/>
<path d="M213.95 376.899C211.899 375.943 210.065 374.71 208.586 373.241C207.839 372.512 207.186 371.721 206.593 370.903C205.964 370.104 205.48 369.223 204.876 368.375L204.8 368.269C204.346 367.631 203.46 367.481 202.822 367.936C202.29 368.314 202.099 368.991 202.311 369.575C202.737 370.746 203.361 371.863 204.187 372.813C204.979 373.792 205.976 374.589 207.017 375.254C208.059 375.926 209.183 376.437 210.34 376.788C211.499 377.131 212.682 377.34 213.888 377.298C214.001 377.295 214.089 377.2 214.086 377.086C214.083 377.005 214.035 376.938 213.968 376.907L213.95 376.899Z" fill="#091A3F"/>
<path d="M284.963 370.873C281.802 371.786 268.129 374.546 268.504 361.684C268.581 358.97 269.463 354.594 269.402 354.589C269.341 354.583 262.142 358.299 260.106 354.384C259.368 352.963 259.593 351.655 260.373 350.495C260.584 350.182 260.84 349.874 261.128 349.582C263.605 347.058 268.556 345.422 270.66 345.15C270.66 345.15 270.645 344.976 270.614 344.653C270.429 342.668 269.659 335.084 268.238 328.517C267.468 324.971 266.509 321.719 265.349 319.805L266.355 312.736L266.821 309.431L268.376 298.498L269.161 292.993C269.341 292.993 281.382 293.044 286.015 306.866C286.025 306.892 286.031 306.917 286.041 306.943C288.812 315.29 289.36 330.703 288.036 351.661C287.661 357.584 291.643 368.933 284.963 370.873Z" fill="white"/>
<g opacity="0.35">
<path d="M272.439 346.749C271.88 347.144 271.249 346.179 270.613 344.65C270.428 342.665 269.658 335.081 268.237 328.515C266.591 334.169 265.938 340.192 263.353 345.907C262.712 347.323 261.932 348.549 261.127 349.581C260.875 349.904 260.624 350.207 260.372 350.494C258.469 352.653 256.683 353.731 256.683 353.731C256.673 354.295 256.632 355.014 256.606 355.87L254.651 355.645C254.651 355.645 254.492 351.902 254.989 347.527C255.249 345.232 253.69 343.149 251.416 342.746C247.592 342.067 242.813 340.624 237.13 337.802C237.13 337.802 234.251 330.624 240.203 328.551C240.203 328.551 250.494 335.174 259.735 333.81C261.458 329.885 262.946 324.569 262.09 316.597C261.464 310.784 263.363 310.677 265.42 312.015C265.758 312.241 266.071 312.477 266.354 312.733C268.334 314.493 269.048 317.001 269.735 320.101C269.833 320.547 269.956 321.04 270.09 321.579C271.183 325.929 273.332 333.096 274.266 341.029C275.107 348.185 272.439 346.749 272.439 346.749Z" fill="#091A3F"/>
</g>
<path d="M264.848 320.11C265.362 322.152 265.693 324.206 266.048 326.297L266.596 329.425L267.116 332.577L268.111 338.923C268.431 341.041 268.697 343.19 268.906 345.302L270.434 343.405C269.514 343.543 268.736 343.752 267.947 343.983C267.165 344.217 266.401 344.487 265.649 344.79C264.147 345.405 262.678 346.138 261.28 347.157C260.585 347.673 259.902 348.256 259.296 349.014C258.7 349.766 258.149 350.718 257.967 351.864C257.784 353.01 258.045 354.211 258.52 355.126C258.777 355.616 259.11 356.119 259.558 356.524C259.999 356.932 260.513 357.255 261.036 357.472C262.09 357.896 263.107 357.959 264.027 357.917C264.948 357.864 265.804 357.7 266.622 357.482C267.44 357.264 268.221 356.992 268.981 356.684L269.547 356.445L270.068 356.211C270.191 356.149 269.951 356.3 269.513 356.342C269.432 357.198 266.483 353.632 267.656 354.58L267.662 354.479L267.649 354.57L267.608 354.828L267.517 355.383C267.266 356.889 267.024 358.416 266.867 359.997C266.786 360.782 266.736 361.625 266.758 362.463C266.762 363.298 266.842 364.153 266.994 365.011C267.281 366.717 268.014 368.494 269.245 369.926C270.482 371.359 272.162 372.332 273.837 372.838C275.522 373.371 277.217 373.521 278.864 373.514C280.512 373.493 282.123 373.305 283.708 372.982C284.105 372.898 284.501 372.811 284.899 372.706C285.101 372.654 285.292 372.604 285.512 372.537L286.214 372.29C287.147 371.908 288.049 371.268 288.71 370.461C289.378 369.656 289.8 368.74 290.074 367.859C290.346 366.973 290.479 366.106 290.552 365.263C290.696 363.576 290.602 361.98 290.473 360.422C290.336 358.868 290.144 357.352 289.986 355.873C289.833 354.392 289.704 352.958 289.79 351.634L290.05 347.079C290.204 344.039 290.33 340.998 290.399 337.95C290.469 334.903 290.5 331.852 290.442 328.795C290.389 325.737 290.279 322.675 290.022 319.606C289.768 316.539 289.401 313.463 288.759 310.387C288.602 309.618 288.396 308.851 288.209 308.082L287.865 306.931L287.69 306.357L287.472 305.792C287.171 305.041 286.912 304.277 286.571 303.541C286.198 302.816 285.837 302.086 285.447 301.37C284.997 300.684 284.557 299.989 284.087 299.316L283.311 298.351C283.047 298.033 282.817 297.686 282.513 297.401C281.926 296.815 281.39 296.17 280.727 295.658L279.762 294.86C279.418 294.622 279.063 294.4 278.713 294.172C277.289 293.303 275.739 292.625 274.113 292.297C273.303 292.126 272.478 292.036 271.649 292.047C270.814 292.061 270.01 292.137 269.16 292.412C268.839 292.517 268.664 292.861 268.767 293.181C268.822 293.352 268.946 293.483 269.099 293.551L269.164 293.58C270.529 294.182 271.861 294.772 273.112 295.369C273.423 295.528 273.742 295.661 274.047 295.821C274.349 295.991 274.658 296.137 274.962 296.293C275.262 296.456 275.547 296.649 275.846 296.81L276.288 297.062L276.711 297.348C276.995 297.533 277.274 297.725 277.565 297.902L278.372 298.523C278.941 298.902 279.401 299.413 279.917 299.864C280.413 300.336 280.824 300.894 281.277 301.413C281.679 301.975 282.04 302.569 282.428 303.143C285.224 307.984 286.016 313.982 286.534 319.891C286.782 322.859 286.891 325.855 286.943 328.854C287.001 331.852 286.968 334.86 286.901 337.869C286.833 340.878 286.709 343.889 286.556 346.899L286.299 351.415C286.194 353.117 286.352 354.713 286.507 356.242C286.672 357.774 286.858 359.265 286.987 360.728C287.11 362.185 287.185 363.627 287.067 364.96C286.96 366.291 286.626 367.512 286.015 368.23C285.711 368.594 285.344 368.858 284.878 369.056L284.509 369.185C284.367 369.23 284.192 369.276 284.027 369.318C283.694 369.405 283.349 369.481 283.006 369.554C280.255 370.105 277.328 370.254 274.89 369.501C273.673 369.13 272.645 368.498 271.893 367.637C271.155 366.765 270.653 365.653 270.439 364.38C270.328 363.747 270.263 363.088 270.261 362.41C270.242 361.733 270.28 361.062 270.353 360.34C270.495 358.908 270.726 357.44 270.973 355.96L271.067 355.394L271.114 355.092L271.14 354.9C271.145 354.845 271.152 354.845 271.16 354.658C272.331 355.592 269.393 351.971 269.281 352.851C268.821 352.9 268.559 353.06 268.66 353.009L268.145 353.241L267.665 353.444C267.023 353.704 266.37 353.931 265.724 354.103C265.079 354.276 264.439 354.391 263.848 354.425C263.259 354.455 262.732 354.386 262.376 354.24C262.028 354.08 261.835 353.909 261.647 353.552C261.433 353.119 261.382 352.768 261.428 352.412C261.519 351.699 262.301 350.731 263.36 349.979C264.41 349.209 265.667 348.567 266.966 348.039C267.617 347.775 268.284 347.541 268.953 347.34C269.614 347.14 270.308 346.972 270.889 346.901L272.558 346.697L272.417 345.004C272.233 342.795 272.003 340.634 271.766 338.45C271.525 336.271 271.212 334.096 270.802 331.932L270.476 330.31L270.091 328.695C269.967 328.157 269.825 327.619 269.665 327.085C269.507 326.549 269.36 326.018 269.162 325.488C268.971 324.959 268.778 324.433 268.565 323.912C268.322 323.394 268.093 322.874 267.839 322.368C267.568 321.862 267.264 321.362 266.956 320.88C266.635 320.396 266.229 319.939 265.849 319.51C265.632 319.265 265.259 319.244 265.014 319.46C264.844 319.612 264.782 319.838 264.833 320.046L264.848 320.11Z" fill="#091A3F"/>
<g opacity="0.35">
<path d="M284.959 370.875C281.805 371.79 268.128 374.548 268.504 361.686C268.539 360.524 268.652 359.249 268.796 358.087C271.376 365.808 282.649 366.25 284.737 364.332C287.513 361.782 287.384 355.977 287.74 353.564C288.373 359.111 289.694 369.5 284.959 370.875Z" fill="#091A3F"/>
</g>
<g opacity="0.35">
<path d="M203.883 316.437C206.81 310.777 208.854 305.304 210.27 300.295C209.185 303.097 207.906 305.991 206.38 308.937C204.594 312.395 203.137 316.142 202.211 319.991C202.725 318.781 203.288 317.593 203.883 316.437Z" fill="#091A3F"/>
</g>
<path d="M204.329 319.123C201.264 319.123 198.779 316.638 198.779 313.573C198.779 310.508 201.264 308.023 204.329 308.023C207.395 308.023 209.879 310.508 209.879 313.573C209.879 316.638 207.395 319.123 204.329 319.123Z" fill="white"/>
<g opacity="0.35">
<path d="M199.06 311.837C198.101 314.748 199.68 317.887 202.592 318.846C205.503 319.805 208.644 318.221 209.603 315.311C209.868 314.507 209.94 313.681 209.838 312.891C208.406 314.393 206.18 315.029 204.078 314.336C201.975 313.643 200.565 311.808 200.309 309.751C199.757 310.325 199.325 311.033 199.06 311.837Z" fill="#091A3F"/>
</g>
<path d="M204.336 320.878C205.463 320.878 206.58 320.614 207.616 320.092C209.357 319.214 210.652 317.71 211.262 315.859C211.872 314.006 211.725 312.028 210.846 310.287C209.969 308.546 208.465 307.251 206.613 306.641C202.789 305.382 198.655 307.466 197.394 311.289C196.135 315.112 198.221 319.248 202.043 320.507C202.796 320.755 203.568 320.878 204.336 320.878ZM204.332 309.774C204.724 309.774 205.124 309.835 205.517 309.966C206.481 310.283 207.263 310.956 207.721 311.864C208.177 312.769 208.254 313.799 207.936 314.764C207.619 315.727 206.945 316.51 206.039 316.966C205.132 317.423 204.103 317.5 203.139 317.183C201.149 316.527 200.065 314.375 200.719 312.384C201.247 310.788 202.736 309.774 204.332 309.774Z" fill="#091A3F"/>
<path d="M205.515 328.462L232.786 339.282C236.013 340.564 239.705 338.971 240.988 335.74L246.745 321.228C247.867 318.399 246.785 315.218 244.328 313.61C243.982 313.38 243.605 313.186 243.203 313.026L215.937 302.207C212.705 300.924 209.014 302.516 207.734 305.749L203.172 317.242L201.973 320.26C200.69 323.491 202.287 327.18 205.515 328.462Z" fill="white"/>
<g opacity="0.35">
<path d="M205.515 328.461L232.786 339.281C236.013 340.563 239.705 338.969 240.988 335.739L246.745 321.227C247.867 318.398 246.785 315.217 244.328 313.609C242.372 314.023 241.127 314.291 241.127 314.291C235.177 325.412 229.556 329.906 214.997 324.402C208.713 322.025 205.149 319.509 203.171 317.241L201.972 320.258C200.69 323.489 202.287 327.179 205.515 328.461Z" fill="#091A3F"/>
</g>
<path d="M235.104 341.143C238.183 341.143 241.099 339.293 242.302 336.263L248.061 321.748C248.82 319.836 248.786 317.735 247.966 315.834C247.145 313.932 245.639 312.468 243.725 311.708L216.457 300.888C214.544 300.129 212.442 300.162 210.542 300.983C208.641 301.804 207.176 303.31 206.417 305.224L200.657 319.738C199.898 321.651 199.931 323.752 200.752 325.653C201.573 327.554 203.079 329.018 204.993 329.778L232.262 340.599C233.195 340.968 234.156 341.143 235.104 341.143ZM232.784 339.283H232.778H232.784ZM213.619 303.174C214.227 303.174 214.834 303.29 215.412 303.519L242.681 314.339C243.892 314.819 244.845 315.749 245.366 316.955C245.887 318.161 245.91 319.493 245.429 320.703L239.67 335.217C238.673 337.73 235.816 338.963 233.306 337.966L206.037 327.145C204.827 326.665 203.873 325.736 203.352 324.53C202.831 323.322 202.809 321.992 203.289 320.781L209.048 306.267C209.528 305.057 210.457 304.103 211.664 303.582C212.294 303.31 212.956 303.174 213.619 303.174Z" fill="#091A3F"/>
<path d="M204.463 327.919C204.786 328.133 205.136 328.313 205.515 328.46L232.785 339.281C235.151 340.218 237.764 339.616 239.497 337.95C240.128 337.345 240.643 336.6 240.983 335.737L243.543 329.292L244.388 327.165L246.744 321.227C248.027 317.995 246.429 314.306 243.201 313.024L237.308 310.688C239.821 312.278 240.94 315.493 239.808 318.351L236.699 326.191L234.048 332.868C232.766 336.095 229.073 337.692 225.846 336.41L204.463 327.919Z" fill="white"/>
<g opacity="0.35">
<path d="M204.463 327.919C204.787 328.133 205.137 328.313 205.515 328.46L232.786 339.281C236.013 340.563 239.705 338.969 240.983 335.737L244.388 327.164C243.101 328.406 241.132 329.777 239.082 329.19C237.956 328.87 237.201 327.669 236.699 326.19L234.048 332.867C232.766 336.094 229.074 337.691 225.846 336.409L204.463 327.919Z" fill="#091A3F"/>
</g>
<path d="M235.1 341.144C236.143 341.144 237.186 340.93 238.176 340.502C240.077 339.681 241.543 338.174 242.3 336.26L248.058 321.747C248.818 319.836 248.784 317.734 247.963 315.833C247.142 313.932 245.636 312.467 243.724 311.706L237.833 309.37L236.553 311.882C238.543 313.143 239.358 315.645 238.491 317.83L232.731 332.343C232.252 333.554 231.323 334.508 230.116 335.029C228.91 335.55 227.581 335.573 226.37 335.093L204.982 326.604L203.69 329.107C204.103 329.374 204.543 329.599 205.001 329.778L232.262 340.596C233.18 340.962 234.14 341.144 235.1 341.144ZM241.34 313.807L242.681 314.339C243.891 314.819 244.845 315.75 245.367 316.956C245.888 318.162 245.91 319.494 245.429 320.703L239.67 335.217C239.191 336.428 238.261 337.381 237.055 337.903C235.849 338.424 234.519 338.447 233.309 337.967L231.792 337.365C233.425 336.506 234.682 335.112 235.365 333.387L241.124 318.874C241.784 317.208 241.826 315.428 241.34 313.807Z" fill="#091A3F"/>
<path d="M226.129 321.461C225.92 321.999 224.981 326.636 224.981 326.636C224.981 326.636 226.357 327.173 228.045 327.832C230.155 328.655 232.719 327.137 233.769 324.442C234.821 321.747 233.963 318.895 231.852 318.071C230.428 317.515 228.788 316.875 228.788 316.875C228.788 316.875 226.471 320.584 226.129 321.461Z" fill="#FF9501"/>
<g opacity="0.35">
<path d="M226.129 321.461C225.92 321.999 224.981 326.636 224.981 326.636C224.981 326.636 226.357 327.173 228.045 327.832C230.155 328.655 232.719 327.137 233.769 324.442C234.821 321.747 233.963 318.895 231.852 318.071C230.428 317.515 228.788 316.875 228.788 316.875C228.788 316.875 226.471 320.584 226.129 321.461Z" fill="#091A3F"/>
</g>
<path d="M228.665 328.335C230.814 328.335 233.007 326.714 233.995 324.183C234.572 322.704 234.66 321.127 234.244 319.743C233.804 318.284 232.864 317.209 231.595 316.713L229.456 315.878C228.536 315.52 227.491 315.869 226.975 316.712C225.714 318.765 224.973 320.068 224.771 320.584C224.718 320.721 224.576 321.084 223.785 324.911C223.583 325.889 224.112 326.861 225.042 327.224L227.171 328.054C227.655 328.244 228.159 328.335 228.665 328.335ZM228.714 317.436C228.756 317.436 228.798 317.444 228.839 317.46L230.978 318.295C231.75 318.596 232.332 319.284 232.618 320.231C232.926 321.254 232.853 322.437 232.413 323.565C231.533 325.82 229.457 327.122 227.788 326.471L225.659 325.641C225.503 325.58 225.414 325.418 225.447 325.253C226.16 321.804 226.327 321.271 226.353 321.198C226.51 320.797 227.284 319.452 228.422 317.598C228.486 317.496 228.597 317.436 228.714 317.436Z" fill="#091A3F"/>
<path d="M224.408 326.063C222.298 325.239 221.44 322.387 222.492 319.691C223.543 316.996 226.107 315.479 228.217 316.302C230.327 317.125 231.185 319.978 230.134 322.673C229.082 325.368 226.519 326.886 224.408 326.063Z" fill="#FF9501"/>
<g opacity="0.35">
<path d="M229.955 317.842C229.885 318.319 229.761 318.802 229.574 319.282C228.522 321.977 225.96 323.495 223.85 322.672C223.107 322.382 222.523 321.836 222.119 321.138C221.795 323.343 222.681 325.392 224.416 326.069C226.526 326.892 229.09 325.375 230.141 322.679C230.821 320.933 230.697 319.125 229.955 317.842Z" fill="#091A3F"/>
</g>
<g opacity="0.6">
<path d="M223.063 321.396C224.115 318.701 226.678 317.183 228.788 318.006C229.536 318.298 230.124 318.849 230.528 319.554C230.315 318.052 229.5 316.806 228.222 316.308C226.112 315.484 223.548 317.002 222.497 319.697C221.819 321.435 221.939 323.237 222.674 324.519C222.536 323.542 222.65 322.458 223.063 321.396Z" fill="white"/>
</g>
<path d="M225.601 327.139C227.749 327.139 229.943 325.519 230.93 322.988C232.15 319.86 231.073 316.509 228.531 315.517C225.987 314.525 222.926 316.262 221.707 319.389C221.129 320.868 221.041 322.445 221.458 323.829C221.897 325.289 222.837 326.364 224.106 326.86C224.591 327.049 225.095 327.139 225.601 327.139ZM227.011 316.932C227.318 316.932 227.622 316.986 227.914 317.099C229.584 317.752 230.227 320.116 229.348 322.371C228.468 324.625 226.394 325.929 224.724 325.277C223.951 324.975 223.369 324.287 223.084 323.34C222.776 322.318 222.848 321.134 223.289 320.006C224.016 318.146 225.556 316.932 227.011 316.932Z" fill="#091A3F"/>
<path d="M214.034 333.136C214.609 333.136 215.151 332.783 215.361 332.211L218.808 322.886C219.166 321.916 219.015 320.839 218.405 320.007L215.965 316.672C215.916 316.605 215.905 316.519 215.935 316.442L220.772 304.13C221.057 303.402 220.699 302.581 219.971 302.294C219.244 302.01 218.422 302.367 218.136 303.095L213.299 315.407C212.913 316.392 213.054 317.489 213.68 318.344L216.121 321.68C216.169 321.746 216.181 321.831 216.153 321.907L212.706 331.23C212.435 331.963 212.809 332.778 213.542 333.049C213.704 333.106 213.871 333.136 214.034 333.136Z" fill="#091A3F"/>
<path d="M267.177 327.254C267.177 327.254 269.075 329.953 268.315 333.157C267.437 336.86 264.844 337.778 264.844 337.778C264.844 337.778 253.875 340.428 239.466 333.006C239.466 333.006 236.59 325.829 242.545 323.757C242.546 323.757 258.101 330.32 267.177 327.254Z" fill="white"/>
<g opacity="0.35">
<path d="M268.314 333.158C267.436 336.858 264.845 337.776 264.845 337.776C264.845 337.776 253.877 340.428 239.464 333.005C239.464 333.005 238.52 330.639 238.838 328.239C238.879 328.372 238.909 328.444 238.909 328.444C249.441 333.87 258.136 333.913 262.05 333.543C264.77 333.286 267.068 331.357 267.731 328.708C267.74 328.671 267.749 328.634 267.758 328.598C267.774 328.537 267.788 328.474 267.794 328.413C268.267 329.5 268.77 331.24 268.314 333.158Z" fill="#091A3F"/>
</g>
<path d="M259.65 340C263.021 340 265.061 339.529 265.256 339.481L265.43 339.431C266.726 338.971 269.152 337.218 270.019 333.562C270.95 329.637 268.706 326.385 268.61 326.248L267.856 325.178L266.616 325.597C258.278 328.412 243.375 322.209 243.225 322.146L242.606 321.886L241.969 322.107C239.978 322.8 238.505 324.085 237.715 325.822C236.156 329.246 237.664 333.219 237.841 333.661L238.084 334.267L238.664 334.566C247.365 339.047 254.855 340 259.65 340ZM264.311 336.105C263.112 336.341 253.384 337.983 240.897 331.771C240.579 330.662 240.246 328.7 240.907 327.263C241.23 326.559 241.77 326.028 242.548 325.65C245.575 326.845 257.709 331.286 266.28 329.325C266.616 330.17 266.929 331.423 266.613 332.755C266.055 335.106 264.669 335.928 264.311 336.105Z" fill="#091A3F"/>
<path d="M215.54 369.919C219.219 369.919 223.34 368.976 227.561 366.246C228.086 365.906 228.237 365.205 227.897 364.68C227.557 364.156 226.855 364.005 226.331 364.344C214.126 372.239 202.875 363.559 202.763 363.471C202.272 363.083 201.56 363.166 201.173 363.657C200.786 364.149 200.869 364.86 201.36 365.247C201.446 365.315 207.411 369.919 215.54 369.919Z" fill="#091A3F"/>
<path d="M245.019 369.629C249.006 369.629 253.411 368.675 257.743 365.873C258.269 365.533 258.42 364.832 258.08 364.307C257.74 363.782 257.039 363.632 256.514 363.97C244.251 371.904 231.303 363.501 231.175 363.415C230.654 363.07 229.951 363.213 229.605 363.733C229.26 364.254 229.403 364.958 229.923 365.303C230.019 365.366 236.588 369.629 245.019 369.629Z" fill="#091A3F"/>
<path d="M269.76 338.494C269.885 338.494 270.013 338.473 270.137 338.429C270.261 338.386 282.537 334.109 287.976 338.262C288.474 338.642 289.184 338.545 289.564 338.049C289.943 337.552 289.848 336.842 289.351 336.462C282.938 331.566 269.931 336.099 269.381 336.295C268.791 336.505 268.484 337.151 268.692 337.74C268.858 338.205 269.295 338.494 269.76 338.494Z" fill="#091A3F"/>
<path d="M201.835 262.666C217.979 262.666 220.741 247.729 220.768 247.574C220.875 246.958 220.461 246.371 219.845 246.266C219.223 246.155 218.644 246.573 218.537 247.188C218.436 247.766 215.914 261.053 200.714 260.376C200.697 260.376 200.68 260.375 200.662 260.375C200.061 260.375 199.559 260.848 199.532 261.456C199.504 262.081 199.987 262.61 200.612 262.638C201.027 262.656 201.437 262.666 201.835 262.666Z" fill="#091A3F"/>
<g opacity="0.35">
<path d="M286.014 306.864C282.639 308.198 279.068 309.056 275.399 309.363C273.445 309.527 271.371 309.604 269.196 309.543C268.416 309.522 267.626 309.486 266.82 309.429C259.899 308.942 252.095 307.074 243.969 302.693C232.445 296.469 225.499 288.014 221.323 280.426C222.59 279.051 223.827 277.778 224.879 276.661L226.32 277.881L228.664 278.425L267.564 287.485L267.903 292.051L268.051 294.099L268.374 298.496L269.158 292.991C269.34 292.991 281.382 293.042 286.014 306.864Z" fill="#091A3F"/>
</g>
<path d="M218.064 241.332C217.282 250.468 218.779 259.838 222.732 268.552C223.539 270.329 224.443 272.075 225.452 273.786C225.94 274.619 226.461 275.447 227 276.27C228.639 278.742 230.441 281.036 232.39 283.15C234.065 284.976 235.851 286.666 237.719 288.217C239.976 290.094 242.366 291.765 244.856 293.233C245.765 293.765 246.687 294.271 247.619 294.752C264.702 303.52 285.888 303.053 303.028 291.688C328.282 274.952 335.183 240.914 318.451 215.662C315.224 210.801 311.359 206.61 307.034 203.151C306.532 202.742 306.017 202.346 305.493 201.961C304.102 200.923 302.668 199.957 301.197 199.064C297.794 197.002 294.192 195.331 290.469 194.063C286.747 192.792 282.896 191.923 278.997 191.474C277.757 191.33 276.513 191.227 275.261 191.169C273.386 191.083 271.506 191.088 269.619 191.198C260.222 191.716 250.834 194.665 242.422 200.242C227.895 209.871 219.443 225.222 218.064 241.332Z" fill="white"/>
<path d="M272.707 300.977C283.354 300.977 293.957 297.903 303.119 291.828C328.407 275.07 335.345 240.862 318.589 215.573C315.407 210.778 311.554 206.556 307.138 203.023C306.66 202.634 306.139 202.232 305.592 201.83C304.204 200.794 302.754 199.816 301.283 198.924C297.904 196.875 294.284 195.188 290.523 193.907C286.799 192.635 282.929 191.761 279.016 191.312C277.763 191.167 276.502 191.064 275.269 191.006C273.351 190.918 271.447 190.928 269.609 191.034C259.908 191.57 250.475 194.707 242.331 200.107C228.247 209.438 219.341 224.46 217.898 241.319C217.098 250.666 218.717 260.107 222.58 268.622C223.398 270.423 224.316 272.19 225.308 273.872C225.757 274.638 226.265 275.452 226.86 276.362C228.48 278.807 230.299 281.128 232.267 283.263C233.912 285.056 235.712 286.768 237.613 288.345C239.837 290.194 242.246 291.887 244.771 293.376C245.676 293.906 246.608 294.418 247.542 294.901C255.46 298.965 264.098 300.977 272.707 300.977ZM272.688 191.278C273.538 191.278 274.394 191.297 275.253 191.337C276.479 191.393 277.731 191.495 278.978 191.64C282.867 192.088 286.715 192.956 290.415 194.221C294.155 195.494 297.752 197.171 301.111 199.207C302.573 200.094 304.014 201.065 305.395 202.096C305.938 202.495 306.455 202.894 306.929 203.281C311.32 206.793 315.15 210.99 318.312 215.756C334.969 240.892 328.072 274.894 302.936 291.551C286.465 302.472 265.298 303.641 247.695 294.605C246.766 294.126 245.839 293.615 244.94 293.09C242.43 291.61 240.036 289.928 237.826 288.09C235.936 286.521 234.148 284.821 232.513 283.039C230.557 280.915 228.748 278.609 227.138 276.179C226.547 275.276 226.042 274.466 225.596 273.703C224.608 272.03 223.697 270.275 222.884 268.485C219.044 260.021 217.434 250.638 218.231 241.347C219.665 224.59 228.516 209.659 242.515 200.385C250.61 195.017 259.986 191.899 269.629 191.367C270.631 191.307 271.653 191.278 272.688 191.278Z" fill="#091A3F"/>
<g opacity="0.35">
<path d="M303.027 291.688C285.887 303.055 264.697 303.521 247.617 294.751C246.684 294.271 245.763 293.765 244.855 293.233C242.364 291.765 239.976 290.093 237.719 288.218C235.85 286.665 234.063 284.975 232.39 283.151C230.44 281.037 228.637 278.743 226.997 276.27C226.461 275.446 225.939 274.62 225.449 273.787C224.44 272.075 223.54 270.327 222.731 268.551C218.778 259.835 217.279 250.468 218.063 241.33C218.493 236.311 219.609 231.362 221.382 226.639C220.834 235.374 222.372 244.283 226.143 252.597C226.947 254.376 227.852 256.121 228.861 257.833C229.348 258.666 229.87 259.491 230.409 260.317C232.049 262.79 233.852 265.083 235.798 267.196C237.475 269.022 239.259 270.71 241.127 272.264C243.385 274.138 245.777 275.812 248.264 277.278C249.175 277.811 250.096 278.318 251.029 278.797C268.109 287.566 289.296 287.1 306.439 275.733C316.442 269.105 323.562 259.762 327.476 249.328C326.446 265.903 317.935 281.811 303.027 291.688Z" fill="#091A3F"/>
</g>
<path d="M272.707 302.091C283.57 302.091 294.388 298.953 303.735 292.757C329.535 275.66 336.614 240.757 319.518 214.955C316.272 210.063 312.341 205.756 307.834 202.151C307.349 201.756 306.815 201.343 306.253 200.929C304.842 199.877 303.363 198.88 301.862 197.969C298.414 195.879 294.72 194.156 290.882 192.851C287.085 191.553 283.135 190.662 279.144 190.202C277.866 190.053 276.579 189.949 275.321 189.89C273.363 189.801 271.421 189.811 269.545 189.92C259.649 190.466 250.023 193.667 241.715 199.176C227.346 208.696 218.261 224.021 216.788 241.222C215.971 250.759 217.624 260.392 221.565 269.08C222.4 270.918 223.335 272.72 224.349 274.436C224.805 275.216 225.323 276.046 225.929 276.97C227.585 279.469 229.441 281.837 231.449 284.016C233.127 285.846 234.963 287.591 236.903 289.201C239.172 291.089 241.63 292.816 244.207 294.334C245.131 294.876 246.081 295.398 247.034 295.889C255.11 300.038 263.924 302.091 272.707 302.091ZM272.688 192.393C273.521 192.393 274.36 192.412 275.202 192.451C276.402 192.506 277.628 192.606 278.849 192.747C282.659 193.186 286.428 194.037 290.054 195.275C293.717 196.522 297.243 198.165 300.532 200.159C301.964 201.028 303.375 201.979 304.728 202.988C305.262 203.381 305.764 203.768 306.225 204.144C310.534 207.59 314.284 211.702 317.384 216.371C333.7 240.994 326.942 274.303 302.321 290.62C286.187 301.317 265.45 302.464 248.204 293.612C247.295 293.143 246.386 292.643 245.504 292.126C243.049 290.679 240.704 289.031 238.539 287.231C236.688 285.694 234.937 284.028 233.335 282.282C231.418 280.201 229.645 277.94 228.068 275.56C227.49 274.678 226.995 273.883 226.558 273.137C225.59 271.495 224.695 269.774 223.899 268.02C220.139 259.731 218.562 250.539 219.341 241.439C220.747 225.023 229.418 210.396 243.131 201.31C251.06 196.052 260.244 192.997 269.691 192.476C270.673 192.421 271.675 192.393 272.688 192.393Z" fill="#091A3F"/>
<path d="M272.708 302.463C283.641 302.463 294.533 299.303 303.941 293.067C329.912 275.856 337.038 240.723 319.828 214.75C316.561 209.827 312.603 205.491 308.065 201.861C307.578 201.465 307.038 201.047 306.472 200.63C305.054 199.573 303.565 198.568 302.053 197.652C298.582 195.548 294.863 193.814 291 192.498C287.178 191.193 283.203 190.296 279.185 189.833C277.899 189.683 276.603 189.578 275.337 189.519C273.367 189.43 271.411 189.439 269.522 189.548C259.561 190.099 249.871 193.32 241.509 198.866C227.045 208.45 217.899 223.875 216.416 241.19C215.594 250.791 217.258 260.488 221.226 269.234C222.066 271.084 223.008 272.898 224.027 274.626C224.487 275.409 225.007 276.245 225.616 277.175C227.285 279.692 229.153 282.076 231.174 284.269C232.863 286.11 234.711 287.867 236.663 289.489C238.948 291.388 241.422 293.127 244.016 294.656C244.947 295.201 245.902 295.726 246.86 296.221C254.994 300.397 263.865 302.463 272.708 302.463ZM272.688 192.764C273.515 192.764 274.349 192.784 275.185 192.822C276.374 192.878 277.593 192.976 278.806 193.117C282.589 193.553 286.333 194.397 289.933 195.627C293.571 196.866 297.072 198.498 300.338 200.477C301.759 201.339 303.161 202.285 304.504 203.286C305.036 203.676 305.532 204.06 305.988 204.432C310.27 207.856 313.994 211.939 317.072 216.576C333.275 241.028 326.565 274.106 302.114 290.31C286.092 300.932 265.5 302.071 248.372 293.281C247.47 292.816 246.566 292.319 245.689 291.806C243.252 290.369 240.924 288.733 238.775 286.945C236.936 285.419 235.198 283.765 233.606 282.032C231.702 279.965 229.943 277.72 228.376 275.356C227.803 274.481 227.31 273.691 226.877 272.95C225.914 271.319 225.026 269.61 224.235 267.867C220.5 259.636 218.935 250.509 219.708 241.472C221.105 225.17 229.716 210.644 243.333 201.621C251.208 196.4 260.328 193.366 269.708 192.848C270.686 192.793 271.683 192.764 272.688 192.764Z" fill="#091A3F"/>
<path d="M218.67 255.375C233.179 291.796 278.499 302.444 301.727 271.327C317.53 250.158 309.004 218.341 287.7 204.465C272.195 194.366 252.639 191.289 230.386 211.069C230.386 211.069 221.887 221.347 220.039 230.695C218.191 240.043 217.971 249.448 217.971 249.448L218.67 255.375Z" fill="#142957"/>
<path d="M301.726 271.327C278.499 302.443 233.177 291.795 218.669 255.377L218.528 254.176C244.602 278.88 285.675 280.556 309.745 249.533C309.164 257.249 306.602 264.793 301.726 271.327Z" fill="#132249"/>
<path d="M266.561 296.799C268.758 296.799 270.95 296.657 273.122 296.373C286.829 294.573 298.716 287.404 307.499 275.639C315.581 264.815 318.624 250.942 316.068 236.58C313.287 220.953 304.054 206.689 291.368 198.427C284.246 193.788 277.001 190.88 269.835 189.783L269.688 189.76L269.539 189.768C259.613 190.316 249.962 193.526 241.63 199.049C227.222 208.596 218.112 223.963 216.635 241.208C215.816 250.77 217.473 260.431 221.425 269.142C222.262 270.984 223.201 272.791 224.216 274.511C224.673 275.293 225.192 276.125 225.799 277.053C227.46 279.559 229.321 281.934 231.334 284.119L231.499 284.273C241.786 292.393 254.264 296.799 266.561 296.799ZM269.549 192.639C276.261 193.691 283.075 196.446 289.804 200.828C301.839 208.667 310.603 222.221 313.248 237.084C315.664 250.658 312.807 263.743 305.204 273.927C296.894 285.057 285.671 291.836 272.749 293.533C259.222 295.309 244.87 291.142 233.366 282.096C231.485 280.047 229.745 277.822 228.193 275.48C227.616 274.601 227.123 273.807 226.687 273.064C225.721 271.427 224.829 269.711 224.034 267.962C220.285 259.696 218.713 250.53 219.49 241.456C220.892 225.086 229.538 210.502 243.212 201.441C251.08 196.223 260.182 193.182 269.549 192.639Z" fill="#091A3F"/>
<path d="M300.021 292.655C293.406 288.387 292.806 277.547 298.68 268.443C304.554 259.339 314.679 255.419 321.294 259.687C327.909 263.956 328.509 274.796 322.635 283.9C316.761 293.004 306.636 296.924 300.021 292.655Z" fill="white"/>
<path d="M306.058 296.002C312.835 296.002 320.363 291.259 324.813 283.501C328.186 277.618 329.206 271.161 327.613 265.783C326.519 262.09 324.289 259.292 321.167 257.69C313.383 253.698 302.327 258.686 296.521 268.814C293.148 274.695 292.128 281.153 293.72 286.53C294.814 290.223 297.043 293.022 300.167 294.624C301.986 295.559 303.987 296.002 306.058 296.002ZM321.944 281.858C317.003 290.474 307.909 294.885 301.675 291.684C299.375 290.504 297.721 288.399 296.888 285.593C295.57 281.144 296.504 275.487 299.388 270.459C304.329 261.841 313.423 257.434 319.657 260.632C321.957 261.812 323.611 263.918 324.442 266.723C325.76 271.172 324.826 276.83 321.944 281.858Z" fill="#091A3F"/>
<path d="M304.94 292.645C299.672 288.984 299.38 280.293 304.287 273.232C309.194 266.171 317.442 263.415 322.709 267.075C327.977 270.736 328.269 279.428 323.362 286.488C318.455 293.549 310.207 296.306 304.94 292.645Z" fill="white"/>
<path d="M310.358 294.437C313.735 294.437 317.323 292.914 320.407 290.13C326.711 284.439 328.911 275.203 325.31 269.544C323.819 267.201 321.558 265.762 318.775 265.385C314.995 264.875 310.802 266.406 307.271 269.594C300.967 275.287 298.767 284.521 302.367 290.181C303.859 292.524 306.119 293.964 308.903 294.341C309.383 294.405 309.868 294.437 310.358 294.437ZM317.316 265.633C317.792 265.633 318.262 265.664 318.727 265.727C321.408 266.09 323.583 267.474 325.018 269.73C328.533 275.253 326.361 284.289 320.176 289.874C316.721 292.994 312.633 294.498 308.949 293.999C306.269 293.635 304.093 292.251 302.658 289.996C299.143 284.473 301.315 275.435 307.501 269.851C310.521 267.124 314.026 265.633 317.316 265.633Z" fill="#091A3F"/>
<g opacity="0.35">
<path d="M301.039 280.125C301.839 277.286 303.42 274.655 305.454 272.5C304.176 279.128 307.919 284.276 314.247 284.237C318.336 284.214 322.566 282.026 325.711 278.69C325.633 279.109 325.529 279.536 325.409 279.966C323.371 287.195 316.263 293.092 309.533 293.135C302.803 293.178 299.003 287.351 301.039 280.125Z" fill="#091A3F"/>
</g>
<path d="M309.784 295.644C315.143 295.644 321.182 291.654 324.971 285.106C327.827 280.169 328.768 274.662 327.487 270.375C326.671 267.641 325.029 265.586 322.736 264.433C316.655 261.374 308.079 265.565 303.213 273.973C300.358 278.909 299.417 284.416 300.697 288.704C301.513 291.438 303.156 293.492 305.448 294.646C306.794 295.322 308.262 295.644 309.784 295.644ZM318.397 266.3C319.482 266.3 320.514 266.523 321.448 266.993C323.018 267.782 324.157 269.235 324.742 271.194C325.801 274.741 324.959 279.404 322.491 283.67C318.454 290.649 311.389 294.424 306.736 292.085C305.166 291.295 304.027 289.842 303.442 287.883C302.383 284.337 303.224 279.673 305.693 275.406C308.92 269.83 314.082 266.3 318.397 266.3Z" fill="#091A3F"/>
<g opacity="0.5">
<path d="M292.999 221.572C292.999 221.572 272.5 210.009 254.294 214.288C254.275 214.293 254.256 214.297 254.237 214.302C250.406 215.206 246.888 217.131 244.04 219.847C240.274 223.439 238.204 226.467 236.485 229.202C231.26 237.523 230.369 242.401 230.369 242.401C228.396 235.032 228.863 228.365 233.147 221.391C233.57 220.705 234.033 220.013 234.53 219.316C234.645 219.155 234.761 218.999 234.881 218.843C234.879 218.84 234.883 218.836 234.89 218.835C235.997 217.498 237.517 215.794 239.392 214.017C245.044 208.651 253.911 202.59 264.359 203.756C283.897 205.933 294.23 221.133 292.999 221.572Z" fill="white"/>
</g>
<g opacity="0.5">
<path d="M292.905 259.39C289.035 258.196 287.025 253.573 288.417 249.063C289.808 244.554 294.072 241.867 297.942 243.06C301.812 244.254 303.821 248.877 302.43 253.387C301.039 257.896 296.774 260.584 292.905 259.39Z" fill="white"/>
</g>
<g opacity="0.5">
<path d="M290.105 269.485C288.471 269.128 287.483 267.296 287.898 265.392C288.314 263.488 289.975 262.233 291.609 262.59C293.243 262.946 294.231 264.779 293.815 266.683C293.4 268.587 291.739 269.841 290.105 269.485Z" fill="white"/>
</g>
<circle cx="196.28" cy="90.2797" r="73.0085" fill="#37AEE2" stroke="#091A3F" stroke-width="4"/>
<path d="M190.441 26.0508C168.692 28.8762 126.894 49.3606 133.687 108.695" stroke="#63CCFA" stroke-width="9" stroke-linecap="round"/>
<path d="M165.288 147.771C186.698 156.455 234.907 161.336 256.466 111.39" stroke="#1691C7" stroke-width="9" stroke-linecap="round"/>
<path d="M187.268 117.575C185.059 117.575 185.26 116.77 184.658 114.758L178.231 93.6301L227.433 64.6553" fill="#C8DAEA"/>
<path d="M187.268 117.575C188.674 117.575 189.477 116.77 190.482 115.965L199.519 107.313L188.273 100.471" fill="#A9C9DD"/>
<path d="M188.273 100.471L215.384 120.391C218.195 122.202 220.605 121.196 221.408 117.574L232.454 65.6611C233.458 61.2343 230.646 59.2222 227.634 60.6307L163.17 85.5813C158.952 87.191 158.952 89.8068 162.366 90.8128L179.035 96.0444L217.191 71.6975C218.999 70.6914 220.605 71.0938 219.4 72.5023" fill="#F6FBFE"/>
</g>
<defs>
<clipPath id="clip0_675_23835">
<rect width="424" height="424" fill="white"/>
</clipPath>
</defs>
</svg>
