<svg width="259" height="386" viewBox="0 0 259 386" fill="none" xmlns="http://www.w3.org/2000/svg">
<path d="M128.753 271.534C110.401 289.743 111.211 342.62 143.972 350.866C143.972 350.866 151.336 380.064 169.987 372.949C179.103 369.469 182.333 358.779 179.866 350.104C176.553 338.496 170.928 328.224 166.269 322.337C160.525 315.067 161.669 297.549 173.621 281.818" fill="white"/>
<path d="M169.986 372.949C162.479 375.809 156.806 372.794 152.695 368.158C146.605 361.282 143.983 350.866 143.983 350.866C115.191 343.621 111.08 301.899 122.961 279.53C124.594 276.456 126.536 273.738 128.765 271.534L169.724 280.936L173.633 281.83C172.954 282.712 172.322 283.606 171.714 284.5C161.573 299.492 160.858 315.484 166.28 322.337C166.316 322.384 166.364 322.444 166.411 322.515C168.938 325.733 171.726 330.202 174.277 335.469C174.956 336.864 175.611 338.306 176.243 339.807C177.613 343.049 178.853 346.517 179.878 350.104C182.333 358.779 179.091 369.469 169.986 372.949Z" fill="white"/>
<g opacity="0.35">
<path d="M169.987 372.949C162.479 375.809 156.806 372.794 152.695 368.158C159.404 368.873 166.84 368.17 171.321 361.711C174.181 357.588 167.937 354.275 162.753 341.762C158.808 332.252 160.25 324.339 157.64 321.586C150.895 314.46 126.465 312.231 122.949 279.53C124.582 276.456 126.525 273.738 128.753 271.534L169.712 280.936C170.225 282.283 170.88 283.475 171.679 284.476C171.691 284.488 171.691 284.5 171.703 284.5C161.561 299.492 160.846 315.484 166.268 322.337C166.304 322.384 166.352 322.444 166.399 322.515C167.615 324.208 171.631 331.382 176.219 339.807C177.59 343.049 178.829 346.517 179.854 350.104C182.333 358.779 179.091 369.469 169.987 372.949Z" fill="#091A3F"/>
</g>
<path d="M164.302 376.083C161.824 376.083 159.44 375.487 157.164 374.308C148 369.541 143.519 356.503 142.339 352.511C129.993 348.948 120.995 338.914 116.932 324.101C111.569 304.532 116.038 281.318 127.335 270.104C128.122 269.317 129.397 269.329 130.183 270.116C130.97 270.902 130.958 272.189 130.172 272.964C119.994 283.058 115.895 305.057 120.817 323.028C124.594 336.828 132.996 346.016 144.46 348.9C145.175 349.079 145.747 349.639 145.926 350.366C145.962 350.521 149.99 366.025 159.023 370.721C162.181 372.365 165.53 372.472 169.26 371.054C177.435 367.944 180.081 358.231 177.912 350.652C174.515 338.747 168.843 328.867 164.672 323.588C158.32 315.556 159.321 297.275 172.001 280.603C172.68 279.721 173.943 279.542 174.825 280.221C175.707 280.901 175.886 282.164 175.207 283.046C164.219 297.489 162.527 314.376 167.83 321.085C172.239 326.663 178.234 337.078 181.785 349.544C184.442 358.875 181.022 370.875 170.69 374.82C168.509 375.666 166.376 376.083 164.302 376.083Z" fill="#091A3F"/>
<path d="M135.808 328.522C128.884 328.522 122.282 326.71 117.015 322.134C116.264 321.491 116.193 320.359 116.836 319.608C117.48 318.857 118.612 318.785 119.363 319.429C131.685 330.143 152.743 322.802 163.23 316.771C164.088 316.283 165.184 316.581 165.673 317.427C166.161 318.285 165.863 319.381 165.017 319.87C156.687 324.661 145.902 328.522 135.808 328.522Z" fill="#091A3F"/>
<path d="M240.25 288.992C231.563 303.627 204.213 302.161 204.213 302.161L195.823 233.077L193.344 212.651L193.213 211.543L190.985 193.238C190.985 193.238 201.007 192.308 211.292 193.774C213.723 194.12 216.178 194.596 218.501 195.24C221.624 196.122 224.532 197.313 226.927 198.922C229.048 200.34 230.764 202.092 231.861 204.237C240 220.171 247.401 276.968 240.25 288.992Z" fill="white"/>
<g opacity="0.35">
<path d="M240.965 241.514C243.682 261.345 244.266 282.235 240.25 288.992C231.55 303.627 204.212 302.161 204.212 302.161L202.103 278.1C202.103 278.1 229.453 279.566 238.141 264.932C240.5 260.975 241.275 252.145 240.965 241.514Z" fill="#091A3F"/>
</g>
<path d="M206.453 304.235C205.13 304.235 204.284 304.199 204.105 304.187C202.997 304.127 202.139 303.174 202.199 302.066C202.258 300.957 203.2 300.099 204.32 300.159C204.582 300.171 230.562 301.374 238.522 287.968C241.478 282.998 241.966 267.792 239.786 248.307C237.724 229.847 233.815 212.508 230.061 205.167C224.663 194.608 200.161 194.43 191.175 195.252C190.067 195.359 189.09 194.537 188.983 193.429C188.875 192.32 189.698 191.343 190.806 191.236C192.236 191.105 225.902 188.197 233.648 203.332C237.605 211.066 241.68 228.966 243.79 247.866C244.898 257.769 246.936 281.711 241.99 290.041C234.232 303.09 213.508 304.235 206.453 304.235Z" fill="#091A3F"/>
<path d="M240 250.107L221.897 253.646C220.277 253.968 219.085 255.326 218.978 256.971C218.608 262.989 218.489 276.932 224.758 280.782C229.965 283.975 237.628 282.617 241.704 278.255C246.256 273.369 245.148 259.843 244.278 253.181C244.004 251.12 242.049 249.702 240 250.107Z" fill="white"/>
<g opacity="0.35">
<path d="M218.978 256.971C218.608 262.989 218.489 276.932 224.758 280.782C229.965 283.987 237.628 282.617 241.704 278.255C244.504 275.252 245.16 268.972 245.053 263.037C244.576 266.064 243.575 268.59 242.145 270.342C234.005 280.376 225.878 270.652 225.878 270.652C225.878 270.652 224.984 273.357 224.054 273.607C220.158 274.692 219.502 262.143 219.311 255.648C219.121 256.065 219.014 256.506 218.978 256.971Z" fill="#091A3F"/>
</g>
<path d="M231.36 284.559C228.643 284.559 225.961 283.892 223.709 282.498C216.749 278.219 216.499 264.586 216.976 256.84C217.131 254.278 219.002 252.156 221.516 251.656L239.618 248.117C241.144 247.819 242.729 248.164 243.992 249.07C245.255 249.976 246.089 251.37 246.292 252.907C247.52 262.262 247.984 274.477 243.194 279.614C240.19 282.843 235.722 284.559 231.36 284.559ZM240.691 252.061C240.584 252.061 240.476 252.073 240.381 252.097L222.279 255.636C221.564 255.779 221.028 256.375 220.992 257.102C220.301 268.578 222.1 276.789 225.818 279.077C230.085 281.699 236.687 280.698 240.226 276.897C243.039 273.881 243.801 265.122 242.276 253.467C242.216 253.026 241.99 252.633 241.621 252.383C241.346 252.156 241.025 252.061 240.691 252.061Z" fill="#091A3F"/>
<path d="M226.343 259.664C226.831 261.94 227.082 264.121 227.499 266.266C227.904 268.4 228.404 270.497 229.179 272.416C229.942 274.334 230.99 276.074 232.385 277.29C233.767 278.529 235.483 279.197 237.366 279.399C238.474 279.518 239.273 280.519 239.154 281.628C239.034 282.736 238.033 283.534 236.925 283.415C236.877 283.415 236.83 283.403 236.782 283.391C235.519 283.153 234.268 282.76 233.088 282.164C231.908 281.568 230.835 280.782 229.93 279.852C228.106 277.981 227.01 275.693 226.283 273.441C225.556 271.176 225.187 268.888 224.925 266.636C224.65 264.395 224.543 262.143 224.245 260.046V260.022C224.162 259.438 224.567 258.902 225.151 258.818C225.711 258.747 226.223 259.116 226.343 259.664Z" fill="#091A3F"/>
<path d="M223.34 205.775C222.815 205.429 222.148 205.274 221.481 205.167C220.801 205.072 220.122 205 219.431 205C218.048 204.976 216.654 205.048 215.284 205.203C212.531 205.513 209.814 206.097 207.228 206.931C204.654 207.789 202.211 208.921 200.149 210.375C198.063 211.829 196.443 213.616 195.394 215.75L195.37 215.809C194.881 216.81 193.666 217.227 192.665 216.739C191.759 216.298 191.33 215.261 191.616 214.331C192.105 212.723 192.975 211.233 194.035 209.958C195.096 208.683 196.359 207.622 197.694 206.752C200.375 204.988 203.355 204.047 206.298 203.427C209.265 202.831 212.257 202.641 215.212 202.807C216.69 202.903 218.168 203.082 219.622 203.439C220.348 203.606 221.075 203.832 221.767 204.118C222.458 204.404 223.173 204.774 223.721 205.393C223.828 205.513 223.816 205.691 223.697 205.799C223.602 205.882 223.459 205.894 223.352 205.822L223.34 205.775Z" fill="#091A3F"/>
<g opacity="0.35">
<path d="M226.915 198.922C217.298 206.12 205.821 210.983 193.332 212.651L193.201 211.543L190.973 193.238C190.973 193.238 200.995 192.308 211.28 193.774C213.711 194.12 216.166 194.597 218.489 195.24C221.612 196.122 224.52 197.314 226.915 198.922Z" fill="#091A3F"/>
</g>
<path d="M134.223 173.432L133.46 180.63L131.22 201.842L130.541 208.289L129.73 215.904C127.121 215.011 124.582 214.022 122.139 212.961C69.7036 190.247 55.105 131.245 61.3854 101.619C64.4838 86.9963 66.4144 84.5771 77.4259 83.5403C94.9918 81.8838 99.139 86.1144 101.999 105.682C102.917 111.927 104.085 118.064 105.491 123.928C105.658 124.666 105.848 125.393 106.027 126.12C106.349 127.396 106.683 128.659 107.028 129.91C108.148 133.95 109.388 137.835 110.734 141.505C116.455 157.069 124.189 168.891 133.508 173.11C133.556 173.134 133.615 173.158 133.663 173.181C133.854 173.277 134.044 173.36 134.223 173.432Z" fill="white"/>
<g opacity="0.35">
<path d="M134.223 173.432L133.461 180.63L130.541 208.289L129.731 215.904C127.121 215.011 124.582 214.021 122.139 212.961C74.3991 192.285 58.0368 141.529 60.2177 110.247C67.8089 148.382 87.0671 99.7357 83.2297 112.201C81.7997 116.849 83.6707 122.974 82.8961 129.91C81.5494 142.042 78.8561 156.652 84.5406 170.107C90.6899 184.634 105.372 194.203 122.139 201.473C124.582 202.533 127.121 203.522 129.731 204.416L130.541 196.801L133.067 172.919C133.449 173.11 133.83 173.277 134.223 173.432Z" fill="#091A3F"/>
</g>
<path d="M129.73 217.942C129.516 217.942 129.289 217.906 129.075 217.835C95.4922 206.335 78.0216 182.071 69.2863 163.755C57.4764 139.003 56.4396 115.228 59.407 101.237C62.5055 86.6029 64.6625 82.7537 77.2351 81.562C95.6829 79.8101 100.938 84.4936 103.989 105.42C109.125 140.54 120.995 165.888 134.974 171.572C136.011 171.99 136.499 173.169 136.082 174.206C135.665 175.243 134.485 175.732 133.448 175.314C115.168 167.878 104.18 134.641 99.9969 106.004C97.2321 87.0915 93.8834 84.0407 77.6165 85.5781C68.0112 86.4838 66.4262 87.5682 63.3516 102.071C57.4049 130.101 71.3123 193.786 130.374 214.021C131.423 214.379 131.995 215.535 131.625 216.584C131.351 217.418 130.576 217.942 129.73 217.942Z" fill="#091A3F"/>
<path d="M82.8958 184.002C82.3833 184.002 81.8828 183.788 81.5253 183.37C80.8937 182.62 80.989 181.488 81.7398 180.856C103.083 162.849 109.078 141.613 109.137 141.398C109.4 140.445 110.377 139.885 111.33 140.147C112.284 140.409 112.844 141.386 112.581 142.34C112.331 143.245 106.277 164.827 84.0398 183.597C83.7181 183.859 83.301 184.002 82.8958 184.002Z" fill="#091A3F"/>
<path d="M204.249 382.376C184.216 389.061 175.695 356.503 175.695 356.503C159.107 334.659 165.22 304.401 165.22 304.401C154.471 303.233 149.191 302.566 141.374 298.741C135.153 295.69 130.041 290.172 126.358 281.961C125.083 279.101 123.975 275.907 123.057 272.38C119.387 258.246 118.755 238.678 122.139 213.009C122.568 209.719 123.069 206.335 123.629 202.855L123.772 202.533L125.87 197.79L133.449 180.677L133.842 179.783L185.801 172.514L196.86 194.191L202.163 204.595C202.247 206.454 202.39 208.301 202.58 210.113C202.819 212.329 203.117 214.51 203.486 216.679C205.858 230.968 210.565 244.327 211.912 259.056C212.281 263.108 212.4 267.256 212.138 271.57C212.078 272.582 212.019 273.584 211.959 274.561C211.34 285.525 211.03 294.617 210.958 302.28C210.744 326.52 212.996 336.375 215.677 345.361C221.278 364.106 219.431 377.311 204.249 382.376Z" fill="white"/>
<g opacity="0.35">
<path d="M173.049 293.056C175.314 299.194 168.461 298.562 164.862 306.594C165.053 305.176 165.22 304.39 165.22 304.39C154.47 303.222 149.191 302.554 141.373 298.729C134.771 295.487 129.409 289.469 125.69 280.388C127.085 282.009 128.515 283.523 130.064 284.857C146.498 298.848 170.785 286.919 173.049 293.056Z" fill="#091A3F"/>
</g>
<g opacity="0.35">
<path d="M204.249 382.376C190.675 386.904 182.393 373.426 178.46 364.261C182.75 368.337 189.483 374.975 196.693 374.069C220.11 371.126 215.844 353.607 208.777 331.573C205.917 322.647 204.821 307.953 204.439 288.123C204.368 284.309 204.547 279.912 204.451 275.252C198.707 275.598 190.889 275.633 180.402 274.978L180.319 277.004C180.128 281.759 176.088 285.489 171.345 285.298L131.244 283.713C129.397 283.642 127.705 282.986 126.346 281.938C125.071 279.077 123.963 275.884 123.045 272.356L123.128 270.306L123.796 253.408C123.974 248.653 128.014 244.923 132.769 245.113L172.859 246.698C173.443 246.722 174.027 246.806 174.575 246.937C178.472 247.89 181.308 251.501 181.153 255.672L181.01 259.331C184.395 259.688 193.237 260.451 202.604 259.974C202.449 259.378 202.282 258.782 202.092 258.175C201.853 257.388 198.493 233.423 198.505 232.612L211.482 255.231C211.649 256.482 211.78 257.758 211.899 259.033C212.269 263.085 212.388 267.232 212.126 271.546C212.066 272.559 212.007 273.56 211.947 274.537C211.327 285.501 211.018 294.594 210.946 302.256C210.732 326.496 212.984 336.351 215.665 345.337C221.278 364.106 219.431 377.311 204.249 382.376Z" fill="#091A3F"/>
</g>
<path d="M124.296 202.926C123.903 213.616 122.699 224.115 122.318 234.662C122.068 239.929 122.02 245.197 122.187 250.44C122.366 255.684 122.83 260.916 123.748 266.04C123.986 267.315 124.225 268.602 124.535 269.853C124.809 271.129 125.166 272.368 125.5 273.619C126.239 276.098 127.073 278.529 128.098 280.877C130.171 285.536 132.96 289.874 136.69 293.151C138.561 294.796 140.599 296.131 142.887 297.203C145.211 298.324 147.57 299.241 150.014 299.932C154.888 301.303 160.155 301.78 165.446 302.375L167.615 302.626L167.21 304.783C167.019 305.784 166.864 306.916 166.733 308C166.602 309.097 166.495 310.205 166.412 311.301C166.245 313.518 166.161 315.735 166.161 317.951C166.185 322.396 166.519 326.829 167.293 331.179C167.675 333.36 168.151 335.517 168.759 337.626C169.033 338.699 169.403 339.736 169.736 340.784C170.118 341.821 170.463 342.858 170.904 343.859C172.537 347.935 174.73 351.76 177.328 355.252L177.566 355.574L177.673 355.967C177.959 357.004 178.329 358.148 178.698 359.232C179.08 360.329 179.485 361.413 179.926 362.486C180.796 364.631 181.797 366.728 182.917 368.718C184.037 370.72 185.288 372.627 186.707 374.367C188.125 376.107 189.722 377.656 191.497 378.836C193.273 380.028 195.227 380.838 197.253 381.112C199.291 381.41 201.388 381.16 203.426 380.493C205.548 379.825 207.573 378.872 209.349 377.668C210.231 377.06 211.053 376.369 211.804 375.63C212.543 374.868 213.198 374.045 213.77 373.163C216.059 369.6 216.738 365.072 216.523 360.567C216.333 356.027 215.332 351.45 214.068 346.958L213.067 343.502C212.757 342.322 212.424 341.154 212.15 339.962C211.554 337.591 211.113 335.183 210.696 332.788C209.933 327.974 209.492 323.135 209.254 318.309C208.789 308.668 208.932 299.051 209.254 289.469C209.433 284.678 209.647 279.888 209.921 275.109L210.124 271.522L210.231 268.03C210.303 266.862 210.219 265.706 210.207 264.538L210.16 262.786L210.028 261.035C209.421 251.704 207.216 242.48 204.868 233.22C203.677 228.596 202.58 223.889 201.889 219.086C201.71 217.894 201.567 216.679 201.46 215.475C201.365 214.26 201.222 213.056 201.222 211.841C201.198 210.625 201.138 209.409 201.21 208.194C201.281 206.978 201.353 205.763 201.508 204.547C201.555 204.178 201.889 203.904 202.27 203.951C202.556 203.987 202.771 204.19 202.842 204.452L202.854 204.488C203.164 205.656 203.402 206.823 203.641 207.991C203.736 208.575 203.867 209.159 204.01 209.731C204.141 210.315 204.261 210.887 204.38 211.471C204.511 212.043 204.606 212.627 204.737 213.199L205.13 214.927C205.262 215.499 205.369 216.083 205.488 216.655C205.607 217.227 205.75 217.799 205.881 218.383L209.004 232.255C211.053 241.562 213.461 251 214.068 260.772L214.199 262.596L214.247 264.431C214.259 265.659 214.342 266.874 214.271 268.102L214.152 271.772L213.949 275.347C213.675 280.102 213.461 284.869 213.282 289.624C212.948 299.134 212.817 308.656 213.27 318.106C213.496 322.825 213.937 327.521 214.664 332.145C215.057 334.445 215.487 336.745 216.059 339.009C216.321 340.141 216.642 341.273 216.94 342.405L217.93 345.837C219.252 350.521 220.313 355.359 220.539 360.376C220.659 362.879 220.527 365.441 220.027 367.991C219.526 370.53 218.597 373.056 217.155 375.32C216.428 376.441 215.594 377.489 214.664 378.443C213.723 379.384 212.698 380.23 211.613 380.981C209.433 382.447 207.073 383.531 204.642 384.306C202.151 385.128 199.386 385.474 196.681 385.081C193.976 384.711 191.414 383.627 189.221 382.149C187.016 380.683 185.169 378.848 183.56 376.882C181.952 374.915 180.581 372.818 179.366 370.649C178.15 368.48 177.089 366.251 176.16 363.975C175.683 362.843 175.254 361.687 174.849 360.519C174.444 359.34 174.074 358.207 173.729 356.944L174.074 357.647C171.238 353.858 168.878 349.71 167.127 345.337C166.662 344.252 166.28 343.144 165.875 342.036C165.518 340.916 165.136 339.807 164.838 338.675C164.195 336.423 163.683 334.135 163.289 331.823C162.467 327.223 162.109 322.551 162.086 317.903C162.074 315.58 162.169 313.244 162.348 310.932C162.431 309.776 162.55 308.608 162.693 307.452C162.836 306.284 162.991 305.164 163.23 303.925L164.993 306.332C162.348 306.046 159.678 305.76 156.997 305.379C154.316 305.009 151.598 304.509 148.905 303.758C146.224 302.995 143.614 301.982 141.135 300.79C138.597 299.599 136.13 298.014 134.009 296.119C129.719 292.341 126.644 287.491 124.392 282.45C123.271 279.911 122.378 277.314 121.603 274.68C120.852 272.046 120.244 269.377 119.756 266.707C118.743 261.356 118.242 255.958 117.944 250.559C117.658 245.161 117.718 239.774 117.98 234.4C118.111 231.718 118.338 229.037 118.6 226.368C118.743 225.033 118.862 223.698 119.041 222.363L119.577 218.371C120.387 213.068 121.46 207.813 122.95 202.652C123.057 202.295 123.426 202.08 123.784 202.188C124.106 202.343 124.308 202.629 124.296 202.926Z" fill="#091A3F"/>
<path d="M179.89 326.448C169.236 326.448 163.79 323.731 163.408 323.528C162.527 323.076 162.193 321.991 162.646 321.121C163.099 320.251 164.171 319.906 165.053 320.358C165.244 320.454 180.45 327.842 210.648 316.593C211.578 316.247 212.603 316.724 212.948 317.641C213.294 318.571 212.817 319.596 211.899 319.941C198.373 324.97 187.72 326.448 179.89 326.448Z" fill="#091A3F"/>
<g opacity="0.35">
<path d="M106.027 126.144C106.349 127.419 106.683 128.683 107.028 129.934C106.277 127.908 105.67 125.918 105.491 123.951C105.67 124.69 105.848 125.417 106.027 126.144Z" fill="#091A3F"/>
</g>
<path d="M177.268 355.038C177.256 355.038 177.351 355.157 177.411 355.228C177.471 355.312 177.566 355.395 177.637 355.478C177.792 355.657 177.983 355.812 178.15 355.991C178.317 356.17 178.531 356.313 178.722 356.479C178.913 356.646 179.127 356.789 179.342 356.932C180.176 357.54 181.141 357.981 182.13 358.398C184.132 359.185 186.361 359.506 188.601 359.518C190.865 359.59 193.142 359.161 195.418 358.696C196.538 358.374 197.658 358.076 198.778 357.731L202.08 356.503L198.969 358.196C197.897 358.708 196.812 359.173 195.716 359.661C193.475 360.472 191.175 361.246 188.732 361.532C186.313 361.866 183.763 361.878 181.26 361.294C180.021 360.984 178.758 360.603 177.578 359.995C177.28 359.852 176.982 359.709 176.696 359.53C176.41 359.352 176.112 359.197 175.838 358.994C175.552 358.791 175.278 358.613 175.004 358.374C174.861 358.255 174.73 358.16 174.587 358.029C174.444 357.886 174.324 357.802 174.122 357.576C173.419 356.706 173.55 355.443 174.42 354.74C175.29 354.036 176.565 354.179 177.268 355.038Z" fill="#091A3F"/>
<path d="M144.555 349.031C144.841 349.186 145.258 349.389 145.628 349.544C146.009 349.71 146.402 349.865 146.796 350.02C147.189 350.175 147.594 350.306 147.999 350.449L149.227 350.819C150.883 351.272 152.599 351.558 154.327 351.677C155.197 351.76 156.067 351.724 156.937 351.724C157.378 351.701 157.807 351.653 158.248 351.617L158.904 351.558L159.547 351.438C161.311 351.2 162.991 350.604 164.671 349.949C163.134 350.866 161.525 351.76 159.774 352.297L159.118 352.523L158.451 352.702C158.01 352.809 157.557 352.94 157.104 353.035C156.198 353.202 155.281 353.381 154.351 353.441C152.504 353.619 150.621 353.619 148.738 353.429L147.332 353.25C146.867 353.166 146.402 353.107 145.938 353.012C145.473 352.916 145.008 352.821 144.543 352.702C144.067 352.583 143.638 352.463 143.089 352.273C142.16 351.951 141.659 350.926 141.981 349.996C142.303 349.067 143.328 348.566 144.257 348.888C144.365 348.936 144.46 348.984 144.555 349.031Z" fill="#091A3F"/>
<path d="M125.4 264.496C128.958 262.406 130.148 257.826 128.057 254.268C125.967 250.71 121.388 249.521 117.83 251.611C114.272 253.702 113.082 258.281 115.173 261.839C117.263 265.397 121.842 266.587 125.4 264.496Z" fill="white"/>
<g opacity="0.35">
<path d="M114.143 258.067C114.155 262.191 117.503 265.528 121.639 265.516C125.762 265.504 129.099 262.143 129.087 258.02C129.087 256.876 128.825 255.791 128.36 254.826C127.168 257.352 124.594 259.116 121.615 259.128C118.636 259.14 116.05 257.388 114.846 254.874C114.393 255.839 114.143 256.923 114.143 258.067Z" fill="#091A3F"/>
</g>
<path d="M121.615 267.303C116.526 267.303 112.367 263.168 112.355 258.067C112.343 255.589 113.309 253.265 115.049 251.513C116.789 249.761 119.112 248.784 121.591 248.784C121.603 248.784 121.615 248.784 121.627 248.784C124.094 248.784 126.406 249.737 128.158 251.477C129.909 253.217 130.887 255.541 130.887 258.02C130.898 260.499 129.933 262.822 128.193 264.574C126.453 266.326 124.13 267.303 121.651 267.303C121.627 267.303 121.627 267.303 121.615 267.303ZM115.93 258.067C115.942 261.202 118.493 263.74 121.639 263.74C123.152 263.74 124.582 263.144 125.655 262.06C126.727 260.987 127.311 259.557 127.311 258.032C127.311 256.518 126.716 255.088 125.631 254.016C124.559 252.955 123.14 252.359 121.627 252.359C121.615 252.359 121.615 252.359 121.603 252.359C120.09 252.359 118.66 252.955 117.587 254.039C116.514 255.112 115.919 256.542 115.93 258.067Z" fill="#091A3F"/>
<path d="M129.457 276.563L168.902 278.779C173.574 279.042 177.614 275.443 177.876 270.759L179.056 249.773C179.282 245.685 176.553 242.075 172.728 241.074C172.192 240.931 171.62 240.835 171.036 240.811L131.602 238.595C126.93 238.333 122.89 241.932 122.628 246.615L121.687 263.24L121.436 267.601C121.186 272.261 124.797 276.301 129.457 276.563Z" fill="white"/>
<path d="M222.006 259.211C221.827 265.027 216.083 267.256 216.083 267.256C216.083 267.256 208.122 271.415 175.243 268.543C175.243 268.543 165.923 259.057 177.423 253.193C177.423 253.193 200.328 256.506 215.547 252.311C218.299 251.549 222.172 254.028 222.006 259.211Z" fill="white"/>
<path d="M129.457 276.563L168.902 278.779C173.574 279.042 177.614 275.443 177.876 270.759L179.056 249.773C179.282 245.685 176.553 242.075 172.728 241.074C172.192 240.931 171.62 240.835 171.036 240.811L131.602 238.595C126.93 238.333 122.89 241.932 122.628 246.615L121.687 263.24L121.436 267.601C121.186 272.261 124.797 276.301 129.457 276.563Z" fill="white"/>
<g opacity="0.35">
<path d="M129.457 276.563L168.902 278.78C173.574 279.042 177.614 275.443 177.876 270.759L179.056 249.773C179.282 245.686 176.553 242.075 172.728 241.074C170.404 242.432 168.926 243.302 168.926 243.302C166.054 260.046 160.787 268.173 139.848 267.339C130.803 266.97 125.19 265.277 121.699 263.216L121.448 267.577C121.186 272.261 124.797 276.301 129.457 276.563Z" fill="#091A3F"/>
</g>
<path d="M169.391 280.591C169.2 280.591 168.998 280.591 168.807 280.579L129.361 278.351C126.62 278.196 124.106 276.98 122.271 274.918C120.435 272.869 119.506 270.223 119.661 267.482L120.841 246.484C121.162 240.811 126.036 236.462 131.697 236.783L171.143 239.012C173.884 239.167 176.398 240.382 178.234 242.444C180.069 244.506 180.998 247.139 180.844 249.88L179.664 270.878C179.509 273.619 178.293 276.134 176.232 277.969C174.325 279.661 171.918 280.591 169.391 280.591ZM131.125 240.359C127.586 240.359 124.618 243.123 124.416 246.698L123.236 267.697C123.141 269.484 123.736 271.2 124.94 272.547C126.144 273.893 127.788 274.68 129.564 274.787L169.01 277.016C170.797 277.111 172.513 276.515 173.86 275.312C175.207 274.108 175.993 272.463 176.1 270.688L177.28 249.69C177.376 247.902 176.78 246.186 175.576 244.839C174.372 243.493 172.728 242.706 170.952 242.599L131.506 240.37C131.375 240.359 131.244 240.359 131.125 240.359Z" fill="#091A3F"/>
<path d="M127.884 276.313C128.384 276.444 128.908 276.527 129.457 276.563L168.902 278.779C172.323 278.97 175.409 277.087 176.911 274.227C177.459 273.19 177.805 272.011 177.864 270.771L178.389 261.452L178.567 258.377L179.056 249.785C179.318 245.113 175.707 241.074 171.036 240.811L162.515 240.335C166.4 241.3 169.2 244.923 168.962 249.058L168.33 260.391L167.782 270.044C167.52 274.716 163.48 278.327 158.809 278.064L127.884 276.313Z" fill="white"/>
<g opacity="0.35">
<path d="M127.884 276.313C128.384 276.444 128.908 276.527 129.457 276.563L168.902 278.779C173.574 279.042 177.614 275.443 177.864 270.759L178.567 258.353C177.447 260.487 175.517 263.073 172.644 263.204C171.071 263.275 169.594 262.06 168.319 260.379L167.77 270.032C167.508 274.704 163.468 278.315 158.797 278.053L127.884 276.313Z" fill="#091A3F"/>
</g>
<path d="M169.391 280.591C169.188 280.591 168.998 280.591 168.795 280.579L129.349 278.351C128.706 278.315 128.05 278.219 127.419 278.053L127.967 274.537L158.904 276.289C160.691 276.396 162.408 275.788 163.754 274.585C165.101 273.381 165.887 271.736 165.995 269.961L167.174 248.963C167.353 245.745 165.208 242.849 162.074 242.063L162.61 238.547L171.131 239.024C176.804 239.346 181.153 244.22 180.832 249.88L179.652 270.867C179.497 273.607 178.281 276.122 176.231 277.957C174.325 279.661 171.917 280.591 169.391 280.591ZM166.555 276.861L169.01 277.004C170.785 277.099 172.513 276.503 173.848 275.3C175.195 274.096 175.981 272.451 176.088 270.676L177.268 249.69C177.376 247.902 176.768 246.186 175.564 244.839C174.36 243.493 172.716 242.694 170.94 242.599L168.759 242.48C170.154 244.363 170.904 246.698 170.761 249.177L169.582 270.163C169.427 272.702 168.366 275.061 166.555 276.861Z" fill="#091A3F"/>
<path d="M151.027 257.65C150.991 258.425 151.765 264.753 151.765 264.753C151.765 264.753 153.756 264.848 156.187 264.979C159.238 265.134 161.859 262.107 162.062 258.21C162.264 254.313 159.953 251.036 156.902 250.881C154.852 250.774 152.48 250.655 152.48 250.655C152.48 250.655 151.098 256.387 151.027 257.65Z" fill="#FF9501"/>
<g opacity="0.35">
<path d="M151.027 257.65C150.991 258.425 151.765 264.753 151.765 264.753C151.765 264.753 153.756 264.848 156.187 264.979C159.238 265.134 161.859 262.107 162.062 258.21C162.264 254.313 159.953 251.036 156.902 250.881C154.852 250.774 152.48 250.655 152.48 250.655C152.48 250.655 151.098 256.387 151.027 257.65Z" fill="#091A3F"/>
</g>
<path d="M156.414 266.171C156.318 266.171 156.223 266.171 156.139 266.159L150.717 265.885L150.598 264.896C150.419 263.394 149.811 258.413 149.859 257.591C149.931 256.256 151.194 250.977 151.337 250.381L151.563 249.415L156.974 249.69C158.821 249.785 160.489 250.762 161.681 252.454C162.813 254.051 163.373 256.113 163.266 258.27C163.028 262.703 159.989 266.171 156.414 266.171ZM152.826 263.621L156.247 263.8C158.642 263.919 160.704 261.392 160.871 258.163C160.954 256.542 160.549 255.017 159.727 253.849C158.964 252.776 157.939 252.145 156.843 252.097L153.41 251.918C152.898 254.087 152.266 256.995 152.219 257.722C152.207 258.151 152.505 260.892 152.826 263.621Z" fill="#091A3F"/>
<path d="M157.627 257.995C157.823 254.104 155.516 250.824 152.473 250.67C149.429 250.516 146.803 253.546 146.606 257.437C146.409 261.328 148.716 264.608 151.76 264.762C154.803 264.916 157.43 261.886 157.627 257.995Z" fill="#FF9501"/>
<g opacity="0.35">
<path d="M151.766 264.753C154.805 264.908 157.438 261.881 157.641 257.984C157.689 257.09 157.605 256.232 157.403 255.434C156.676 258.52 154.364 260.737 151.766 260.606C149.418 260.486 147.511 258.508 146.844 255.839C146.725 256.351 146.641 256.887 146.618 257.436C146.415 261.321 148.727 264.598 151.766 264.753Z" fill="#091A3F"/>
</g>
<g opacity="0.7">
<path d="M146.701 259.271C147.201 255.803 149.668 253.217 152.481 253.36C155.031 253.491 157.069 255.815 157.546 258.854C157.581 258.58 157.617 258.282 157.629 257.996C157.832 254.111 155.52 250.822 152.469 250.667C149.418 250.512 146.796 253.539 146.594 257.436C146.582 258.067 146.606 258.675 146.701 259.271Z" fill="white"/>
</g>
<path d="M151.992 265.957C151.897 265.957 151.801 265.957 151.706 265.945C149.859 265.849 148.191 264.872 146.999 263.18C145.867 261.583 145.307 259.521 145.414 257.376C145.64 252.836 148.834 249.284 152.54 249.475C154.387 249.57 156.056 250.548 157.248 252.24C158.38 253.837 158.94 255.898 158.833 258.043C158.725 260.189 157.963 262.191 156.676 263.668C155.389 265.146 153.732 265.957 151.992 265.957ZM152.254 251.847C149.942 251.847 147.952 254.337 147.797 257.483C147.714 259.104 148.119 260.63 148.941 261.797C149.704 262.87 150.729 263.502 151.825 263.549C152.934 263.609 154.006 263.084 154.864 262.095C155.794 261.023 156.354 259.533 156.437 257.912C156.521 256.292 156.115 254.766 155.293 253.598C154.53 252.526 153.506 251.894 152.409 251.847C152.362 251.858 152.314 251.847 152.254 251.847Z" fill="#091A3F"/>
<path d="M141.731 278.589C141.719 278.589 141.695 278.589 141.684 278.589C140.861 278.565 140.218 277.874 140.242 277.052L140.575 266.862C140.659 264.419 139.801 262.072 138.156 260.26L137.644 259.688C135.427 257.233 134.271 253.932 134.486 250.631L135.212 238.797C135.26 237.975 135.963 237.343 136.786 237.403C137.608 237.451 138.228 238.166 138.18 238.976L137.453 250.81C137.298 253.313 138.168 255.827 139.86 257.686L140.373 258.258C142.53 260.653 143.662 263.74 143.555 266.958L143.221 277.147C143.197 277.957 142.53 278.589 141.731 278.589Z" fill="#091A3F"/>
<path d="M222.006 259.211C221.827 265.027 216.083 267.256 216.083 267.256C216.083 267.256 208.122 271.415 175.243 268.543C175.243 268.543 165.923 259.057 177.423 253.193C177.423 253.193 200.328 256.506 215.547 252.311C218.299 251.549 222.172 254.028 222.006 259.211Z" fill="white"/>
<g opacity="0.35">
<path d="M222.006 259.211C221.839 265.027 216.083 267.256 216.083 267.256C216.083 267.256 208.122 271.415 175.242 268.543C175.242 268.543 169.963 263.168 172.251 258.02C172.263 258.044 172.275 258.079 172.287 258.103C173.36 260.916 176.005 262.834 179.008 263.061C208.73 265.301 216.071 261.464 216.071 261.464C216.071 261.464 220.099 259.903 221.517 255.982C221.862 256.9 222.041 257.984 222.006 259.211Z" fill="#091A3F"/>
</g>
<path d="M195.823 271.343C190.33 271.343 183.513 271.069 175.088 270.33L174.432 270.271L173.967 269.806C173.765 269.603 169.117 264.801 169.999 259.366C170.511 256.185 172.74 253.575 176.613 251.608L177.113 251.346L177.674 251.43C177.9 251.465 200.388 254.635 215.07 250.583C216.905 250.083 218.99 250.56 220.659 251.859C222.744 253.491 223.888 256.196 223.793 259.271C223.59 265.885 217.56 268.59 216.798 268.9C215.987 269.282 210.839 271.343 195.823 271.343ZM176.112 266.827C207.026 269.46 215.201 265.706 215.272 265.659L215.427 265.587C215.606 265.516 220.075 263.68 220.218 259.152C220.301 256.518 219.145 255.207 218.454 254.659C217.691 254.063 216.762 253.813 216.035 254.016C201.806 257.936 181.523 255.529 177.757 255.029C175.254 256.411 173.836 258.056 173.538 259.927C173.074 262.787 175.195 265.718 176.112 266.827Z" fill="#091A3F"/>
<path d="M239.094 303.651C237.652 304.413 235.913 305.021 234.28 305.236C229.036 305.915 224.877 304.342 224.877 304.342C224.877 304.342 223.078 305.462 221.29 305.581C215.606 305.963 212.555 304.735 210.97 302.232C207.573 296.882 210.934 285.656 209.695 271.772C207.764 250.285 198.516 231.194 198.516 231.194L197.968 218.824L197.658 211.972L196.872 194.144L196.693 190.116C196.693 190.116 204.201 194.978 213.544 204.202C214.855 205.501 216.19 206.871 217.548 208.337C230.419 222.149 245.077 243.516 248.378 271.307C250.726 291.006 246.054 299.932 239.094 303.651Z" fill="white"/>
<g opacity="0.35">
<path d="M246.364 295.678C244.6 299.563 242.05 302.078 239.094 303.663C237.652 304.425 235.913 305.033 234.28 305.247C229.036 305.927 224.877 304.354 224.877 304.354C224.877 304.354 223.078 305.474 221.29 305.593C215.606 305.974 212.555 304.747 210.97 302.244C207.573 296.894 210.934 285.668 209.695 271.784C208.074 253.741 201.293 237.391 199.172 232.6C206.394 240.966 212.793 246.865 214.712 264.789C216.19 278.648 213.52 289.707 216.917 295.058C218.502 297.561 221.552 298.788 227.237 298.407C229.024 298.288 230.824 297.168 230.824 297.168C230.824 297.168 234.971 298.741 240.227 298.061C241.847 297.847 243.599 297.239 245.041 296.476C245.482 296.226 245.935 295.964 246.364 295.678Z" fill="#091A3F"/>
</g>
<path d="M197.063 189.555C203.045 192.034 207.967 196.086 212.638 200.329C217.262 204.643 221.445 209.398 225.402 214.319C229.382 219.229 233.005 224.425 236.21 229.895C239.416 235.353 242.193 241.073 244.445 247.008C246.698 252.943 248.414 259.08 249.522 265.337C250.058 268.471 250.487 271.617 250.761 274.787C250.988 277.969 251.083 281.175 250.904 284.404C250.702 287.634 250.201 290.899 249.153 294.081C248.843 294.868 248.58 295.666 248.223 296.441C247.842 297.203 247.496 297.99 247.019 298.717C246.161 300.207 245.029 301.577 243.754 302.781C241.168 305.176 237.938 306.821 234.339 307.273C232.635 307.464 230.931 307.488 229.239 307.321C228.393 307.238 227.559 307.118 226.724 306.94C226.307 306.856 225.89 306.761 225.473 306.642C225.044 306.523 224.675 306.415 224.162 306.237L225.95 306.058C225.64 306.249 225.437 306.356 225.187 306.475C224.949 306.594 224.698 306.713 224.448 306.821C223.948 307.035 223.411 307.226 222.851 307.369C222.565 307.44 222.267 307.5 221.958 307.548C221.803 307.571 221.636 307.583 221.481 307.595L221.099 307.619C220.611 307.643 220.122 307.667 219.622 307.679C217.643 307.691 215.558 307.548 213.437 306.713C212.9 306.535 212.388 306.225 211.876 305.939C211.387 305.593 210.886 305.248 210.469 304.807C209.599 303.96 208.932 302.912 208.527 301.863C208.098 300.814 207.836 299.766 207.693 298.741C207.526 297.716 207.466 296.727 207.419 295.75C207.311 291.865 207.669 288.206 207.812 284.559C207.991 280.925 208.038 277.326 207.824 273.75C207.716 271.975 207.478 270.175 207.287 268.388C207.18 267.494 207.025 266.6 206.894 265.706C206.763 264.812 206.632 263.919 206.453 263.037C205.845 259.474 204.987 255.958 204.046 252.454C203.105 248.951 201.77 245.578 200.661 242.122C199.529 238.678 198.445 235.222 197.909 231.48V231.456C197.849 231.075 198.123 230.717 198.504 230.67C198.743 230.634 198.981 230.729 199.124 230.896C201.698 233.816 203.331 237.212 204.678 240.68C206.048 244.16 206.966 247.783 207.943 251.382C208.896 254.993 209.79 258.616 210.422 262.31C210.6 263.228 210.743 264.157 210.886 265.075C211.018 266.004 211.184 266.922 211.292 267.851C211.494 269.722 211.733 271.57 211.852 273.464C212.09 277.242 212.03 281.008 211.84 284.714C211.673 288.42 211.351 292.103 211.447 295.571C211.518 297.275 211.697 298.967 212.245 300.266C212.495 300.933 212.865 301.458 213.306 301.887C213.508 302.125 213.782 302.28 214.033 302.483C214.331 302.626 214.593 302.816 214.938 302.924C216.237 303.448 217.894 303.627 219.586 303.603L220.873 303.555L221.183 303.543L221.397 303.52C221.54 303.496 221.695 303.472 221.862 303.424C222.184 303.341 222.53 303.222 222.863 303.079C223.03 303.007 223.209 302.924 223.376 302.84C223.531 302.769 223.733 302.65 223.817 302.602L224.663 302.089L225.604 302.423C225.831 302.507 226.2 302.614 226.522 302.697C226.855 302.781 227.201 302.864 227.547 302.936C228.238 303.079 228.941 303.186 229.644 303.257C231.05 303.4 232.468 303.377 233.863 303.222C235.15 303.079 236.461 302.65 237.676 302.078C238.868 301.458 240.048 300.731 241.013 299.778C241.99 298.848 242.884 297.799 243.575 296.596C243.957 296.024 244.243 295.368 244.552 294.748C244.85 294.117 245.077 293.426 245.339 292.77C246.245 290.041 246.698 287.11 246.888 284.13C247.055 281.139 246.96 278.112 246.745 275.085C246.483 272.046 246.078 269.031 245.554 266.028C244.493 260.022 242.836 254.123 240.679 248.426C238.51 242.718 235.841 237.2 232.743 231.933C229.656 226.654 226.14 221.613 222.279 216.858C220.349 214.474 218.311 212.186 216.202 209.97C214.08 207.753 211.887 205.608 209.683 203.487C207.49 201.342 205.226 199.28 202.973 197.182C200.733 195.073 198.504 192.94 196.336 190.688L196.312 190.664C196.05 190.39 196.061 189.961 196.336 189.698C196.538 189.508 196.824 189.46 197.063 189.555Z" fill="#091A3F"/>
<path d="M206.036 253.861C205.416 253.861 204.809 253.527 204.475 252.943C203.986 252.085 204.296 250.988 205.154 250.512C206.215 249.916 231.205 236.044 242.324 243.147C243.158 243.683 243.396 244.78 242.872 245.614C242.336 246.448 241.239 246.686 240.405 246.162C232.671 241.216 213.615 249.868 206.918 253.622C206.632 253.789 206.334 253.861 206.036 253.861Z" fill="#091A3F"/>
<g opacity="0.35">
<path d="M213.544 204.202C210.362 206.275 207.002 208.111 203.498 209.672C203.2 209.803 202.902 209.934 202.592 210.065C201.079 210.72 199.53 211.328 197.968 211.876C197.873 211.912 197.766 211.948 197.659 211.972C190.258 214.534 182.333 215.916 174.074 215.916C158.034 215.916 143.209 210.697 131.22 201.842C130.994 201.675 130.767 201.508 130.541 201.342C128.98 200.162 127.335 199.042 125.881 197.754C125.119 197.075 124.404 196.348 123.784 195.55C110.866 178.89 110.866 163.767 110.866 143.4C110.866 142.781 110.83 142.161 110.747 141.541C116.467 157.105 124.201 168.927 133.52 173.146L133.461 173.694L133.675 173.205C133.854 173.289 134.045 173.36 134.223 173.443L133.461 180.641L133.854 179.748L185.813 172.478L196.872 194.155L196.693 190.127C196.693 190.116 204.213 194.978 213.544 204.202Z" fill="#091A3F"/>
</g>
<path d="M108.113 134.045C120.614 232.72 258.233 220.242 256.482 124.476C246.09 23.1678 103.846 36.2052 108.113 134.045Z" fill="white"/>
<path d="M108.113 134.045C120.614 232.72 258.233 220.242 256.482 124.476C246.09 23.1678 103.846 36.2052 108.113 134.045Z" fill="white"/>
<path d="M108.113 134.045C120.614 232.72 258.233 220.242 256.482 124.476C246.09 23.1678 103.846 36.2052 108.113 134.045Z" fill="white"/>
<path d="M181.523 204.071C164.624 204.071 148.524 198.756 135.653 188.84C119.506 176.399 109.424 157.522 106.468 134.26L106.456 134.129C105.443 110.854 112.534 90.6667 126.978 75.7464C139.86 62.4349 157.641 54.3193 177.054 52.9011C196.419 51.483 215.046 56.953 229.501 68.2862C245.792 81.0734 255.695 100.451 258.15 124.309L258.162 124.452C258.579 147.273 251.214 167.02 236.866 181.559C224.031 194.561 206.465 202.486 187.41 203.868C185.431 203.999 183.477 204.071 181.523 204.071ZM109.769 133.914C116.061 183.359 153.16 203.01 187.147 200.555C220.349 198.16 255.683 173.36 254.825 124.583C249.605 74.1018 210.97 53.7473 177.28 56.2141C143.256 58.6929 107.624 84.0646 109.769 133.914Z" fill="#091A3F"/>
<g opacity="0.35">
<path d="M108.113 134.045C117.432 219.456 232.266 226.308 254.277 146.713C239.19 169.022 230.371 166.329 212.185 173.11C155.221 196.539 106.551 139.861 120.125 87.4252C110.925 101.404 106.885 117.874 108.113 134.045Z" fill="#091A3F"/>
</g>
<path d="M181.523 204.738C164.481 204.738 148.226 199.375 135.236 189.365C118.946 176.816 108.768 157.784 105.801 134.331L105.789 134.141C104.764 110.676 111.926 90.3092 126.489 75.2578C139.491 61.8271 157.426 53.652 176.994 52.2219C196.526 50.7918 215.32 56.3095 229.895 67.75C246.328 80.6563 256.327 100.177 258.794 124.226L258.806 124.416C259.223 147.416 251.798 167.33 237.307 182C224.353 195.121 206.644 203.117 187.422 204.5C185.455 204.667 183.489 204.738 181.523 204.738ZM110.437 133.855C116.693 182.846 153.434 202.319 187.1 199.888C219.991 197.504 254.992 172.943 254.158 124.619C248.974 74.6024 210.72 54.4385 177.328 56.8696C143.626 59.3365 108.327 84.4817 110.437 133.855Z" fill="#293856"/>
<path d="M181.523 204.738C164.481 204.738 148.226 199.375 135.236 189.365C118.946 176.816 108.768 157.784 105.801 134.331L105.789 134.141C104.764 110.676 111.926 90.3092 126.489 75.2578C139.491 61.8271 157.426 53.652 176.994 52.2219C196.526 50.7918 215.32 56.3095 229.895 67.75C246.328 80.6563 256.327 100.177 258.794 124.226L258.806 124.416C259.223 147.416 251.798 167.33 237.307 182C224.353 195.121 206.644 203.117 187.422 204.5C185.455 204.667 183.489 204.738 181.523 204.738ZM110.437 133.855C116.693 182.846 153.434 202.319 187.1 199.888C219.991 197.504 254.992 172.943 254.158 124.619C248.974 74.6024 210.72 54.4385 177.328 56.8696C143.626 59.3365 108.327 84.4817 110.437 133.855Z" fill="#091A3F"/>
<path d="M111.986 152.708C159.118 226.213 255.671 176.661 227.69 105.504C191.509 27.7082 86.6857 67.5473 111.986 152.708Z" fill="#142957"/>
<path d="M117.348 97.4834C81.4777 167.783 179.27 224.532 222.613 165.638C171.19 187.256 119.017 141.1 117.348 97.4834Z" fill="#111630"/>
<path d="M172.418 198.934C172.311 198.934 172.216 198.934 172.108 198.934C155.889 198.863 140.599 193.202 129.051 183.001C116.05 171.513 108.089 154.65 106.039 134.26V134.248C104.419 116.825 109.781 98.1507 120.769 83.0159C132.4 66.9873 148.953 56.5717 167.377 53.6996L167.556 53.6758H167.735C187.863 53.9856 207.729 63.3406 222.232 79.3573C236.687 95.3144 244.028 115.883 242.372 135.785C240.263 155.008 231.754 171.251 217.751 182.81C205.131 193.214 189.043 198.934 172.418 198.934ZM110.187 133.855C114.703 178.639 146.379 194.656 172.12 194.775C172.215 194.775 172.311 194.775 172.394 194.775C201.913 194.775 233.935 174.421 238.213 135.392C239.774 116.694 232.826 97.2808 219.133 82.1698C205.441 67.0469 186.754 58.1924 167.842 57.8587C129.683 63.9007 107.231 101.988 110.187 133.855Z" fill="#091A3F"/>
<path d="M172.001 191.343C166.221 191.343 160.417 190.568 154.733 189.007C137.083 184.157 121.627 172.037 110.031 153.959L109.853 153.685L109.757 153.363C103.656 132.818 104.573 113.345 112.403 97.0424C119.422 82.4439 131.613 71.2417 146.748 65.5095C161.537 59.9085 177.638 60.1111 192.093 66.0935C208.157 72.7314 221.207 86.019 229.799 104.514L229.859 104.646C236.425 121.33 236.735 137.978 230.752 152.791C225.342 166.198 214.974 177.352 201.591 184.205C192.32 188.936 182.202 191.343 172.001 191.343ZM114.131 151.718C138.251 189.091 174.348 192.892 199.47 180.058C222.267 168.403 239.166 141.124 225.557 106.409C207.562 67.7976 173.848 60.2302 148.405 69.8593C122.247 79.7744 101.546 108.912 114.131 151.718Z" fill="#091A3F"/>
<path d="M250.607 179.95C230.705 208.826 200.09 191.307 216.309 161.824C236.056 130.804 268.792 149.526 250.607 179.95Z" fill="white"/>
<g opacity="0.35">
<path d="M219.539 192.702C210.327 187.518 209.135 172.573 217.25 160.335C216.464 176.959 241.979 161.455 246.173 155.484C267.469 173.598 236.258 202.581 219.539 192.702Z" fill="#091A3F"/>
</g>
<path d="M227.726 197.028C224.091 197.028 220.766 196.062 218.025 194.37C209.743 189.258 205.381 176.864 214.271 160.704L214.343 160.573C225.163 143.579 240.251 140.493 249.558 146.237C257.971 151.421 262.512 164.553 252.609 181.142L252.525 181.273C244.731 192.583 235.519 197.028 227.726 197.028ZM218.311 163.016C210.934 176.459 214.08 186.457 220.468 190.414C227.249 194.597 238.952 192.714 248.64 178.699C256.875 164.863 253.622 154.233 247.103 150.205C239.762 145.665 227.511 148.62 218.311 163.016Z" fill="#091A3F"/>
<path d="M250.976 182.286C234.828 205.667 211.661 192.94 224.782 169.082C240.846 143.591 265.991 157.462 250.976 182.286Z" fill="white"/>
<path d="M232.314 196.753C229.62 196.753 227.177 196.05 225.175 194.811C218.895 190.926 215.773 181.154 222.959 168.081L223.018 167.973C231.956 153.78 243.993 150.908 251.262 155.389C257.721 159.381 260.951 169.833 252.764 183.359L252.692 183.466C246.114 193 238.546 196.753 232.314 196.753ZM226.582 170.154C220.754 180.796 222.768 188.423 227.368 191.272C232.373 194.37 241.359 192.523 249.224 181.166C255.898 170.095 253.824 161.896 249.069 158.952C243.552 155.544 234.066 158.309 226.582 170.154Z" fill="#091A3F"/>
<g opacity="0.5">
<path d="M216.619 145.39C206.823 156.307 194.238 145.367 201.114 134.498C210.553 121.282 225.604 133.938 216.619 145.39Z" fill="white"/>
</g>
<g opacity="0.5">
<path d="M199.16 161.514C195.168 165.471 189.579 160.799 193.511 156.092C197.492 152.136 203.093 156.807 199.16 161.514Z" fill="white"/>
</g>
<g opacity="0.5">
<path d="M122.139 106.278C137.679 52.4244 192.427 70.7888 202.985 88.891C168.807 75.2458 144.317 88.6288 122.139 106.278Z" fill="white"/>
</g>
<g opacity="0.35">
<path d="M220.742 174.218C222.005 170.428 224.317 166.961 227.201 164.184C223.471 183.466 244.326 184.217 254.229 173.861C245.84 200.996 214.414 200.424 220.742 174.218Z" fill="#091A3F"/>
</g>
<path d="M229.37 144.616C227.38 144.616 226.236 143.77 225.592 142.959C223.459 140.242 225.342 135.761 225.974 134.462C226.534 133.306 227.916 132.818 229.084 133.366C230.24 133.926 230.728 135.308 230.18 136.464C229.608 137.68 229.203 139.277 229.263 139.956C229.441 139.968 229.739 139.956 230.216 139.849C231.479 139.587 232.707 140.385 232.969 141.648C233.231 142.912 232.433 144.139 231.169 144.401C230.502 144.556 229.906 144.616 229.37 144.616Z" fill="#091A3F"/>
<path d="M75.885 125.776L75.8768 125.774L75.8685 125.772C68.1502 124.12 54.6267 119.852 41.4618 109.149C24.252 95.1544 13.0624 74.4849 8.35701 47.4361C8.32145 47.2209 8.40352 47.0262 8.55396 46.907C8.55425 46.9068 8.55454 46.9065 8.55482 46.9063L50.4891 13.9175C50.4896 13.9171 50.4901 13.9167 50.4906 13.9163C50.6149 13.8199 50.7844 13.7814 50.9382 13.8148C50.9388 13.8149 50.9395 13.8151 50.9401 13.8152L103.005 25.4761C103.005 25.4761 103.006 25.4762 103.006 25.4763C103.185 25.517 103.353 25.6658 103.413 25.8698C110.841 52.3002 109.667 75.7744 100.183 95.8258C92.9263 111.161 82.5546 120.852 76.3177 125.671L76.3118 125.676L76.3059 125.681C76.1809 125.778 76.0399 125.81 75.885 125.776Z" fill="#F1C900" stroke="#091A3F" stroke-width="5"/>
<path d="M103.155 115.18C101.177 100.725 92.8945 96.9233 80.8224 97.1735C78.2483 97.2212 76.3296 98.6393 77.855 104.932C78.7845 108.769 85.5773 109.937 85.5773 109.937C85.5773 109.937 82.0022 115.824 83.17 127.288" fill="white"/>
<path d="M83.17 129.302C82.1451 129.302 81.2752 128.528 81.1679 127.491C80.3695 119.614 81.7042 114.167 82.7648 111.295C80.2622 110.485 76.7109 108.757 75.9005 105.408C74.9471 101.464 75.1259 98.8181 76.4725 97.0782C77.4259 95.8388 78.8798 95.1953 80.7985 95.1476C90.8566 94.945 102.714 97.0067 105.169 114.906C105.324 116.015 104.549 117.028 103.441 117.182C102.345 117.337 101.32 116.563 101.165 115.454C99.5442 103.633 93.6571 98.9134 80.87 99.1875C80.2384 99.1994 79.8332 99.3186 79.6663 99.545C79.4876 99.7834 78.9513 100.844 79.8213 104.467C80.286 106.374 84.2068 107.661 85.9229 107.959C86.5783 108.066 87.1384 108.507 87.4125 109.115C87.6866 109.722 87.6508 110.425 87.3053 110.997C87.2814 111.045 84.1115 116.563 85.184 127.109C85.2913 128.218 84.4928 129.207 83.3845 129.326C83.3011 129.302 83.2415 129.302 83.17 129.302Z" fill="#091A3F"/>
<path d="M13 49C15.5203 69.3333 31.4488 112.2 75 121" stroke="#B99F20" stroke-width="5" stroke-linecap="round"/>
<path d="M52 19L100.259 29.7898C103.798 40.4161 107.981 68.535 96.3985 96" stroke="#FFF6C9" stroke-width="5" stroke-linecap="round"/>
<g clip-path="url(#clip0_256_4136)">
<path d="M71.9743 57.6005L70.122 50.6874C68.7605 45.6061 63.5185 42.5775 58.4348 43.9396C53.3525 45.3014 50.3258 50.5457 51.6873 55.6269L53.5397 62.5401C50.9943 63.2221 49.4838 65.8387 50.1657 68.3835L53.2529 79.9053C53.935 82.4508 56.5513 83.9612 59.0967 83.2792L77.5314 78.3396C80.0762 77.6577 81.5873 75.0414 80.9053 72.4958L77.818 60.974C77.1362 58.4291 74.5192 56.9186 71.9743 57.6005ZM66.9018 70.9297L67.9226 74.7396C68.0933 75.3765 67.7161 76.0299 67.0792 76.2005C66.4423 76.3712 65.7888 75.994 65.6182 75.3571L64.5973 71.5472C63.8138 71.328 63.1486 70.7487 62.9226 69.9051C62.5812 68.6311 63.3369 67.3241 64.6093 66.9832C65.8817 66.6423 67.1898 67.3963 67.5312 68.6702C67.7573 69.5139 67.4704 70.3483 66.9018 70.9297ZM67.3655 58.8354L58.1483 61.3052L56.296 54.392C55.6146 51.8491 57.1279 49.2294 59.6697 48.5483C62.2103 47.8676 64.8317 49.3794 65.5131 51.9223L67.3654 58.8355L67.3655 58.8354Z" fill="#0F215E"/>
<path d="M58 82C58.4966 82 77.8667 78 78.86 75.5C79.6546 73.5 76.8733 64.3333 75.3833 60" stroke="#091A3F" stroke-width="3" stroke-linecap="round"/>
</g>
<defs>
<clipPath id="clip0_256_4136">
<rect width="38.1704" height="38.1704" fill="white" transform="translate(40 48.8792) rotate(-15)"/>
</clipPath>
</defs>
</svg>
