<svg width="20" height="20" viewBox="0 0 20 20" fill="none" xmlns="http://www.w3.org/2000/svg">
<g clip-path="url(#clip0_673_23964)">
<path d="M19.9941 0H0.00585938C0.00262333 0 0 0.00262333 0 0.00585938V19.9941C0 19.9974 0.00262333 20 0.00585938 20H19.9941C19.9974 20 20 19.9974 20 19.9941V0.00585938C20 0.00262333 19.9974 0 19.9941 0Z" fill="white"/>
<path d="M10.5433 17V6.535C10.5433 5.8 10.7452 5.31 11.7212 5.31H13V3.105C12.7644 3.07 12.024 3 11.149 3C9.33173 3 8.08654 4.155 8.08654 6.29V17M12.899 8.11H6V10.63H12.5962" fill="#405695"/>
</g>
<defs>
<clipPath id="clip0_673_23964">
<rect width="20" height="20" rx="4" fill="white"/>
</clipPath>
</defs>
</svg>
