<svg width="768" height="913" viewBox="0 0 768 913" fill="none" xmlns="http://www.w3.org/2000/svg">
<g clip-path="url(#clip0_322_8457)">
<path d="M0 0H768V889C768 902.255 757.255 913 744 913H24C10.7452 913 0 902.255 0 889V0Z" fill="#EBF0FF"/>
<path d="M808 -5H-33V1056H808V-5Z" fill="url(#paint0_linear_322_8457)"/>
<g opacity="0.6">
<path d="M794.884 189.266C825.323 181.036 843.336 149.658 835.116 119.182C826.896 88.7059 795.556 70.6716 765.116 78.9015C734.676 87.1315 716.664 118.509 724.884 148.985C733.104 179.462 764.444 197.496 794.884 189.266Z" stroke="white" stroke-width="2" stroke-miterlimit="10"/>
<path d="M778.724 117.284C765.661 124.55 752.436 133.108 739.212 137.145C733.406 138.921 728.245 139.728 723.246 140.051C723.729 144.572 724.697 149.093 726.31 153.453C730.503 153.937 734.857 154.26 740.502 153.292C754.21 151.031 771.144 140.697 786.627 132.139C801.948 123.42 820.656 116.477 833.719 118.737C834.203 118.737 834.526 118.899 835.01 118.899C834.526 117.284 834.042 115.669 833.558 114.216C832.268 110.825 830.816 107.596 829.042 104.528C826.139 103.721 822.914 103.236 818.721 103.236C806.625 103.398 791.626 109.857 778.724 117.284Z" stroke="white" stroke-width="2" stroke-miterlimit="10"/>
<path d="M746.469 117.607C756.468 113.57 768.725 111.471 780.014 108.888C791.465 106.304 803.561 102.429 810.818 96.9391C813.721 94.6785 815.656 92.7409 817.269 90.8032C815.495 89.1886 813.398 87.7354 811.463 86.4436C804.206 92.5794 791.142 97.4235 778.885 100.168C765.5 103.398 750.178 106.304 740.502 111.148C735.018 113.893 732.277 116.638 728.89 119.545C727.439 120.836 725.664 122.29 723.89 123.743C723.407 126.811 723.084 129.879 722.923 132.947C729.858 126.811 735.664 121.967 746.469 117.607Z" stroke="white" stroke-width="2" stroke-miterlimit="10"/>
<path d="M805.334 142.15C816.301 138.437 828.235 133.592 836.783 128.587C836.622 126.488 836.299 124.389 835.815 122.128C827.106 126.972 816.14 131.655 805.818 135.207C790.981 140.374 774.208 145.864 762.919 151.838C756.468 155.229 753.081 157.974 748.888 161.042C745.34 163.787 740.985 166.855 736.147 170.407C737.115 171.538 738.082 172.668 739.211 173.798C748.081 167.016 755.339 161.688 768.08 155.875C779.208 150.708 792.755 146.51 805.334 142.15Z" stroke="white" stroke-width="2" stroke-miterlimit="10"/>
<path d="M728.567 109.534C741.631 106.143 756.952 96.9391 770.983 89.1887C778.24 84.9905 786.465 81.2767 794.207 78.6932C783.401 75.9482 771.628 76.2712 760.339 80.3079C745.824 85.7978 734.696 96.4548 728.567 109.534Z" stroke="white" stroke-width="2" stroke-miterlimit="10"/>
<path d="M792.755 155.714C779.692 162.98 766.467 171.537 753.242 175.574C749.856 176.704 746.63 177.35 743.566 177.835C749.856 183.002 757.113 186.877 764.854 188.976C776.305 184.778 788.884 177.189 800.657 170.73C810.334 165.24 821.301 160.558 831.461 158.297C833.88 153.13 835.493 147.64 836.299 141.989C835.17 141.827 834.041 141.827 832.751 141.827C820.817 141.989 805.657 148.447 792.755 155.714Z" stroke="white" stroke-width="2" stroke-miterlimit="10"/>
</g>
<g opacity="0.6">
<path d="M240.518 19.774C248.991 0.903516 240.58 -21.2704 221.732 -29.753C202.884 -38.2355 180.736 -29.8143 172.264 -10.9439C163.792 7.92658 172.203 30.1005 191.051 38.5831C209.898 47.0656 232.046 38.6444 240.518 19.774Z" stroke="white" stroke-miterlimit="10"/>
<path d="M214.107 -3.50394C204.828 -6.65064 194.8 -9.49766 187.167 -14.1428C183.725 -16.2406 181.031 -18.3384 178.786 -20.5861C176.84 -18.3384 175.044 -15.9409 173.548 -13.2437C175.194 -10.9961 176.84 -8.74844 179.834 -6.35095C187.018 -0.656908 199.44 3.23901 210.216 6.98509C221.141 10.7312 232.665 16.8747 237.305 24.2171C237.454 24.5167 237.604 24.6666 237.754 24.9663C238.352 24.0672 238.951 23.1682 239.4 22.1193C240.448 20.0215 241.346 17.9236 242.094 15.676C241.196 13.8779 239.999 12.0798 238.352 10.1318C233.114 4.13807 223.386 -0.357231 214.107 -3.50394Z" stroke="white" stroke-miterlimit="10"/>
<path d="M201.385 20.3211C192.106 17.1744 182.078 14.3274 174.445 9.68224C172.5 8.48349 170.704 7.1349 169.058 5.93616C169.207 11.3305 170.554 16.575 172.949 21.2202C179.983 24.9662 189.262 27.8133 197.494 30.8101C204.378 33.2076 211.562 36.5042 217.1 40.4001C220.692 39.3512 224.134 37.7029 227.127 35.755C226.678 35.1556 226.229 34.5562 225.631 33.9568C220.392 27.9631 210.664 23.318 201.385 20.3211Z" stroke="white" stroke-miterlimit="10"/>
</g>
<path opacity="0.6" d="M690.635 -13.3935C680.758 -0.956523 662.798 0.991439 650.376 -8.89821C637.954 -18.7879 636.008 -36.7691 645.886 -49.206C655.764 -61.643 673.723 -63.591 686.146 -53.7013C698.568 -43.8117 700.663 -25.6807 690.635 -13.3935Z" stroke="white" stroke-miterlimit="10"/>
<path opacity="0.6" d="M239.102 61.5432C234.163 67.6868 225.333 68.5859 219.197 63.7909C213.06 58.8461 212.162 50.0053 216.952 43.8617C221.891 37.7182 230.721 36.8191 236.857 41.6141C242.993 46.4091 243.891 55.3997 239.102 61.5432Z" stroke="white" stroke-miterlimit="10"/>
<g opacity="0.6">
<path d="M26.0572 162.997C32.653 146.967 25.0207 128.619 9.00993 122.015C-7.00084 115.412 -25.3271 123.053 -31.9229 139.083C-38.5188 155.113 -30.8864 173.461 -14.8757 180.065C1.13511 186.669 19.4614 179.027 26.0572 162.997Z" stroke="white" stroke-width="2" stroke-miterlimit="10"/>
<path d="M18.7009 133.288C18.7009 134.877 17.5103 136.069 15.9227 136.069C14.3352 136.069 13.1445 134.877 13.1445 133.288C13.1445 131.698 14.3352 130.506 15.9227 130.506C17.5103 130.506 18.7009 131.698 18.7009 133.288Z" stroke="white" stroke-width="2" stroke-miterlimit="10"/>
<path d="M10.1675 139.05C10.1675 142.229 7.58775 144.812 4.41264 144.812C1.23754 144.812 -1.34229 142.229 -1.34229 139.05C-1.34229 135.871 1.23754 133.288 4.41264 133.288C7.58775 133.288 10.1675 135.871 10.1675 139.05Z" stroke="white" stroke-width="2" stroke-miterlimit="10"/>
<path d="M25.8448 163.686C23.8603 162.097 21.479 161.302 18.8992 161.302C12.7475 161.302 7.58789 166.269 7.58789 172.627C7.58789 175.408 8.58015 177.793 10.1677 179.779C17.1132 176.402 22.6697 170.64 25.8448 163.686Z" stroke="white" stroke-width="2" stroke-miterlimit="10"/>
</g>
<path d="M533.489 3.83837L532.292 2.63963L533.489 1.44088C533.639 1.29104 533.639 0.991352 533.489 0.841508C533.339 0.691665 533.04 0.691665 532.89 0.841508L531.693 2.04026L530.496 0.841508C530.346 0.691665 530.047 0.691665 529.897 0.841508C529.747 0.991352 529.747 1.29104 529.897 1.44088L531.094 2.63963L529.897 3.83837C529.747 3.98822 529.747 4.2879 529.897 4.43775C530.047 4.58759 530.346 4.58759 530.496 4.43775L531.693 3.239L532.89 4.43775C533.04 4.58759 533.339 4.58759 533.489 4.43775C533.639 4.13806 533.639 3.98822 533.489 3.83837Z" fill="white"/>
<path d="M301.061 72.167L299.863 70.9682L301.061 69.7695C301.21 69.6197 301.21 69.32 301.061 69.1701C300.911 69.0203 300.612 69.0203 300.462 69.1701L299.265 70.3689L298.067 69.1701C297.918 69.0203 297.618 69.0203 297.469 69.1701C297.319 69.32 297.319 69.6197 297.469 69.7695L298.666 70.9682L297.469 72.167C297.319 72.3168 297.319 72.6165 297.469 72.7664C297.618 72.9162 297.918 72.9162 298.067 72.7664L299.265 71.5676L300.462 72.7664C300.612 72.9162 300.911 72.9162 301.061 72.7664C301.21 72.6165 301.21 72.3168 301.061 72.167Z" fill="white"/>
<path d="M-61.5745 865.46C-43.4513 865.46 -28.2991 877.553 -24.4368 893.852C-15.5238 874.53 4.38194 860.991 27.7044 860.991C45.8275 860.991 62.0196 869.272 72.4181 882.022C81.9253 864.672 100.94 852.71 122.777 852.71C142.98 852.71 160.657 862.831 170.759 878.21C177.443 870.455 187.693 865.46 198.983 865.46C213.095 865.46 225.425 873.215 231.516 884.651C247.856 862.831 274.298 848.636 304.157 848.636C332.53 848.636 357.784 861.386 374.124 881.233C381.997 866.249 398.189 855.996 416.758 855.996C435.921 855.996 452.41 866.906 460.135 882.548C467.117 874.53 477.515 869.535 489.251 869.535C504.849 869.535 518.218 878.473 524.16 891.354C531.439 868.878 552.979 852.71 578.53 852.71C600.812 852.71 620.272 865.197 629.483 883.205C634.088 876.37 641.961 871.901 650.874 871.901C658.45 871.901 665.283 875.187 670.037 880.313C681.921 857.442 706.432 841.801 734.656 841.801C774.616 841.801 807 873.084 807 911.728V1057.76H-99.752V902.395C-99.752 882.022 -82.6686 865.46 -61.5745 865.46Z" fill="white"/>
</g>
<defs>
<linearGradient id="paint0_linear_322_8457" x1="-33" y1="142.606" x2="670.586" y2="502.368" gradientUnits="userSpaceOnUse">
<stop stop-color="#262C92"/>
<stop offset="1" stop-color="#091F50"/>
</linearGradient>
<clipPath id="clip0_322_8457">
<path d="M0 0H768V889C768 902.255 757.255 913 744 913H24C10.7452 913 0 902.255 0 889V0Z" fill="white"/>
</clipPath>
</defs>
</svg>
