<svg width="360" height="780" viewBox="0 0 360 780" fill="none" xmlns="http://www.w3.org/2000/svg">
<g clip-path="url(#clip0_562_13742)">
<path d="M0 0H360V666C360 679.255 349.255 690 336 690H24C10.7452 690 0 679.255 0 666V0Z" fill="#EBF0FF"/>
<path d="M373 1H-2V694H373V1Z" fill="url(#paint0_linear_562_13742)"/>
<g opacity="0.6">
<path d="M222.019 -32.2259C230.491 -51.0964 222.08 -73.2703 203.232 -81.7528C184.384 -90.2353 162.237 -81.8142 153.764 -62.9438C145.292 -44.0733 153.703 -21.8993 172.551 -13.4168C191.399 -4.93432 213.546 -13.3554 222.019 -32.2259Z" stroke="white" stroke-miterlimit="10"/>
</g>
<path opacity="0.6" d="M220.602 9.54336C215.663 15.6869 206.833 16.586 200.697 11.791C194.56 6.84619 193.662 -1.99456 198.452 -8.13813C203.391 -14.2817 212.221 -15.1808 218.357 -10.3858C224.493 -5.59079 225.391 3.39979 220.602 9.54336Z" stroke="white" stroke-miterlimit="10"/>
<g opacity="0.6">
<path d="M13.9229 54.9389C20.5188 38.909 12.8864 20.5608 -3.12435 13.9571C-19.1351 7.35335 -37.4614 14.9948 -44.0572 31.0247C-50.653 47.0546 -43.0207 65.4028 -27.0099 72.0065C-10.9992 78.6103 7.3271 70.9688 13.9229 54.9389Z" stroke="white" stroke-miterlimit="10"/>
<path d="M6.56667 25.2294C6.56667 26.8189 5.37601 28.011 3.78846 28.011C2.20091 28.011 1.01025 26.8189 1.01025 25.2294C1.01025 23.64 2.20091 22.4479 3.78846 22.4479C5.37601 22.4479 6.56667 23.64 6.56667 25.2294Z" stroke="white" stroke-miterlimit="10"/>
<path d="M13.7105 55.6278C11.7261 54.0384 9.34472 53.2437 6.76495 53.2437C0.613184 53.2437 -4.54639 58.2107 -4.54639 64.5685C-4.54639 67.35 -3.55413 69.7342 -1.96658 71.721C4.97897 68.3435 10.5354 62.5817 13.7105 55.6278Z" stroke="white" stroke-miterlimit="10"/>
</g>
<path d="M282.561 20.1671L281.363 18.9684L282.561 17.7696C282.71 17.6198 282.71 17.3201 282.561 17.1702C282.411 17.0204 282.112 17.0204 281.962 17.1702L280.765 18.369L279.567 17.1702C279.418 17.0204 279.118 17.0204 278.969 17.1702C278.819 17.3201 278.819 17.6198 278.969 17.7696L280.166 18.9684L278.969 20.1671C278.819 20.317 278.819 20.6166 278.969 20.7665C279.118 20.9163 279.418 20.9163 279.567 20.7665L280.765 19.5677L281.962 20.7665C282.112 20.9163 282.411 20.9163 282.561 20.7665C282.71 20.6166 282.71 20.317 282.561 20.1671Z" fill="white"/>
<path d="M308.135 296.444L306.798 295.81L308.135 295.176C308.302 295.097 308.302 294.939 308.135 294.859C307.967 294.78 307.633 294.78 307.466 294.859L306.13 295.493L304.794 294.859C304.626 294.78 304.292 294.78 304.125 294.859C303.958 294.939 303.958 295.097 304.125 295.176L305.462 295.81L304.125 296.444C303.958 296.524 303.958 296.682 304.125 296.761C304.292 296.841 304.626 296.841 304.794 296.761L306.13 296.127L307.466 296.761C307.633 296.841 307.967 296.841 308.135 296.761C308.302 296.682 308.302 296.524 308.135 296.444Z" fill="#9DA6B9"/>
<path d="M55.7042 268.406L54.5069 267.787L55.7042 267.168C55.8539 267.09 55.8539 266.935 55.7042 266.858C55.5546 266.781 55.2552 266.781 55.1055 266.858L53.9082 267.477L52.7109 266.858C52.5613 266.781 52.2619 266.781 52.1122 266.858C51.9626 266.935 51.9626 267.09 52.1122 267.168L53.3096 267.787L52.1122 268.406C51.9626 268.483 51.9626 268.638 52.1122 268.715C52.2619 268.793 52.5613 268.793 52.7109 268.715L53.9082 268.096L55.1055 268.715C55.2552 268.793 55.5546 268.793 55.7042 268.715C55.8539 268.56 55.8539 268.483 55.7042 268.406Z" fill="#9DA6B9"/>
<path d="M28 285.84C28 284.586 29.76 283.6 32 283.6C34.24 283.6 36 284.586 36 285.84C36 287.094 34.24 288.08 32 288.08C29.76 288.08 28 287.094 28 285.84Z" fill="#9DA6B9"/>
<path d="M64.1345 306.525L62.7981 305.89L64.1345 305.256C64.3016 305.177 64.3016 305.019 64.1345 304.939C63.9675 304.86 63.6333 304.86 63.4663 304.939L62.1299 305.573L60.7935 304.939C60.6265 304.86 60.2923 304.86 60.1253 304.939C59.9582 305.019 59.9582 305.177 60.1253 305.256L61.4617 305.89L60.1253 306.525C59.9582 306.604 59.9582 306.762 60.1253 306.842C60.2923 306.921 60.6265 306.921 60.7935 306.842L62.1299 306.207L63.4663 306.842C63.6333 306.921 63.9675 306.921 64.1345 306.842C64.3016 306.762 64.3016 306.604 64.1345 306.525Z" fill="#9DA6B9"/>
<path d="M344 285.28C344 286.534 342.24 287.52 340 287.52C337.76 287.52 336 286.534 336 285.28C336 284.026 337.76 283.04 340 283.04C342.24 283.04 344 284.026 344 285.28Z" fill="#9DA6B9"/>
<g opacity="0.6">
<path d="M361.594 35.3326C377.227 31.106 386.477 14.9914 382.256 -0.660224C378.034 -16.3119 361.939 -25.5737 346.306 -21.3471C330.673 -17.1204 321.422 -1.00591 325.644 14.6457C329.865 30.2974 345.961 39.5592 361.594 35.3326Z" stroke="white" stroke-miterlimit="10"/>
<path d="M353.295 -1.63499C346.586 2.09664 339.794 6.49168 333.002 8.56481C330.021 9.47699 327.37 9.89162 324.803 10.0575C325.051 12.3794 325.548 14.7013 326.376 16.9403C328.53 17.189 330.766 17.3549 333.665 16.8573C340.705 15.6964 349.402 10.3892 357.353 5.99414C365.222 1.51618 374.83 -2.04961 381.539 -0.888658C381.787 -0.888658 381.953 -0.805741 382.201 -0.805741C381.953 -1.63499 381.704 -2.46424 381.456 -3.21057C380.793 -4.952 380.048 -6.6105 379.137 -8.18608C377.646 -8.60071 375.989 -8.84949 373.836 -8.84949C367.624 -8.76656 359.921 -5.44955 353.295 -1.63499Z" stroke="white" stroke-miterlimit="10"/>
<path d="M336.729 -1.46906C341.865 -3.54219 348.159 -4.62023 353.957 -5.94703C359.838 -7.27384 366.05 -9.26404 369.777 -12.0835C371.268 -13.2444 372.262 -14.2396 373.09 -15.2347C372.179 -16.0639 371.102 -16.8102 370.108 -17.4736C366.381 -14.3225 359.672 -11.8347 353.377 -10.425C346.503 -8.76648 338.634 -7.27383 333.665 -4.78607C330.849 -3.37634 329.441 -1.96662 327.701 -0.473962C326.956 0.18944 326.045 0.935759 325.134 1.68209C324.885 3.25767 324.72 4.83326 324.637 6.40883C328.198 3.25768 331.18 0.769919 336.729 -1.46906Z" stroke="white" stroke-miterlimit="10"/>
<path d="M366.961 11.1356C372.593 9.22836 378.722 6.7406 383.112 4.16991C383.029 3.09189 382.863 2.01386 382.615 0.852905C378.142 3.34066 372.51 5.7455 367.209 7.56985C359.589 10.2235 350.975 13.0429 345.177 16.1112C341.864 17.8526 340.125 19.2623 337.971 20.8379C336.149 22.2476 333.913 23.8232 331.428 25.6476C331.925 26.228 332.422 26.8085 333.002 27.389C337.557 23.9061 341.285 21.1696 347.828 18.1843C353.543 15.5307 360.5 13.3746 366.961 11.1356Z" stroke="white" stroke-miterlimit="10"/>
<path d="M360.501 18.1013C353.792 21.8329 347 26.228 340.208 28.3011C338.469 28.8816 336.812 29.2133 335.239 29.462C338.469 32.1157 342.196 34.1059 346.172 35.1839C352.052 33.0278 358.513 29.1303 364.559 25.8133C369.529 22.9939 375.161 20.5891 380.379 19.4281C381.621 16.7745 382.45 13.955 382.864 11.0526C382.284 10.9697 381.704 10.9697 381.042 10.9697C374.912 11.0527 367.127 14.3697 360.501 18.1013Z" stroke="white" stroke-miterlimit="10"/>
<path d="M352.88 36.2619C356.525 36.4277 360.335 35.8472 363.979 34.5204C368.866 32.6961 373.007 29.7108 376.237 25.9791C374.001 25.9791 371.765 26.062 368.949 26.9742C363.979 28.4669 358.347 32.2815 352.88 36.2619Z" stroke="white" stroke-miterlimit="10"/>
</g>
</g>
<path d="M-81.001 651.776C-69.6084 651.776 -60.0835 659.839 -57.6556 670.707C-52.0527 657.823 -39.5397 648.796 -24.8788 648.796C-13.4862 648.796 -3.30766 654.318 3.22903 662.819C9.20544 651.25 21.1582 643.275 34.8853 643.275C47.5852 643.275 58.6976 650.023 65.0475 660.278C69.2497 655.107 75.693 651.776 82.79 651.776C91.6612 651.776 99.4119 656.947 103.24 664.572C113.512 650.023 130.134 640.558 148.904 640.558C166.74 640.558 182.615 649.059 192.887 662.293C197.836 652.302 208.014 645.466 219.687 645.466C231.733 645.466 242.099 652.74 246.954 663.17C251.343 657.823 257.88 654.493 265.257 654.493C275.062 654.493 283.467 660.453 287.202 669.042C291.778 654.055 305.318 643.275 321.379 643.275C335.387 643.275 347.62 651.601 353.409 663.608C356.304 659.051 361.253 656.071 366.856 656.071C371.619 656.071 375.914 658.262 378.902 661.68C386.373 646.43 401.781 636 419.523 636C444.643 636 465 656.859 465 682.627V780H-105V676.404C-105 662.819 -94.2611 651.776 -81.001 651.776Z" fill="white"/>
<defs>
<linearGradient id="paint0_linear_562_13742" x1="-2" y1="97.4099" x2="350.768" y2="220.551" gradientUnits="userSpaceOnUse">
<stop stop-color="#262C92"/>
<stop offset="1" stop-color="#091F50"/>
</linearGradient>
<clipPath id="clip0_562_13742">
<path d="M0 0H360V666C360 679.255 349.255 690 336 690H24C10.7452 690 0 679.255 0 666V0Z" fill="white"/>
</clipPath>
</defs>
</svg>
