<svg width="1920" height="773" viewBox="0 0 1920 773" fill="none" xmlns="http://www.w3.org/2000/svg">
<g clip-path="url(#clip0_141_5555)">
<path d="M0 0H1920V749C1920 762.255 1909.25 773 1896 773H24C10.7451 773 0 762.255 0 749V0Z" fill="#EBF0FF"/>
<path d="M1920 -167H-47V1037H1920V-167Z" fill="url(#paint0_linear_141_5555)"/>
<g opacity="0.6">
<path d="M415.729 455C418.671 449.442 421.94 443.885 426.189 438.982C458.879 398.119 518.702 391.254 559.891 424.271C600.753 456.961 607.618 516.784 574.601 557.973C570.679 562.876 566.756 567.126 562.179 570.722" stroke="white" stroke-width="2" stroke-miterlimit="10"/>
<path d="M528.838 589.028C499.744 598.181 466.727 592.951 441.229 572.356C415.731 551.762 403.635 521.033 405.924 490.632" stroke="white" stroke-width="2" stroke-miterlimit="10"/>
<path d="M585.717 540.647C601.409 559.28 608.6 573.991 604.024 579.548C594.871 590.99 541.259 563.857 484.706 518.418C428.152 472.979 389.578 426.886 398.731 415.118C403.308 409.234 418.999 413.157 440.574 424.271L448.093 418.714C384.021 376.217 332.698 355.296 321.257 369.352C305.892 388.639 370.618 465.787 465.746 541.955C560.873 618.122 650.443 664.215 665.808 644.928C677.249 630.871 645.213 585.105 589.64 531.821" stroke="white" stroke-width="2" stroke-miterlimit="10"/>
</g>
<g opacity="0.6">
<path d="M1908.28 318.479C1969.98 301.817 2006.49 238.292 1989.83 176.592C1973.17 114.892 1909.64 78.3807 1847.94 95.0425C1786.24 111.704 1749.73 175.229 1766.39 236.929C1783.06 298.63 1846.58 335.14 1908.28 318.479Z" stroke="white" stroke-width="2" stroke-miterlimit="10"/>
<path d="M1875.53 172.749C1849.05 187.46 1822.24 204.785 1795.44 212.958C1783.67 216.554 1773.21 218.188 1763.07 218.842C1764.06 227.995 1766.02 237.148 1769.29 245.974C1777.78 246.955 1786.61 247.609 1798.05 245.648C1825.84 241.071 1860.16 220.149 1891.55 202.824C1922.6 185.171 1960.52 171.115 1987 175.691C1987.98 175.691 1988.63 176.018 1989.62 176.018C1988.63 172.749 1987.65 169.48 1986.67 166.538C1984.06 159.673 1981.12 153.135 1977.52 146.924C1971.64 145.29 1965.1 144.309 1956.6 144.309C1932.08 144.636 1901.68 157.712 1875.53 172.749Z" stroke="white" stroke-width="2" stroke-miterlimit="10"/>
<path d="M1810.15 173.403C1830.41 165.23 1855.26 160.981 1878.14 155.75C1901.35 150.52 1925.87 142.674 1940.58 131.56C1946.46 126.983 1950.39 123.061 1953.65 119.138C1950.06 115.869 1945.81 112.927 1941.89 110.312C1927.18 122.734 1900.7 132.541 1875.85 138.098C1848.72 144.636 1817.66 150.52 1798.05 160.327C1786.94 165.884 1781.38 171.442 1774.51 177.326C1771.57 179.941 1767.98 182.883 1764.38 185.825C1763.4 192.036 1762.75 198.247 1762.42 204.458C1776.48 192.036 1788.24 182.229 1810.15 173.403Z" stroke="white" stroke-width="2" stroke-miterlimit="10"/>
<path d="M1929.46 223.092C1951.69 215.573 1975.88 205.766 1993.21 195.632C1992.88 191.382 1992.23 187.133 1991.25 182.556C1973.6 192.363 1951.37 201.843 1930.45 209.035C1900.37 219.496 1866.37 230.61 1843.49 242.706C1830.41 249.57 1823.55 255.128 1815.05 261.339C1807.86 266.896 1799.03 273.107 1789.23 280.299C1791.19 282.587 1793.15 284.875 1795.44 287.164C1813.42 273.434 1828.13 262.646 1853.95 250.878C1876.51 240.417 1903.97 231.918 1929.46 223.092Z" stroke="white" stroke-width="2" stroke-miterlimit="10"/>
<path d="M1773.86 157.058C1800.34 150.193 1831.39 131.56 1859.84 115.869C1874.55 107.369 1891.22 99.8508 1906.91 94.6204C1885.01 89.0632 1861.14 89.717 1838.26 97.8894C1808.84 109.004 1786.28 130.579 1773.86 157.058Z" stroke="white" stroke-width="2" stroke-miterlimit="10"/>
<path d="M1903.97 250.551C1877.49 265.261 1850.68 282.587 1823.88 290.76C1817.01 293.048 1810.47 294.355 1804.26 295.336C1817.01 305.797 1831.72 313.642 1847.41 317.892C1870.62 309.393 1896.12 294.029 1919.98 280.953C1939.6 269.838 1961.83 260.358 1982.42 255.781C1987.33 245.321 1990.59 234.206 1992.23 222.765C1989.94 222.438 1987.65 222.438 1985.04 222.438C1960.85 222.765 1930.12 235.841 1903.97 250.551Z" stroke="white" stroke-width="2" stroke-miterlimit="10"/>
<path d="M1873.89 322.142C1888.27 322.796 1903.31 320.507 1917.7 315.277C1936.98 308.085 1953.33 296.317 1966.08 281.606C1957.25 281.606 1948.42 281.933 1937.31 285.529C1917.7 291.413 1895.47 306.451 1873.89 322.142Z" stroke="white" stroke-width="2" stroke-miterlimit="10"/>
</g>
<g opacity="0.6">
<path d="M717.155 -72.965C735.661 -114.133 717.289 -162.508 676.121 -181.013C634.954 -199.519 586.579 -181.147 568.073 -139.979C549.568 -98.8113 567.939 -50.4365 609.107 -31.931C650.275 -13.4256 698.65 -31.7971 717.155 -72.965Z" stroke="white" stroke-miterlimit="10"/>
</g>
<path opacity="0.6" d="M714.063 18.1594C703.275 31.5622 683.988 33.5236 670.585 23.0629C657.183 12.2752 655.221 -7.0118 665.682 -20.4146C676.47 -33.8175 695.757 -35.7789 709.159 -25.3181C722.562 -14.8574 724.524 4.75654 714.063 18.1594Z" stroke="white" stroke-miterlimit="10"/>
<g opacity="0.6">
<path d="M211.185 211.102C222.05 184.728 209.477 154.539 183.102 143.673C156.728 132.808 126.539 145.381 115.673 171.756C104.808 198.13 117.381 228.319 143.756 239.185C170.13 250.05 200.319 237.477 211.185 211.102Z" stroke="white" stroke-width="2" stroke-miterlimit="10"/>
<path d="M137.609 188.372C144.289 188.372 149.704 182.957 149.704 176.277C149.704 169.597 144.289 164.182 137.609 164.182C130.929 164.182 125.514 169.597 125.514 176.277C125.514 182.957 130.929 188.372 137.609 188.372Z" stroke="white" stroke-width="2" stroke-miterlimit="10"/>
<path d="M161.798 157.644C161.798 160.259 159.837 162.22 157.221 162.22C154.606 162.22 152.645 160.259 152.645 157.644C152.645 155.029 154.606 153.067 157.221 153.067C159.51 152.74 161.798 155.029 161.798 157.644Z" stroke="white" stroke-width="2" stroke-miterlimit="10"/>
<path d="M199.067 162.22C199.067 164.836 197.105 166.797 194.49 166.797C191.875 166.797 189.914 164.836 189.914 162.22C189.914 159.605 191.875 157.644 194.49 157.644C197.105 157.644 199.067 159.605 199.067 162.22Z" stroke="white" stroke-width="2" stroke-miterlimit="10"/>
<path d="M144.799 222.043C144.799 224.658 142.838 226.62 140.222 226.62C137.607 226.62 135.646 224.658 135.646 222.043C135.646 219.428 137.607 217.466 140.222 217.466C142.511 217.139 144.799 219.428 144.799 222.043Z" stroke="white" stroke-width="2" stroke-miterlimit="10"/>
<path d="M185.01 171.701C185.01 176.931 180.761 181.181 175.53 181.181C170.3 181.181 166.05 176.931 166.05 171.701C166.05 166.47 170.3 162.22 175.53 162.22C180.761 162.22 185.01 166.47 185.01 171.701Z" stroke="white" stroke-width="2" stroke-miterlimit="10"/>
<path d="M210.835 212.236C207.566 209.621 203.643 208.313 199.394 208.313C189.26 208.313 180.76 216.486 180.76 226.946C180.76 231.523 182.395 235.446 185.01 238.715C196.452 233.158 205.605 223.677 210.835 212.236Z" stroke="white" stroke-width="2" stroke-miterlimit="10"/>
</g>
<path d="M849.394 41.336L846.779 38.7208L849.394 36.1056C849.721 35.7787 849.721 35.1249 849.394 34.798C849.067 34.4711 848.413 34.4711 848.086 34.798L845.471 37.4132L842.856 34.798C842.529 34.4711 841.875 34.4711 841.548 34.798C841.221 35.1249 841.221 35.7787 841.548 36.1056L844.164 38.7208L841.548 41.336C841.221 41.6629 841.221 42.3167 841.548 42.6436C841.875 42.9705 842.529 42.9705 842.856 42.6436L845.471 40.0284L848.086 42.6436C848.413 42.9705 849.067 42.9705 849.394 42.6436C849.721 42.3167 849.721 41.6629 849.394 41.336Z" fill="white"/>
<g opacity="0.6">
<path d="M1627.74 120.772C1627.74 121.753 1627.09 122.407 1626.11 122.407C1625.12 122.407 1624.47 121.753 1624.47 120.772C1624.47 119.792 1625.12 119.138 1626.11 119.138C1627.09 119.138 1627.74 119.792 1627.74 120.772Z" fill="url(#paint1_linear_141_5555)"/>
<path d="M1566.34 121.172C1566.34 125.749 1562.75 129.345 1558.17 129.345C1553.6 129.345 1550 125.749 1550 121.172C1550 116.596 1553.6 113 1558.17 113C1562.75 113 1566.34 116.596 1566.34 121.172Z" fill="white"/>
<path d="M346.807 85.9035C346.807 88.5187 344.519 90.807 341.904 90.807C339.288 90.807 337 88.5187 337 85.9035C337 83.2883 339.288 81 341.904 81C344.519 81 346.807 83.2883 346.807 85.9035Z" fill="white"/>
<path d="M1672.2 29.5676C1672.2 30.5483 1671.21 31.529 1670.23 31.529C1669.25 31.529 1668.27 30.5483 1668.27 29.5676C1668.27 28.5869 1669.25 27.6062 1670.23 27.6062C1671.21 27.6062 1672.2 28.5869 1672.2 29.5676Z" fill="white"/>
<path d="M525.764 56.0464C527.072 56.0464 528.053 57.0271 528.053 58.3347C528.053 59.6423 527.072 60.623 525.764 60.623C524.457 60.623 523.476 59.6423 523.476 58.3347C523.476 57.0271 524.457 56.0464 525.764 56.0464Z" fill="url(#paint2_linear_141_5555)"/>
<path d="M650.312 116.523C651.293 116.523 652.274 117.503 652.274 118.484C652.274 119.465 651.293 120.445 650.312 120.445C649.332 120.445 648.351 119.465 648.351 118.484C648.024 117.503 649.005 116.523 650.312 116.523Z" fill="white"/>
<path d="M1804.09 484.783L1801.48 482.168L1804.09 479.553C1804.42 479.226 1804.42 478.572 1804.09 478.245C1803.76 477.918 1803.11 477.918 1802.78 478.245L1800.17 480.86L1797.55 478.245C1797.23 477.918 1796.57 477.918 1796.25 478.245C1795.92 478.572 1795.92 479.226 1796.25 479.553L1798.86 482.168L1796.25 484.783C1795.92 485.11 1795.92 485.764 1796.25 486.091C1796.57 486.418 1797.23 486.418 1797.55 486.091L1800.17 483.476L1802.78 486.091C1803.11 486.418 1803.76 486.418 1804.09 486.091C1804.42 485.437 1804.42 485.11 1804.09 484.783Z" fill="white"/>
<path d="M153.753 644.464L151.138 641.849L153.753 639.233C154.08 638.907 154.08 638.253 153.753 637.926C153.426 637.599 152.772 637.599 152.445 637.926L149.83 640.541L147.215 637.926C146.888 637.599 146.234 637.599 145.908 637.926C145.581 638.253 145.581 638.907 145.908 639.233L148.523 641.849L145.908 644.464C145.581 644.791 145.581 645.444 145.908 645.771C146.234 646.098 146.888 646.098 147.215 645.771L149.83 643.156L152.445 645.771C152.772 646.098 153.426 646.098 153.753 645.771C154.08 645.444 154.08 644.791 153.753 644.464Z" fill="white"/>
<path d="M1436.09 589.718L1433.48 587.103L1436.09 584.488C1436.42 584.161 1436.42 583.507 1436.09 583.18C1435.76 582.853 1435.11 582.853 1434.78 583.18L1432.17 585.795L1429.55 583.18C1429.23 582.853 1428.57 582.853 1428.25 583.18C1427.92 583.507 1427.92 584.161 1428.25 584.488L1430.86 587.103L1428.25 589.718C1427.92 590.045 1427.92 590.699 1428.25 591.026C1428.57 591.353 1429.23 591.353 1429.55 591.026L1432.17 588.411L1434.78 591.026C1435.11 591.353 1435.76 591.353 1436.09 591.026C1436.42 590.699 1436.42 590.045 1436.09 589.718Z" fill="white"/>
<path d="M809.513 512.07C809.513 514.685 807.225 516.973 804.61 516.973C801.994 516.973 799.706 514.685 799.706 512.07C799.706 509.455 801.994 507.166 804.61 507.166C807.225 507.166 809.513 509.455 809.513 512.07Z" fill="white"/>
<path d="M1651.52 490.995C1651.52 493.61 1649.23 495.898 1646.61 495.898C1644 495.898 1641.71 493.61 1641.71 490.995C1641.71 488.38 1644 486.091 1646.61 486.091C1649.56 486.091 1651.52 488.38 1651.52 490.995Z" fill="white"/>
<path d="M1558.35 431.172C1558.35 435.749 1554.75 439.345 1550.18 439.345C1545.6 439.345 1542.01 435.749 1542.01 431.172C1542.01 426.596 1545.6 423 1550.18 423C1554.75 423 1558.35 426.596 1558.35 431.172Z" fill="white"/>
<path d="M725.826 582.353C725.826 584.968 723.537 587.257 720.922 587.257C718.307 587.257 716.019 584.968 716.019 582.353C716.019 579.738 718.307 577.45 720.922 577.45C723.537 577.45 725.826 579.738 725.826 582.353Z" fill="white"/>
<path d="M1618.17 558.009C1618.17 560.624 1615.88 562.912 1613.27 562.912C1610.65 562.912 1608.37 560.624 1608.37 558.009C1608.37 555.394 1610.65 553.106 1613.27 553.106C1616.21 553.106 1618.17 555.394 1618.17 558.009Z" fill="white"/>
<path d="M2.39954 549.663C2.39954 547.048 4.68783 544.76 7.30301 544.76C9.9182 544.76 12.2065 547.048 12.2065 549.663C12.2065 552.278 9.9182 554.567 7.30301 554.567C4.68783 554.567 2.39954 552.278 2.39954 549.663Z" fill="white"/>
<path d="M95.5662 609.486C95.5662 604.909 99.162 601.313 103.739 601.313C108.315 601.313 111.911 604.909 111.911 609.486C111.911 614.062 108.315 617.658 103.739 617.658C99.162 617.658 95.5662 614.062 95.5662 609.486Z" fill="white"/>
<path d="M35.7443 482.649C35.7443 480.034 38.0326 477.746 40.6477 477.746C43.2629 477.746 45.5512 480.034 45.5512 482.649C45.5512 485.264 43.2629 487.553 40.6477 487.553C38.0326 487.553 35.7443 485.264 35.7443 482.649Z" fill="white"/>
<path d="M32.8007 29.8945C32.8007 30.8752 32.1469 31.529 31.1662 31.529C30.1855 31.529 29.5317 30.8752 29.5317 29.8945C29.5317 28.9138 30.1855 28.26 31.1662 28.26C32.1469 28.26 32.8007 28.9138 32.8007 29.8945Z" fill="url(#paint3_linear_141_5555)"/>
</g>
<path d="M1850.03 726.188C1810.15 726.188 1776.8 756.263 1768.31 796.798C1748.69 748.744 1704.89 715.074 1653.56 715.074C1613.68 715.074 1578.05 735.668 1555.17 767.378C1534.25 724.227 1492.4 694.479 1444.35 694.479C1399.89 694.479 1360.99 719.65 1338.76 757.898C1324.05 738.611 1301.49 726.188 1276.65 726.188C1245.59 726.188 1218.46 745.475 1205.06 773.916C1169.1 719.65 1110.91 684.345 1045.21 684.345C982.768 684.345 927.195 716.055 891.237 765.416C873.911 728.15 838.279 702.652 797.417 702.652C755.247 702.652 718.961 729.784 701.962 768.685C686.598 748.744 663.715 736.322 637.89 736.322C603.566 736.322 574.145 758.551 561.069 790.587C545.051 734.688 497.651 694.479 441.424 694.479C392.389 694.479 349.566 725.535 329.298 770.32C319.164 753.321 301.838 742.206 282.225 742.206C265.553 742.206 250.515 750.379 240.055 763.128C213.903 706.248 159.964 667.347 97.8538 667.347C9.91805 667.347 -61.3458 745.149 -61.3458 841.257V1204.44H1934.7V817.72C1934.04 767.051 1896.45 726.188 1850.03 726.188Z" fill="white"/>
<path d="M22.0129 666.039C61.8946 666.039 95.2382 696.114 103.738 736.649C123.351 688.595 167.156 654.924 218.479 654.924C258.361 654.924 293.992 675.519 316.875 707.228C337.797 664.078 379.64 634.33 427.694 634.33C472.152 634.33 511.053 659.501 533.282 697.748C547.993 678.461 570.549 666.039 595.393 666.039C626.448 666.039 653.581 685.326 666.984 713.766C702.943 659.501 761.13 624.196 826.837 624.196C889.275 624.196 944.847 655.905 980.806 705.267C998.132 668 1033.76 642.502 1074.63 642.502C1116.8 642.502 1153.08 669.635 1170.08 708.536C1185.44 688.595 1208.33 676.173 1234.15 676.173C1268.48 676.173 1297.9 698.402 1310.97 730.438C1326.99 674.538 1374.39 634.33 1430.62 634.33C1479.65 634.33 1522.48 665.385 1542.74 710.17C1552.88 693.172 1570.2 682.057 1589.82 682.057C1606.49 682.057 1621.53 690.23 1631.99 702.979C1658.14 646.098 1712.08 607.197 1774.19 607.197C1862.12 607.197 1933.39 684.999 1933.39 781.107V1144.29H-62V757.898C-62 707.228 -24.4067 666.039 22.0129 666.039Z" fill="white"/>
</g>
<defs>
<linearGradient id="paint0_linear_141_5555" x1="-47" y1="0.499996" x2="936.5" y2="1037" gradientUnits="userSpaceOnUse">
<stop stop-color="#262C92"/>
<stop offset="1" stop-color="#091F50"/>
</linearGradient>
<linearGradient id="paint1_linear_141_5555" x1="1624.3" y1="120.897" x2="1627.73" y2="120.897" gradientUnits="userSpaceOnUse">
<stop stop-color="white"/>
<stop offset="1" stop-color="#FBE9F5"/>
</linearGradient>
<linearGradient id="paint2_linear_141_5555" x1="525.919" y1="60.8871" x2="525.919" y2="55.9944" gradientUnits="userSpaceOnUse">
<stop stop-color="white"/>
<stop offset="1" stop-color="#FBE9F5"/>
</linearGradient>
<linearGradient id="paint3_linear_141_5555" x1="29.3758" y1="29.8249" x2="32.8007" y2="29.8249" gradientUnits="userSpaceOnUse">
<stop stop-color="white"/>
<stop offset="1" stop-color="#FBE9F5"/>
</linearGradient>
<clipPath id="clip0_141_5555">
<path d="M0 0H1920V749C1920 762.255 1909.25 773 1896 773H24C10.7451 773 0 762.255 0 749V0Z" fill="white"/>
</clipPath>
</defs>
</svg>
