<svg width="40" height="40" viewBox="0 0 40 40" fill="none" xmlns="http://www.w3.org/2000/svg">
<circle cx="20" cy="20" r="20" fill="#192E73"/>
<path d="M28.9474 16.3059C28.9373 15.5486 28.7956 14.7987 28.5284 14.0899C28.2968 13.4921 27.943 12.9491 27.4896 12.4958C27.0362 12.0424 26.4933 11.6886 25.8954 11.4569C25.1958 11.1943 24.4566 11.0523 23.7094 11.0369C22.7474 10.9939 22.4424 10.9819 20.0004 10.9819C17.5584 10.9819 17.2454 10.9819 16.2904 11.0369C15.5436 11.0524 14.8048 11.1944 14.1054 11.4569C13.5075 11.6884 12.9645 12.0422 12.5111 12.4956C12.0577 12.949 11.7039 13.492 11.4724 14.0899C11.2093 14.7891 11.0676 15.528 11.0534 16.2749C11.0104 17.2379 10.9974 17.5429 10.9974 19.9849C10.9974 22.4269 10.9974 22.7389 11.0534 23.6949C11.0684 24.4429 11.2094 25.1809 11.4724 25.8819C11.7043 26.4797 12.0583 27.0225 12.5119 27.4757C12.9654 27.9289 13.5085 28.2825 14.1064 28.5139C14.8039 28.7871 15.5428 28.9393 16.2914 28.9639C17.2544 29.0069 17.5594 29.0199 20.0014 29.0199C22.4434 29.0199 22.7564 29.0199 23.7114 28.9639C24.4586 28.9492 25.1978 28.8075 25.8974 28.5449C26.4951 28.313 27.0379 27.9591 27.4913 27.5058C27.9446 27.0524 28.2985 26.5096 28.5304 25.9119C28.7934 25.2119 28.9344 24.4739 28.9494 23.7249C28.9924 22.7629 29.0054 22.4579 29.0054 20.0149C29.0034 17.5729 29.0034 17.2629 28.9474 16.3059ZM19.9944 24.6029C17.4404 24.6029 15.3714 22.5339 15.3714 19.9799C15.3714 17.4259 17.4404 15.3569 19.9944 15.3569C21.2205 15.3569 22.3964 15.844 23.2634 16.711C24.1304 17.578 24.6174 18.7538 24.6174 19.9799C24.6174 21.206 24.1304 22.3819 23.2634 23.2489C22.3964 24.1159 21.2205 24.6029 19.9944 24.6029ZM24.8014 16.2639C24.2044 16.2639 23.7234 15.7819 23.7234 15.1859C23.7234 15.0444 23.7513 14.9043 23.8055 14.7736C23.8596 14.6429 23.939 14.5241 24.039 14.424C24.1391 14.324 24.2579 14.2446 24.3886 14.1905C24.5193 14.1363 24.6594 14.1084 24.8009 14.1084C24.9424 14.1084 25.0825 14.1363 25.2133 14.1905C25.344 14.2446 25.4628 14.324 25.5628 14.424C25.6629 14.5241 25.7423 14.6429 25.7964 14.7736C25.8506 14.9043 25.8784 15.0444 25.8784 15.1859C25.8784 15.7819 25.3964 16.2639 24.8014 16.2639Z" fill="white"/>
<path d="M19.9941 22.9831C21.6526 22.9831 22.9971 21.6386 22.9971 19.9801C22.9971 18.3215 21.6526 16.9771 19.9941 16.9771C18.3356 16.9771 16.9911 18.3215 16.9911 19.9801C16.9911 21.6386 18.3356 22.9831 19.9941 22.9831Z" fill="white"/>
</svg>
