<svg width="184" height="40" viewBox="0 0 184 40" fill="none" xmlns="http://www.w3.org/2000/svg">
<path fill-rule="evenodd" clip-rule="evenodd" d="M5.3221 4.18269C1.39633 7.68268 -0.768589 11.7345 0.486623 13.2326C1.74183 14.7307 5.94188 13.1078 9.86761 9.60781C13.7934 6.10779 15.9583 2.056 14.7031 0.557895C13.4479 -0.940215 9.24791 0.682663 5.3221 4.18269ZM5.60569 4.50417C3.91008 5.92776 3.18431 7.65805 3.69686 8.3076C4.20936 8.95715 5.76606 8.28009 7.46167 6.85648C9.15735 5.43285 10.1165 3.75223 9.60399 3.10266C9.09146 2.45308 7.30136 3.08056 5.60569 4.50417Z" fill="white"/>
<path d="M6.32181 36.4434C13.1067 41.3947 35.9972 18.2128 34.2807 7.42715C32.554 4.84611 31.5811 3.606 29.8069 3.13436C33.2222 8.43451 23.4496 22.1156 16.2299 27.8716C9.14351 33.0771 5.10281 35.9057 2.83496 31.118C3.52208 33.872 4.09326 33.8154 6.32181 36.4434Z" fill="white"/>
<path d="M15.1375 39.0329C21.874 36.8328 36.3613 22.1568 36.6214 13.8396C37.2855 13.9336 37.5809 14.8781 37.9999 17.8372C37.7138 23.7667 26.8158 38.3084 17.5824 39.9988C14.7217 40.0113 14.2717 39.7824 15.1375 39.0329Z" fill="white"/>
<path d="M16.4379 36.1352C14.3155 35.942 12.1462 35.1515 11.3919 34.7937C10.506 36.1334 10.38 38.8751 11.574 39.1133C11.784 39.5287 15.6003 40.0286 17.4002 39.9987C15.5095 39.8409 15.5015 38.0938 16.4379 36.1352Z" fill="#FF9501"/>
<path d="M2.15864 32.2985C2.0546 31.5026 2.32407 29.7655 4.03146 26.9326C12.1469 14.8439 31.4878 3.9585 36.3094 10.5931C37.6297 13.7144 38.078 15.1542 37.974 17.9445C37.1862 12.7807 33.4881 12.7809 25.7235 15.6103C17.6938 18.9184 4.52756 30.3428 6.2163 36.323C4.45205 34.8759 3.53819 34.0124 2.15864 32.2985Z" fill="#FF9501"/>
<path d="M0 19.5543C0.374534 16.0342 2.63564 11.1475 3.71937 9.14426C3.89275 9.77927 4.37196 11.641 4.65574 11.3444C10.4716 5.26473 22.1861 -0.89011 27.4661 0.934306C29.6298 1.38914 32.9609 5.13041 34.2807 7.42715C29.2205 1.55461 16.3731 5.74294 6.45035 15.2079C6.59601 15.6156 7.81154 17.4168 8.40108 18.2664C5.15519 18.8195 3.33291 19.126 0 19.5543Z" fill="#FF9501"/>
<path fill-rule="evenodd" clip-rule="evenodd" d="M30.8841 34.5808C34.6904 31.1873 36.7894 27.2589 35.5724 25.8063C34.3554 24.3538 30.2833 25.9273 26.4771 29.3208C22.6708 32.7142 20.5717 36.6427 21.7888 38.0952C23.0058 39.5476 27.0779 37.9742 30.8841 34.5808ZM30.6092 34.2691C32.2532 32.8888 32.9569 31.2113 32.46 30.5814C31.9631 29.9516 30.4537 30.6081 28.8097 31.9883C27.1657 33.3686 26.2358 34.9981 26.7326 35.6279C27.2296 36.2577 28.9652 35.6493 30.6092 34.2691Z" fill="#FF9501"/>
<path d="M47.4081 27.5V11.22H54.2721C54.8001 11.22 55.3354 11.286 55.8781 11.418C56.4354 11.5353 56.9414 11.7847 57.3961 12.166C57.8654 12.5327 58.2394 13.09 58.5181 13.838C58.8114 14.586 58.9581 15.576 58.9581 16.808C58.9581 18.04 58.8114 19.0373 58.5181 19.8C58.2394 20.5627 57.8727 21.142 57.4181 21.538C56.9634 21.934 56.4721 22.198 55.9441 22.33C55.4161 22.462 54.9027 22.528 54.4041 22.528C54.1401 22.528 53.8321 22.5207 53.4801 22.506C53.1281 22.4767 52.7687 22.44 52.4021 22.396C52.0501 22.352 51.7201 22.3153 51.4121 22.286C51.1041 22.242 50.8547 22.2053 50.6641 22.176V27.5H47.4081ZM50.6641 19.602H53.8981C54.2794 19.602 54.6021 19.514 54.8661 19.338C55.1447 19.1473 55.3501 18.854 55.4821 18.458C55.6141 18.0473 55.6801 17.5047 55.6801 16.83C55.6801 16.17 55.6067 15.6493 55.4601 15.268C55.3281 14.872 55.1301 14.586 54.8661 14.41C54.6167 14.234 54.3161 14.146 53.9641 14.146H50.6641V19.602Z" fill="white"/>
<path d="M61.0721 27.5V11.22H67.8041C68.4495 11.22 69.0508 11.3007 69.6081 11.462C70.1655 11.6087 70.6568 11.8727 71.0821 12.254C71.5075 12.6353 71.8375 13.1633 72.0721 13.838C72.3215 14.5127 72.4461 15.378 72.4461 16.434C72.4461 17.182 72.3728 17.82 72.2261 18.348C72.0795 18.876 71.8815 19.3087 71.6321 19.646C71.3975 19.9833 71.1261 20.2547 70.8181 20.46C70.5101 20.6653 70.1948 20.834 69.8721 20.966L72.9081 27.5H69.5861L66.9681 21.472C66.7921 21.472 66.5868 21.472 66.3521 21.472C66.1321 21.4573 65.9048 21.45 65.6701 21.45C65.4355 21.45 65.2008 21.45 64.9661 21.45C64.7315 21.45 64.5188 21.4427 64.3281 21.428V27.5H61.0721ZM64.3281 18.854H67.2321C67.5255 18.854 67.7895 18.8173 68.0241 18.744C68.2588 18.6707 68.4641 18.546 68.6401 18.37C68.8161 18.1793 68.9481 17.93 69.0361 17.622C69.1388 17.314 69.1901 16.918 69.1901 16.434C69.1901 15.9793 69.1388 15.6053 69.0361 15.312C68.9481 15.004 68.8161 14.7693 68.6401 14.608C68.4641 14.432 68.2588 14.3147 68.0241 14.256C67.7895 14.1827 67.5255 14.146 67.2321 14.146H64.3281V18.854Z" fill="white"/>
<path d="M81.1571 27.632C80.0424 27.632 79.0671 27.5293 78.2311 27.324C77.3951 27.104 76.6911 26.708 76.1191 26.136C75.5618 25.5493 75.1438 24.7133 74.8651 23.628C74.5864 22.5427 74.4471 21.1273 74.4471 19.382C74.4471 17.6367 74.5864 16.2213 74.8651 15.136C75.1584 14.036 75.5838 13.1927 76.1411 12.606C76.6984 12.0193 77.3951 11.616 78.2311 11.396C79.0671 11.176 80.0424 11.066 81.1571 11.066C82.2718 11.066 83.2471 11.176 84.0831 11.396C84.9191 11.616 85.6158 12.0193 86.1731 12.606C86.7304 13.1927 87.1484 14.036 87.4271 15.136C87.7058 16.2213 87.8451 17.6367 87.8451 19.382C87.8451 21.1273 87.7058 22.5427 87.4271 23.628C87.1484 24.7133 86.7304 25.5493 86.1731 26.136C85.6158 26.708 84.9191 27.104 84.0831 27.324C83.2471 27.5293 82.2718 27.632 81.1571 27.632ZM81.1571 24.706C81.8171 24.706 82.3671 24.6327 82.8071 24.486C83.2471 24.3393 83.5918 24.0827 83.8411 23.716C84.1051 23.3347 84.2958 22.7993 84.4131 22.11C84.5304 21.406 84.5891 20.4967 84.5891 19.382C84.5891 18.2087 84.5304 17.27 84.4131 16.566C84.2958 15.862 84.1051 15.3267 83.8411 14.96C83.5918 14.5787 83.2471 14.322 82.8071 14.19C82.3671 14.058 81.8171 13.992 81.1571 13.992C80.5264 13.992 79.9911 14.058 79.5511 14.19C79.1111 14.322 78.7518 14.5787 78.4731 14.96C78.2091 15.3267 78.0111 15.862 77.8791 16.566C77.7618 17.27 77.7031 18.2087 77.7031 19.382C77.7031 20.4967 77.7544 21.406 77.8571 22.11C77.9744 22.7993 78.1651 23.3347 78.4291 23.716C78.6931 24.0827 79.0451 24.3393 79.4851 24.486C79.9398 24.6327 80.4971 24.706 81.1571 24.706Z" fill="white"/>
<path d="M98.8193 27.5L88.6553 11.22H92.2633L102.427 27.5H98.8193ZM88.7213 27.5L94.1773 18.612L95.8493 21.362L92.3293 27.5H88.7213ZM96.9493 20.306L95.2993 17.556L98.9073 11.22H102.493L96.9493 20.306Z" fill="white"/>
<path d="M108.149 27.5V22.572L103.243 11.22H106.631L109.843 19.25L113.033 11.22H116.289L111.405 22.572V27.5H108.149Z" fill="white"/>
<path d="M122.998 27.632C122.572 27.632 122.132 27.6173 121.678 27.588C121.238 27.5733 120.783 27.544 120.314 27.5C119.859 27.4413 119.426 27.3827 119.016 27.324C118.605 27.2507 118.231 27.17 117.894 27.082V24.508C118.334 24.552 118.832 24.5887 119.39 24.618C119.947 24.6473 120.526 24.6693 121.128 24.684C121.729 24.6987 122.301 24.706 122.844 24.706C123.401 24.706 123.878 24.662 124.274 24.574C124.684 24.4713 125 24.3027 125.22 24.068C125.44 23.8187 125.55 23.4813 125.55 23.056V22.462C125.55 21.978 125.403 21.6113 125.11 21.362C124.831 21.098 124.428 20.966 123.9 20.966H122.514C120.959 20.966 119.764 20.6287 118.928 19.954C118.106 19.2647 117.696 18.0987 117.696 16.456V15.664C117.696 14.08 118.15 12.9213 119.06 12.188C119.969 11.4547 121.267 11.088 122.954 11.088C123.555 11.088 124.149 11.1173 124.736 11.176C125.337 11.2347 125.909 11.308 126.452 11.396C127.009 11.4693 127.486 11.55 127.882 11.638V14.212C127.207 14.168 126.452 14.124 125.616 14.08C124.794 14.036 124.032 14.014 123.328 14.014C122.829 14.014 122.382 14.0653 121.986 14.168C121.604 14.256 121.311 14.432 121.106 14.696C120.9 14.96 120.798 15.334 120.798 15.818V16.258C120.798 16.83 120.959 17.2407 121.282 17.49C121.604 17.7393 122.081 17.864 122.712 17.864H124.318C125.3 17.864 126.107 18.0473 126.738 18.414C127.383 18.766 127.86 19.2573 128.168 19.888C128.49 20.5187 128.652 21.2373 128.652 22.044V22.968C128.652 24.244 128.41 25.2193 127.926 25.894C127.456 26.5687 126.796 27.0307 125.946 27.28C125.11 27.5147 124.127 27.632 122.998 27.632Z" fill="white"/>
<path d="M134.457 27.5V14.146H129.991V11.22H142.201V14.146H137.713V27.5H134.457Z" fill="white"/>
<path d="M150.143 27.632C149.029 27.632 148.053 27.5293 147.217 27.324C146.381 27.104 145.677 26.708 145.105 26.136C144.548 25.5493 144.13 24.7133 143.851 23.628C143.573 22.5427 143.433 21.1273 143.433 19.382C143.433 17.6367 143.573 16.2213 143.851 15.136C144.145 14.036 144.57 13.1927 145.127 12.606C145.685 12.0193 146.381 11.616 147.217 11.396C148.053 11.176 149.029 11.066 150.143 11.066C151.258 11.066 152.233 11.176 153.069 11.396C153.905 11.616 154.602 12.0193 155.159 12.606C155.717 13.1927 156.135 14.036 156.413 15.136C156.692 16.2213 156.831 17.6367 156.831 19.382C156.831 21.1273 156.692 22.5427 156.413 23.628C156.135 24.7133 155.717 25.5493 155.159 26.136C154.602 26.708 153.905 27.104 153.069 27.324C152.233 27.5293 151.258 27.632 150.143 27.632ZM150.143 24.706C150.803 24.706 151.353 24.6327 151.793 24.486C152.233 24.3393 152.578 24.0827 152.827 23.716C153.091 23.3347 153.282 22.7993 153.399 22.11C153.517 21.406 153.575 20.4967 153.575 19.382C153.575 18.2087 153.517 17.27 153.399 16.566C153.282 15.862 153.091 15.3267 152.827 14.96C152.578 14.5787 152.233 14.322 151.793 14.19C151.353 14.058 150.803 13.992 150.143 13.992C149.513 13.992 148.977 14.058 148.537 14.19C148.097 14.322 147.738 14.5787 147.459 14.96C147.195 15.3267 146.997 15.862 146.865 16.566C146.748 17.27 146.689 18.2087 146.689 19.382C146.689 20.4967 146.741 21.406 146.843 22.11C146.961 22.7993 147.151 23.3347 147.415 23.716C147.679 24.0827 148.031 24.3393 148.471 24.486C148.926 24.6327 149.483 24.706 150.143 24.706Z" fill="white"/>
<path d="M159.234 27.5V11.22H165.966C166.612 11.22 167.213 11.3007 167.77 11.462C168.328 11.6087 168.819 11.8727 169.244 12.254C169.67 12.6353 170 13.1633 170.234 13.838C170.484 14.5127 170.608 15.378 170.608 16.434C170.608 17.182 170.535 17.82 170.388 18.348C170.242 18.876 170.044 19.3087 169.794 19.646C169.56 19.9833 169.288 20.2547 168.98 20.46C168.672 20.6653 168.357 20.834 168.034 20.966L171.07 27.5H167.748L165.13 21.472C164.954 21.472 164.749 21.472 164.514 21.472C164.294 21.4573 164.067 21.45 163.832 21.45C163.598 21.45 163.363 21.45 163.128 21.45C162.894 21.45 162.681 21.4427 162.49 21.428V27.5H159.234ZM162.49 18.854H165.394C165.688 18.854 165.952 18.8173 166.186 18.744C166.421 18.6707 166.626 18.546 166.802 18.37C166.978 18.1793 167.11 17.93 167.198 17.622C167.301 17.314 167.352 16.918 167.352 16.434C167.352 15.9793 167.301 15.6053 167.198 15.312C167.11 15.004 166.978 14.7693 166.802 14.608C166.626 14.432 166.421 14.3147 166.186 14.256C165.952 14.1827 165.688 14.146 165.394 14.146H162.49V18.854Z" fill="white"/>
<path d="M176.987 27.61C176.635 27.61 176.232 27.5733 175.777 27.5C175.323 27.4413 174.883 27.2947 174.457 27.06C174.047 26.8253 173.702 26.4733 173.423 26.004C173.159 25.52 173.027 24.86 173.027 24.024V14.938C173.027 14.2193 173.137 13.618 173.357 13.134C173.577 12.65 173.871 12.2687 174.237 11.99C174.604 11.7113 175.007 11.5133 175.447 11.396C175.887 11.2787 176.32 11.22 176.745 11.22C177.845 11.22 178.813 11.2347 179.649 11.264C180.5 11.2933 181.263 11.33 181.937 11.374C182.612 11.4033 183.228 11.4473 183.785 11.506V14.234H177.713C177.259 14.234 176.907 14.344 176.657 14.564C176.408 14.784 176.283 15.1213 176.283 15.576V17.93L182.729 18.106V20.68L176.283 20.856V23.1C176.283 23.4813 176.342 23.782 176.459 24.002C176.591 24.2073 176.76 24.354 176.965 24.442C177.185 24.5153 177.413 24.552 177.647 24.552H183.785V27.28C183.14 27.3533 182.421 27.412 181.629 27.456C180.852 27.5 180.06 27.5367 179.253 27.566C178.461 27.5953 177.706 27.61 176.987 27.61Z" fill="white"/>
</svg>
