<svg width="1200" height="418" viewBox="0 0 1200 418" fill="none" xmlns="http://www.w3.org/2000/svg">
<path d="M1116.09 256.654L1113.48 254.397L1116.09 252.14C1116.42 251.858 1116.42 251.294 1116.09 251.012C1115.76 250.729 1115.11 250.729 1114.78 251.012L1112.17 253.269L1109.55 251.012C1109.23 250.729 1108.57 250.729 1108.25 251.012C1107.92 251.294 1107.92 251.858 1108.25 252.14L1110.86 254.397L1108.25 256.654C1107.92 256.936 1107.92 257.5 1108.25 257.783C1108.57 258.065 1109.23 258.065 1109.55 257.783L1112.17 255.526L1114.78 257.783C1115.11 258.065 1115.76 258.065 1116.09 257.783C1116.42 257.5 1116.42 256.936 1116.09 256.654Z" fill="white"/>
<g opacity="0.6">
<path d="M1133.18 21.712C1144.05 -4.92847 1131.48 -35.4217 1105.1 -46.3966C1078.73 -57.3714 1048.54 -44.672 1037.67 -18.0315C1026.81 8.60898 1039.38 39.1022 1065.76 50.0771C1092.13 61.0519 1122.32 48.3525 1133.18 21.712Z" stroke="white" stroke-width="2" stroke-miterlimit="10"/>
<path d="M1066.8 32.7627C1066.8 35.4043 1064.84 37.3855 1062.22 37.3855C1059.61 37.3855 1057.65 35.4043 1057.65 32.7627C1057.65 30.1212 1059.61 28.1401 1062.22 28.1401C1064.51 27.8099 1066.8 30.1212 1066.8 32.7627Z" stroke="white" stroke-width="2" stroke-miterlimit="10"/>
<path d="M1132.83 22.8569C1129.57 20.2154 1125.64 18.8946 1121.39 18.8946C1111.26 18.8946 1102.76 27.1494 1102.76 37.7156C1102.76 42.3383 1104.39 46.3006 1107.01 49.6026C1118.45 43.9893 1127.6 34.4137 1132.83 22.8569Z" stroke="white" stroke-width="2" stroke-miterlimit="10"/>
</g>
<path d="M50.5664 383.554C74.5706 383.554 94.6397 395.593 99.7554 411.82C111.561 392.584 137.926 379.105 168.817 379.105C192.821 379.105 214.268 387.349 228.04 400.043C240.633 382.769 265.818 370.861 294.741 370.861C321.5 370.861 344.914 380.937 358.293 396.248C367.147 388.527 380.723 383.554 395.677 383.554C414.369 383.554 430.699 391.275 438.766 402.66C460.41 380.937 495.432 366.805 534.98 366.805C572.561 366.805 606.009 379.498 627.652 399.257C638.08 384.34 659.527 374.133 684.121 374.133C709.503 374.133 731.343 384.994 741.574 400.566C750.822 392.584 764.595 387.611 780.138 387.611C800.798 387.611 818.506 396.509 826.376 409.334C836.017 386.957 864.547 370.861 898.389 370.861C927.902 370.861 953.677 383.293 965.876 401.22C971.976 394.416 982.404 389.967 994.209 389.967C1004.24 389.967 1013.29 393.238 1019.59 398.341C1035.33 375.572 1067.8 360 1105.18 360C1158.11 360 1201 391.144 1201 429.617V575L0 575L0 420.326C0 400.043 22.627 383.554 50.5664 383.554Z" fill="white"/>
<g opacity="0.5">
<path d="M48 71.8756C48 73.7787 46.3667 75.4439 44.5 75.4439C42.6333 75.4439 41 73.7787 41 71.8756C41 69.9725 42.6333 68.3073 44.5 68.3073C46.6 68.3073 48 69.9725 48 71.8756Z" fill="white"/>
<path d="M6 37.7219C6 41.1475 3.36 43.839 2.38419e-07 43.839C-3.36 43.839 -6 41.1475 -6 37.7219C-6 34.2964 -3.36 31.6049 2.38419e-07 31.6049C3.36 31.6049 6 34.2964 6 37.7219Z" fill="white"/>
<path d="M16 125.4C16 127.575 14.1333 129.478 12 129.478C9.86667 129.478 8 127.575 8 125.4C8 123.225 9.86667 121.322 12 121.322C14.4 121.322 16 123.225 16 125.4Z" fill="white"/>
</g>
</svg>
