<svg width="688" height="652" viewBox="0 0 688 652" fill="none" xmlns="http://www.w3.org/2000/svg">
<path d="M454.765 64.5098L452.255 62L454.765 59.4902C455.078 59.1765 455.078 58.549 454.765 58.2353C454.451 57.9216 453.823 57.9216 453.51 58.2353L451 60.7451L448.49 58.2353C448.177 57.9216 447.549 57.9216 447.235 58.2353C446.922 58.549 446.922 59.1765 447.235 59.4902L449.745 62L447.235 64.5098C446.922 64.8235 446.922 65.451 447.235 65.7647C447.549 66.0784 448.177 66.0784 448.49 65.7647L451 63.2549L453.51 65.7647C453.823 66.0784 454.451 66.0784 454.765 65.7647C455.078 65.451 455.078 64.8235 454.765 64.5098Z" fill="white"/>
<path d="M598.588 468.535L594.196 464.883L598.588 461.23C599.137 460.773 599.137 459.86 598.588 459.404C598.039 458.947 596.941 458.947 596.392 459.404L592 463.056L587.608 459.404C587.059 458.947 585.961 458.947 585.412 459.404C584.863 459.86 584.863 460.773 585.412 461.23L589.804 464.883L585.412 468.535C584.863 468.992 584.863 469.905 585.412 470.362C585.961 470.818 587.059 470.818 587.608 470.362L592 466.709L596.392 470.362C596.941 470.818 598.039 470.818 598.588 470.362C599.137 469.905 599.137 468.992 598.588 468.535Z" fill="white"/>
<g opacity="0.6">
<path d="M653.054 34.154C666.831 1.10208 650.889 -36.7298 617.446 -50.346C584.003 -63.9621 545.723 -48.2063 531.946 -15.1544C518.169 17.8976 534.111 55.7295 567.554 69.3456C600.997 82.9618 639.277 67.206 653.054 34.154Z" stroke="white" stroke-width="2" stroke-miterlimit="10"/>
<path d="M559.76 5.66951C568.23 5.66951 575.097 -1.11668 575.097 -9.48788C575.097 -17.8591 568.23 -24.6453 559.76 -24.6453C551.29 -24.6453 544.423 -17.8591 544.423 -9.48788C544.423 -1.11668 551.29 5.66951 559.76 5.66951Z" stroke="white" stroke-width="2" stroke-miterlimit="10"/>
<path d="M568.877 47.8646C568.877 51.1418 566.39 53.5998 563.074 53.5998C559.758 53.5998 557.271 51.1418 557.271 47.8646C557.271 44.5873 559.758 42.1293 563.074 42.1293C565.975 41.7197 568.877 44.5873 568.877 47.8646Z" stroke="white" stroke-width="2" stroke-miterlimit="10"/>
<path d="M652.611 35.5748C648.466 32.2976 643.492 30.6589 638.104 30.6589C625.254 30.6589 614.477 40.9004 614.477 54.0095C614.477 59.7447 616.549 64.6607 619.865 68.7573C634.373 61.7931 645.979 49.9129 652.611 35.5748Z" stroke="white" stroke-width="2" stroke-miterlimit="10"/>
</g>
<path d="M21.8514 538.914C36.0221 538.914 47.8698 546.025 50.8897 555.61C57.8589 544.247 73.4235 536.285 91.6596 536.285C105.83 536.285 118.491 541.155 126.622 548.653C134.056 538.45 148.923 531.416 165.998 531.416C181.795 531.416 195.617 537.368 203.515 546.411C208.742 541.851 216.757 538.914 225.584 538.914C236.619 538.914 246.26 543.474 251.022 550.199C263.799 537.368 284.474 529.019 307.821 529.019C330.006 529.019 349.752 536.517 362.529 548.189C368.685 539.377 381.346 533.348 395.865 533.348C410.849 533.348 423.742 539.764 429.782 548.962C435.241 544.247 443.372 541.31 452.548 541.31C464.744 541.31 475.198 546.566 479.844 554.141C485.536 540.923 502.378 531.416 522.356 531.416C539.779 531.416 554.995 538.759 562.197 549.349C565.798 545.329 571.954 542.701 578.923 542.701C584.847 542.701 590.19 544.634 593.907 547.648C603.199 534.198 622.364 525 644.433 525C675.679 525 701 543.397 701 566.122V652L-8 652L-8 560.634C-8 548.653 5.35764 538.914 21.8514 538.914Z" fill="white"/>
<g opacity="0.5">
<path d="M610.474 318.244C610.474 315.701 612.57 313.476 614.965 313.476C617.361 313.476 619.457 315.701 619.457 318.244C619.457 320.786 617.361 323.011 614.965 323.011C612.27 323.011 610.474 320.786 610.474 318.244Z" fill="white"/>
<path d="M647.347 347.31C647.347 342.86 650.641 339.364 654.833 339.364C659.025 339.364 662.319 342.86 662.319 347.31C662.319 351.759 659.025 355.255 654.833 355.255C650.641 355.255 647.347 351.759 647.347 347.31Z" fill="white"/>
<path d="M640.568 270.885C640.568 268.342 642.664 266.117 645.06 266.117C647.456 266.117 649.552 268.342 649.552 270.885C649.552 273.427 647.456 275.652 645.06 275.652C642.365 275.652 640.568 273.427 640.568 270.885Z" fill="white"/>
</g>
<g opacity="0.5">
<path d="M47.2104 74.9184C47.2104 76.8993 45.6917 78.6327 43.956 78.6327C42.2204 78.6327 40.7017 76.8993 40.7017 74.9184C40.7017 72.9374 42.2204 71.2041 43.956 71.2041C45.9087 71.2041 47.2104 72.9374 47.2104 74.9184Z" fill="white"/>
<path d="M8.15789 39.3673C8.15789 42.9331 5.70316 45.7347 2.57895 45.7347C-0.545263 45.7347 -3 42.9331 -3 39.3673C-3 35.8016 -0.545263 33 2.57895 33C5.70316 33 8.15789 35.8016 8.15789 39.3673Z" fill="white"/>
<path d="M17.4562 130.633C17.4562 132.897 15.7205 134.877 13.7369 134.877C11.7533 134.877 10.0176 132.897 10.0176 130.633C10.0176 128.369 11.7533 126.388 13.7369 126.388C15.9685 126.388 17.4562 128.369 17.4562 130.633Z" fill="white"/>
</g>
</svg>
