<svg width="328" height="640" viewBox="0 0 328 640" fill="none" xmlns="http://www.w3.org/2000/svg">
<path d="M210.765 40.5098L208.255 38L210.765 35.4902C211.078 35.1765 211.078 34.549 210.765 34.2353C210.451 33.9216 209.823 33.9216 209.51 34.2353L207 36.7451L204.49 34.2353C204.177 33.9216 203.549 33.9216 203.235 34.2353C202.922 34.549 202.922 35.1765 203.235 35.4902L205.745 38L203.235 40.5098C202.922 40.8235 202.922 41.451 203.235 41.7647C203.549 42.0784 204.177 42.0784 204.49 41.7647L207 39.2549L209.51 41.7647C209.823 42.0784 210.451 42.0784 210.765 41.7647C211.078 41.451 211.078 40.8235 210.765 40.5098Z" fill="white"/>
<path d="M286.765 457.223L284.255 454.763L286.765 452.303C287.078 451.995 287.078 451.38 286.765 451.073C286.451 450.765 285.823 450.765 285.51 451.073L283 453.533L280.49 451.073C280.177 450.765 279.549 450.765 279.235 451.073C278.922 451.38 278.922 451.995 279.235 452.303L281.745 454.763L279.235 457.223C278.922 457.53 278.922 458.145 279.235 458.452C279.549 458.76 280.177 458.76 280.49 458.452L283 455.993L285.51 458.452C285.823 458.76 286.451 458.76 286.765 458.452C287.078 458.145 287.078 457.53 286.765 457.223Z" fill="white"/>
<g opacity="0.6">
<path d="M320.932 15.7554C330.358 -5.36657 319.45 -29.5432 296.568 -38.2446C273.686 -46.9461 247.495 -36.8773 238.068 -15.7553C228.642 5.36662 239.55 29.5432 262.432 38.2447C285.314 46.9461 311.505 36.8773 320.932 15.7554Z" stroke="white" stroke-width="2" stroke-miterlimit="10"/>
<path d="M263.337 24.5171C263.337 26.6114 261.635 28.1822 259.367 28.1822C257.098 28.1822 255.396 26.6114 255.396 24.5171C255.396 22.4227 257.098 20.852 259.367 20.852C261.352 20.5902 263.337 22.4227 263.337 24.5171Z" stroke="white" stroke-width="2" stroke-miterlimit="10"/>
<path d="M320.629 16.6633C317.793 14.5689 314.389 13.5217 310.702 13.5217C301.911 13.5217 294.537 20.0666 294.537 28.444C294.537 32.1091 295.955 35.2507 298.224 37.8686C308.15 33.4181 316.091 25.826 320.629 16.6633Z" stroke="white" stroke-width="2" stroke-miterlimit="10"/>
</g>
<path d="M0.104525 584.436C8.69889 584.436 15.8843 588.747 17.7159 594.559C21.9427 587.67 31.3824 582.842 42.4423 582.842C51.0367 582.842 58.7153 585.795 63.6465 590.341C68.155 584.155 77.172 579.89 87.5275 579.89C97.1081 579.89 105.491 583.498 110.281 588.982C113.452 586.217 118.312 584.436 123.666 584.436C130.358 584.436 136.205 587.201 139.094 591.278C146.843 583.498 159.382 578.437 173.542 578.437C186.997 578.437 198.972 582.983 206.721 590.06C210.455 584.717 218.134 581.061 226.939 581.061C236.027 581.061 243.846 584.951 247.509 590.528C250.82 587.67 255.752 585.889 261.317 585.889C268.714 585.889 275.054 589.075 277.872 593.668C281.323 585.654 291.538 579.89 303.655 579.89C314.221 579.89 323.45 584.342 327.818 590.763C330.001 588.326 333.735 586.732 337.962 586.732C341.554 586.732 344.795 587.904 347.049 589.732C352.685 581.577 364.308 576 377.693 576C396.643 576 412 587.154 412 600.932V653L-18 653L-18 597.605C-18 590.341 -9.89875 584.436 0.104525 584.436Z" fill="white"/>
<g opacity="0.5">
<path d="M297.344 399.652C297.344 397.501 299.117 395.619 301.144 395.619C303.17 395.619 304.944 397.501 304.944 399.652C304.944 401.803 303.17 403.686 301.144 403.686C298.864 403.686 297.344 401.803 297.344 399.652Z" fill="white"/>
<path d="M322.804 359.586C322.804 357.435 324.578 355.553 326.604 355.553C328.631 355.553 330.404 357.435 330.404 359.586C330.404 361.738 328.631 363.62 326.604 363.62C324.324 363.62 322.804 361.738 322.804 359.586Z" fill="white"/>
</g>
<g opacity="0.5">
<path d="M41.4209 55.9184C41.4209 57.8993 40.0168 59.6326 38.4121 59.6326C36.8074 59.6326 35.4033 57.8993 35.4033 55.9184C35.4033 53.9374 36.8074 52.2041 38.4121 52.2041C40.2174 52.2041 41.4209 53.9374 41.4209 55.9184Z" fill="white"/>
<path d="M5.31579 20.3673C5.31579 23.9331 3.04632 26.7347 0.157895 26.7347C-2.73053 26.7347 -5 23.9331 -5 20.3673C-5 16.8016 -2.73053 14 0.157895 14C3.04632 14 5.31579 16.8016 5.31579 20.3673Z" fill="white"/>
<path d="M13.9123 111.633C13.9123 113.897 12.3077 115.878 10.4738 115.878C8.63983 115.878 7.03516 113.897 7.03516 111.633C7.03516 109.369 8.63983 107.388 10.4738 107.388C12.5369 107.388 13.9123 109.369 13.9123 111.633Z" fill="white"/>
</g>
</svg>
