<svg width="56" height="56" viewBox="0 0 56 56" fill="none" xmlns="http://www.w3.org/2000/svg">
<rect width="56" height="56" rx="8" fill="#EBF0FF"/>
<g clip-path="url(#clip0_648_1229)">
<path d="M38.6666 24V21.3333C38.6666 19.8666 37.4666 18.6666 35.9999 18.6666H31.9999C31.9999 16.4533 30.2133 14.6666 27.9999 14.6666C25.7866 14.6666 23.9999 16.4533 23.9999 18.6666H19.9999C18.5333 18.6666 17.3333 19.8666 17.3333 21.3333V24C15.1199 24 13.3333 25.7866 13.3333 28C13.3333 30.2133 15.1199 32 17.3333 32V37.3333C17.3333 38.8 18.5333 40 19.9999 40H35.9999C37.4666 40 38.6666 38.8 38.6666 37.3333V32C40.8799 32 42.6666 30.2133 42.6666 28C42.6666 25.7866 40.8799 24 38.6666 24ZM21.9999 27.3333C21.9999 26.2266 22.8933 25.3333 23.9999 25.3333C25.1066 25.3333 25.9999 26.2266 25.9999 27.3333C25.9999 28.44 25.1066 29.3333 23.9999 29.3333C22.8933 29.3333 21.9999 28.44 21.9999 27.3333ZM33.3333 34.6666H22.6666V32H33.3333V34.6666ZM31.9999 29.3333C30.8933 29.3333 29.9999 28.44 29.9999 27.3333C29.9999 26.2266 30.8933 25.3333 31.9999 25.3333C33.1066 25.3333 33.9999 26.2266 33.9999 27.3333C33.9999 28.44 33.1066 29.3333 31.9999 29.3333Z" fill="#282C97"/>
</g>
<defs>
<clipPath id="clip0_648_1229">
<rect width="32" height="32" fill="white" transform="translate(12 12)"/>
</clipPath>
</defs>
</svg>
