<svg width="56" height="56" viewBox="0 0 56 56" fill="none" xmlns="http://www.w3.org/2000/svg">
<rect width="56" height="56" rx="8" fill="#E9F9EB"/>
<g clip-path="url(#clip0_648_5306)">
<path d="M28.0001 14.6666C20.6401 14.6666 14.6667 20.64 14.6667 28C14.6667 35.36 20.6401 41.3333 28.0001 41.3333C35.3601 41.3333 41.3334 35.36 41.3334 28C41.3334 20.64 35.3601 14.6666 28.0001 14.6666ZM29.1734 35.68V37.3333H26.8401V35.6133C25.8534 35.3733 23.6534 34.5866 22.8134 31.6666L25.0134 30.7733C25.0934 31.0666 25.7867 33.56 28.2134 33.56C29.4534 33.56 30.8534 32.92 30.8534 31.4133C30.8534 30.1333 29.9201 29.4666 27.8134 28.7066C26.3467 28.1866 23.3467 27.3333 23.3467 24.2933C23.3467 24.16 23.3601 21.0933 26.8401 20.3466V18.6666H29.1734V20.32C31.6267 20.7466 32.5201 22.7066 32.7201 23.2933L30.6134 24.1866C30.4667 23.72 29.8267 22.4 28.0801 22.4C27.1467 22.4 25.6667 22.8933 25.6667 24.2533C25.6667 25.52 26.8134 26 29.1867 26.7866C32.3867 27.8933 33.2001 29.52 33.2001 31.3866C33.2001 34.8933 29.8667 35.56 29.1734 35.68Z" fill="#23C033"/>
</g>
<defs>
<clipPath id="clip0_648_5306">
<rect width="32" height="32" fill="white" transform="translate(12 12)"/>
</clipPath>
</defs>
</svg>
