<svg width="1920" height="790" viewBox="0 0 1920 790" fill="none" xmlns="http://www.w3.org/2000/svg">
<path d="M80.8388 702.421C119.214 702.421 151.298 731.259 159.476 770.127C178.349 724.049 220.498 691.764 269.882 691.764C308.257 691.764 342.543 711.511 364.561 741.916C384.692 700.54 424.954 672.016 471.193 672.016C513.971 672.016 551.402 696.152 572.792 732.826C586.946 714.332 608.65 702.421 632.556 702.421C662.438 702.421 688.545 720.915 701.442 748.185C736.042 696.152 792.031 662.299 855.255 662.299C915.334 662.299 968.807 692.704 1003.41 740.035C1020.08 704.302 1054.36 679.853 1093.68 679.853C1134.26 679.853 1169.17 705.869 1185.53 743.17C1200.31 724.049 1222.33 712.138 1247.18 712.138C1280.21 712.138 1308.52 733.453 1321.1 764.171C1336.51 710.571 1382.12 672.016 1436.23 672.016C1483.41 672.016 1524.61 701.794 1544.12 744.737C1553.87 728.438 1570.54 717.78 1589.41 717.78C1605.45 717.78 1619.92 725.617 1629.99 737.841C1655.15 683.301 1707.05 646 1766.82 646C1851.43 646 1920 720.601 1920 812.756V1161H0V790.501C0 741.916 36.173 702.421 80.8388 702.421Z" fill="white"/>
<g opacity="0.2">
<path d="M18.201 291.919C87.1256 272.74 127.912 199.618 109.299 128.596C90.6863 57.5745 19.7233 15.5476 -49.2012 34.7266C-118.126 53.9055 -158.911 127.028 -140.299 198.049C-121.686 269.071 -50.7235 311.098 18.201 291.919Z" stroke="white" stroke-width="2" stroke-miterlimit="10"/>
<path d="M-18.388 124.173C-47.9671 141.106 -77.9114 161.049 -107.856 170.456C-121.002 174.595 -132.687 176.477 -144.008 177.229C-142.912 187.765 -140.721 198.301 -137.07 208.461C-127.575 209.59 -117.715 210.342 -104.934 208.085C-73.8945 202.817 -35.5511 178.734 -0.49436 158.791C34.1972 138.472 76.5575 122.291 106.137 127.559C107.232 127.559 107.962 127.936 109.058 127.936C107.962 124.173 106.867 120.41 105.771 117.023C102.85 109.121 99.5634 101.596 95.5464 94.4463C88.9733 92.5649 81.6697 91.436 72.1752 91.436C44.7871 91.8123 10.826 106.864 -18.388 124.173Z" stroke="white" stroke-width="2" stroke-miterlimit="10"/>
<path d="M-91.4244 124.926C-68.7836 115.519 -41.0304 110.627 -15.4682 104.606C10.4592 98.5858 37.8474 89.555 54.2802 76.7613C60.8534 71.4933 65.2355 66.9779 68.8872 62.4624C64.8703 58.6996 60.1229 55.313 55.7408 52.3027C39.308 66.6016 9.72902 77.8902 -18.0242 84.287C-48.3337 91.8127 -83.0254 98.5859 -104.936 109.874C-117.352 116.271 -123.56 122.668 -131.228 129.441C-134.515 132.452 -138.532 135.838 -142.549 139.225C-143.644 146.374 -144.375 153.524 -144.74 160.673C-129.037 146.374 -115.891 135.086 -91.4244 124.926Z" stroke="white" stroke-width="2" stroke-miterlimit="10"/>
<path d="M41.8647 182.121C66.6966 173.467 93.7195 162.178 113.074 150.513C112.709 145.622 111.978 140.73 110.883 135.462C91.1633 146.75 66.3313 157.663 42.9602 165.941C9.36415 177.982 -28.6139 190.776 -54.1761 204.698C-68.7831 212.6 -76.4518 218.997 -85.9463 226.147C-93.9801 232.544 -103.84 239.693 -114.795 247.971C-112.604 250.605 -110.413 253.239 -107.857 255.873C-87.7722 240.069 -71.3392 227.652 -42.4905 214.106C-17.2934 202.064 13.3811 192.281 41.8647 182.121Z" stroke="white" stroke-width="2" stroke-miterlimit="10"/>
<path d="M-131.958 106.112C-102.379 98.2096 -67.6879 76.7613 -35.9177 58.6996C-19.4849 48.9162 -0.860889 40.2616 16.6675 34.241C-7.7992 27.8442 -34.4569 28.5968 -60.0191 38.0039C-92.8848 50.7976 -118.082 75.6325 -131.958 106.112Z" stroke="white" stroke-width="2" stroke-miterlimit="10"/>
<path d="M13.3801 213.729C-16.199 230.662 -46.1433 250.605 -76.0876 260.012C-83.7563 262.646 -91.0597 264.151 -97.998 265.28C-83.7563 277.321 -67.3234 286.352 -49.795 291.244C-23.8676 281.461 4.61601 263.775 31.2737 248.724C53.1842 235.93 78.016 225.018 101.022 219.75C106.5 207.709 110.151 194.915 111.977 181.745C109.421 181.369 106.865 181.369 103.943 181.369C76.9204 181.745 42.594 196.796 13.3801 213.729Z" stroke="white" stroke-width="2" stroke-miterlimit="10"/>
<path d="M-20.2163 296.136C-4.14864 296.888 12.6495 294.254 28.7171 288.234C50.2624 279.955 68.5211 266.409 82.7629 249.476C72.9032 249.476 63.0435 249.852 50.6276 253.991C28.7171 260.765 3.88519 278.074 -20.2163 296.136Z" stroke="white" stroke-width="2" stroke-miterlimit="10"/>
</g>
<g opacity="0.2">
<path d="M1732.73 255.836C1735.67 250.721 1738.94 245.606 1743.19 241.093C1775.88 203.483 1835.7 197.165 1876.89 227.554C1917.75 257.642 1924.62 312.703 1891.6 350.613C1887.68 355.127 1883.76 359.038 1879.18 362.348" stroke="white" stroke-width="2" stroke-miterlimit="10"/>
<path d="M1845.84 379.197C1816.74 387.621 1783.73 382.807 1758.23 363.852C1732.73 344.897 1720.64 316.614 1722.92 288.632" stroke="white" stroke-width="2" stroke-miterlimit="10"/>
<path d="M1902.72 334.667C1918.41 351.817 1925.6 365.357 1921.02 370.471C1911.87 381.002 1858.26 356.029 1801.71 314.207C1745.15 272.385 1706.58 229.961 1715.73 219.129C1720.31 213.713 1736 217.324 1757.57 227.554L1765.09 222.439C1701.02 183.324 1649.7 164.068 1638.26 177.006C1622.89 194.758 1687.62 265.765 1782.75 335.87C1877.87 405.975 1967.44 448.399 1982.81 430.647C1994.25 417.71 1962.21 375.586 1906.64 326.543" stroke="white" stroke-width="2" stroke-miterlimit="10"/>
</g>
</svg>
