<svg width="359" height="584" viewBox="0 0 359 584" fill="none" xmlns="http://www.w3.org/2000/svg">
<path d="M-13.2323 571.38C-4.79783 571.38 2.25393 577.707 4.05145 586.236C8.19954 576.125 17.4636 569.041 28.3178 569.041C36.7523 569.041 44.288 573.374 49.1275 580.046C53.5521 570.967 62.4014 564.708 72.5642 564.708C81.9666 564.708 90.1936 570.004 94.8948 578.051C98.0059 573.993 102.776 571.38 108.03 571.38C114.598 571.38 120.337 575.438 123.171 581.421C130.776 570.004 143.082 562.576 156.978 562.576C170.183 562.576 181.936 569.248 189.541 579.633C193.205 571.792 200.74 566.428 209.382 566.428C218.301 566.428 225.975 572.136 229.57 580.321C232.819 576.125 237.659 573.512 243.12 573.512C250.379 573.512 256.602 578.189 259.367 584.929C262.755 573.168 272.779 564.708 284.67 564.708C295.041 564.708 304.097 571.242 308.384 580.665C310.527 577.088 314.191 574.75 318.339 574.75C321.865 574.75 325.045 576.469 327.258 579.152C332.788 567.184 344.196 559 357.331 559C375.929 559 391 575.369 391 595.589V672H-31V590.706C-31 580.046 -23.0495 571.38 -13.2323 571.38Z" fill="white"/>
<g opacity="0.2">
<path d="M8.62855 101.309C22.4511 94.6853 30.6305 69.4329 26.8978 44.906C23.1651 20.379 8.93383 5.86523 -4.88867 12.4886C-18.7112 19.1119 -26.8906 44.3643 -23.1579 68.8912C-19.4252 93.4182 -5.19395 107.932 8.62855 101.309Z" stroke="white" stroke-width="2" stroke-miterlimit="10"/>
<path d="M1.29112 43.378C-4.64084 49.2257 -10.646 56.1129 -16.6512 59.3616C-19.2876 60.7911 -21.6311 61.4408 -23.9014 61.7007C-23.6817 65.3393 -23.2423 68.9778 -22.5099 72.4864C-20.6059 72.8763 -18.6286 73.1361 -16.0654 72.3565C-9.84046 70.5372 -2.15086 62.2205 4.87961 55.3333C11.8368 48.316 20.332 42.7283 26.264 44.5475C26.4837 44.5475 26.6301 44.6775 26.8498 44.6775C26.6301 43.378 26.4104 42.0785 26.1907 40.909C25.6048 38.1801 24.9457 35.5811 24.1402 33.1121C22.8219 32.4624 21.3572 32.0725 19.4532 32.0725C13.9606 32.2025 7.14985 37.4004 1.29112 43.378Z" stroke="white" stroke-width="2" stroke-miterlimit="10"/>
<path d="M-13.3562 43.6381C-8.81567 40.3894 -3.24989 38.7001 1.87649 36.6209C7.07611 34.5417 12.5687 31.423 15.8642 27.0047C17.1824 25.1855 18.0613 23.6261 18.7936 22.0667C17.988 20.7672 17.0359 19.5977 16.1571 18.5581C12.8616 23.4961 6.92968 27.3946 1.36389 29.6037C-4.71454 32.2027 -11.6718 34.5417 -16.0659 38.4402C-18.5558 40.6493 -19.8008 42.8584 -21.3387 45.1975C-21.9978 46.2371 -22.8034 47.4066 -23.609 48.5761C-23.8287 51.0451 -23.9751 53.5142 -24.0483 55.9832C-20.8993 51.0452 -18.2629 47.1467 -13.3562 43.6381Z" stroke="white" stroke-width="2" stroke-miterlimit="10"/>
<path d="M13.3739 63.3904C18.3538 60.4016 23.7732 56.5032 27.6546 52.4748C27.5813 50.7855 27.4349 49.0961 27.2152 47.2769C23.2605 51.1753 18.2806 54.9438 13.5936 57.8027C6.85609 61.961 -0.760235 66.3793 -5.88662 71.1873C-8.81598 73.9163 -10.3539 76.1254 -12.258 78.5944C-13.8691 80.8035 -15.8464 83.2725 -18.0435 86.1314C-17.6041 87.041 -17.1647 87.9507 -16.652 88.8603C-12.6242 83.4025 -9.32861 79.1142 -3.54312 74.436C1.51003 70.2777 7.66167 66.8991 13.3739 63.3904Z" stroke="white" stroke-width="2" stroke-miterlimit="10"/>
<path d="M-21.4854 37.1411C-15.5534 34.4122 -8.59616 27.0051 -2.2248 20.7676C1.07073 17.389 4.80569 14.4002 8.32092 12.321C3.41424 10.1119 -1.93185 10.3718 -7.05823 13.6205C-13.6493 18.0387 -18.7025 26.6153 -21.4854 37.1411Z" stroke="white" stroke-width="2" stroke-miterlimit="10"/>
<path d="M7.66158 74.3059C1.72963 80.1536 -4.27557 87.0408 -10.2808 90.2895C-11.8187 91.1992 -13.2834 91.719 -14.6748 92.1088C-11.8187 96.2672 -8.52313 99.3859 -5.0079 101.075C0.191719 97.6966 5.90398 91.589 11.2501 86.3911C15.6441 81.9729 20.624 78.2044 25.2378 76.3851C26.3363 72.2267 27.0686 67.8085 27.4348 63.2603C26.9221 63.1304 26.4095 63.1304 25.8236 63.1304C20.4043 63.2603 13.5203 68.4582 7.66158 74.3059Z" stroke="white" stroke-width="2" stroke-miterlimit="10"/>
<path d="M0.924316 102.765C4.14662 103.025 7.5154 102.115 10.7377 100.036C15.0585 97.1769 18.7202 92.4988 21.5763 86.6511C19.599 86.6511 17.6217 86.7811 15.1317 88.2105C10.7377 90.5496 5.75776 96.5272 0.924316 102.765Z" stroke="white" stroke-width="2" stroke-miterlimit="10"/>
</g>
</svg>
