<svg width="349" height="397" viewBox="0 0 349 397" fill="none" xmlns="http://www.w3.org/2000/svg">
<path d="M2.96881 394.31H346.031C346.031 384.08 345.132 373.81 343.279 363.62C340.017 345.631 333.788 327.87 324.43 310.994C309.784 284.668 289.257 263.698 265.374 248.823C261.534 246.42 257.601 244.192 253.6 242.111C232.04 230.928 208.304 224.403 184.032 223.047C183.817 223.034 183.602 223.007 183.387 223.007C181.911 222.926 180.42 222.873 178.917 222.832C175.95 222.752 172.983 222.752 170.029 222.819C149.892 223.316 129.62 227.397 110.181 235.304C103.764 237.895 97.4137 240.916 91.2113 244.38C89.8688 245.118 88.5532 245.87 87.2375 246.662C86.4455 247.118 85.6534 247.602 84.8882 248.085C32.4501 280.171 3.02252 336.408 2.96881 394.31Z" fill="#F1C900"/>
<path d="M329.183 368.829C325.921 350.84 319.692 333.079 310.334 316.203C295.688 289.877 275.161 268.907 251.278 254.032C247.438 251.629 243.505 249.401 239.504 247.32C217.943 236.137 194.208 229.612 169.936 228.256C169.721 228.243 169.506 228.216 169.291 228.216C167.815 228.135 166.324 228.082 164.821 228.041C161.854 227.961 158.887 227.961 155.933 228.028C140.535 228.417 125.069 230.901 109.939 235.573C110.691 235.264 111.43 234.942 112.181 234.647C131.634 226.739 151.892 222.658 172.03 222.161C174.983 222.094 177.95 222.094 180.917 222.175C182.421 222.202 183.898 222.269 185.388 222.349C185.603 222.349 185.817 222.376 186.032 222.39C210.305 223.745 234.04 230.257 255.601 241.453C259.601 243.534 263.535 245.762 267.374 248.166C291.257 263.04 311.784 284.01 326.431 310.337C335.788 327.212 342.017 344.96 345.28 362.963C347.146 373.152 348.032 383.422 348.032 393.652H331.814C331.546 385.369 330.687 377.072 329.183 368.829Z" fill="#FCAC38"/>
<path d="M103.041 300.932C101.924 292.741 115.781 284.088 133.993 281.605C152.204 279.122 167.873 283.749 168.989 291.94C170.106 300.131 156.249 308.784 138.037 311.267C119.826 313.751 104.158 309.124 103.041 300.932Z" fill="#F1C900"/>
<path d="M22.556 394.31H62.9384C56.4675 382.926 47.3654 375.233 38.8808 375.22C30.5036 375.206 24.3549 382.953 22.556 394.31Z" fill="#FCAC38"/>
<path d="M251.426 306.324C242.029 305.721 234.827 298.737 235.341 290.723C235.854 282.709 243.889 276.701 253.286 277.303C262.684 277.905 269.885 284.89 269.372 292.904C268.858 300.918 260.824 306.926 251.426 306.324Z" fill="#FCAC38"/>
<path d="M245.023 306.384C238.389 303.928 234.618 297.598 236.6 292.244C238.582 286.89 245.565 284.54 252.199 286.995C258.832 289.45 262.603 295.781 260.622 301.135C258.64 306.489 251.656 308.839 245.023 306.384Z" fill="#F1C900"/>
<path d="M251.841 307.786C259.413 308.833 268.059 304.886 271.066 297.502C274.449 289.528 269.804 280.614 262.407 276.989C252.016 271.404 236.107 275.74 233.61 288.239C233.06 291.139 233.449 294.146 234.725 296.764C235.127 297.637 235.691 298.402 236.201 299.18C236.389 299.476 236.792 299.556 237.087 299.355C237.383 299.167 237.45 298.778 237.289 298.482C235.691 295.421 235.248 291.931 236.228 288.83C239.155 279.07 252.177 276.17 260.447 280.748C270.046 285.809 270.986 297.475 261.521 303.315C258.729 305.074 255.372 306 251.922 306.188C250.942 306.242 250.902 307.665 251.841 307.786Z" fill="#091A3F"/>
<path d="M230.335 281.486C225.381 287.219 224.656 296.079 228.254 302.778C231.718 309.638 238.645 314.27 245.988 315.948C253.318 317.626 261.306 316.633 267.75 312.659C274.141 308.913 278.866 301.731 278.463 294.227C278.41 293.448 277.282 293.421 277.188 294.186C276.745 297.569 275.456 300.724 273.483 303.356C264.354 315.331 244.632 315.425 234.456 304.805C231.154 301.328 229.046 296.67 229.059 291.837C229.033 288.601 229.986 285.339 231.65 282.399C232.12 281.567 230.952 280.748 230.335 281.486Z" fill="#091A3F"/>
<path d="M285.431 376.307C287.002 384.04 291.338 390.403 297.017 394.31H323.437C331.438 388.497 335.708 377.569 333.425 366.305C330.431 351.498 317.262 341.724 303.998 344.49C290.747 347.255 282.437 361.499 285.431 376.307Z" fill="#FCAC38"/>
<path d="M288.317 381.597C290.908 387.275 294.896 391.625 299.46 394.324H313.825C320.98 386.282 322.726 372.937 317.342 361.11C313.865 353.498 308.119 348.021 301.715 345.416C300.104 345.765 298.507 346.329 296.976 347.148C286.142 352.894 282.263 368.306 288.317 381.597Z" fill="#F1C900"/>
<path d="M327.505 394.74C330.123 393.424 332.136 390.927 333.036 388.161C333.277 387.409 332.297 386.846 331.76 387.409C330.78 388.403 329.935 389.396 329.035 390.35C328.243 391.222 327.115 392.377 326.364 393.29C325.746 394.041 326.632 395.156 327.505 394.74Z" fill="#091A3F"/>
<path d="M205.539 395.236C209.606 391.397 211.969 386.134 213.419 380.831C213.876 379.073 214.238 377.3 214.399 375.488C214.439 375.126 214.171 374.803 213.809 374.763C213.527 374.736 213.272 374.897 213.151 375.126L210.828 379.838C208.559 384.375 205.982 388.752 202.881 392.753C201.538 394.538 203.887 396.7 205.539 395.236Z" fill="#091A3F"/>
<path d="M107.053 364.251C104.757 374.696 106.462 386.416 113.054 395.035C114.464 396.914 117.31 394.995 116.101 392.981C114.772 390.833 113.524 388.685 112.49 386.456C110.409 381.959 109.416 376.965 108.798 372.038C108.516 369.527 108.355 366.977 108.328 364.386C108.315 363.647 107.201 363.513 107.053 364.251Z" fill="#091A3F"/>
<path d="M144.039 394.31H178.192C187.469 389.007 194.127 379.462 195.322 368.01C197.282 349.122 183.575 332.233 164.673 330.259C145.784 328.299 128.895 342.02 126.922 360.909C125.485 374.884 132.601 387.759 144.039 394.31Z" fill="#FCAC38"/>
<path d="M125.472 373.072C126.976 382.08 132.507 389.611 140.132 394.31H177.735C184.569 390.054 189.482 383.597 191.51 376.2C186.421 359.835 168.835 349.054 150.147 351.618C139.595 353.082 130.775 358.479 125.163 365.97C124.989 368.292 125.069 370.682 125.472 373.072Z" fill="#F1C900"/>
<path d="M156.725 330.649C141.945 331.884 128.211 343.778 126.331 358.841C124.398 371.206 131.003 384.013 141.528 390.511C156.887 400.432 178.689 397.371 190.154 382.952C199.981 371.018 199.578 353.364 188.757 342.208C188.126 341.563 187.12 342.449 187.683 343.147C189.831 345.873 191.523 348.92 192.637 352.142C194.852 358.532 194.799 365.674 192.275 371.931C183.065 395.223 149.221 398.499 135.245 378.025C127.405 366.695 129.271 351.404 139.112 341.791C143.864 336.985 150.187 333.777 156.981 332.407C158.068 332.193 157.826 330.555 156.725 330.649Z" fill="#091A3F"/>
<path d="M109.161 300.187C103.146 296.227 98.6623 290.87 96.5009 284.373C92.5808 272.599 97.3601 260.49 107.603 250.421C114.329 243.816 123.485 238.379 134.292 235.184C161.545 227.115 188.905 236.378 195.389 255.871C197.806 263.121 196.987 270.773 193.604 277.929C187.898 290.011 174.702 299.999 157.598 305.061" fill="#F1C900"/>
<path d="M97.3736 284.091C94.2321 273.029 99.4813 261.792 107.214 253.925C122.854 238.003 147.529 231.196 169.197 236.311C179.978 238.956 190.409 245.427 194.678 256.113C194.826 256.502 195.269 256.677 195.645 256.529C195.994 256.382 196.182 256.006 196.088 255.643C195.309 252.757 194.034 249.978 192.355 247.454C187.267 239.842 178.93 234.888 170.298 232.337C142.629 224.041 104.435 237.895 94.9839 266.719C94.1381 269.659 93.6817 272.733 93.7891 275.808C93.8831 278.868 94.5275 281.889 95.6283 284.681C95.8163 285.151 96.3533 285.393 96.8231 285.205C97.2662 285.017 97.4944 284.534 97.3736 284.091Z" fill="#091A3F"/>
<path d="M107.348 276.659C104.828 261.174 120.061 245.81 141.371 242.343C162.681 238.875 181.999 248.617 184.518 264.102C187.038 279.587 171.805 294.951 150.495 298.419C129.185 301.886 109.867 292.144 107.348 276.659Z" fill="#FCAC38"/>
<path d="M115.521 265.299C114.599 253.791 128.645 243.279 146.893 241.818C165.14 240.357 180.68 248.501 181.601 260.008C182.522 271.516 168.477 282.029 150.229 283.489C131.981 284.95 116.442 276.806 115.521 265.299Z" fill="#F1C900"/>
<path d="M173.453 248.098C182.408 254.462 185.562 265.336 180.474 275.19C172.366 290.642 153.101 298.08 136.293 296.938C123.042 296.187 108.288 287.783 109.577 272.948C111.268 258.623 124.465 248.89 137.313 244.326C138.199 244.017 137.796 242.688 136.897 242.903C122.613 246.407 107.711 256.905 105.523 272.491C103.818 285.205 113.108 295.623 124.613 299.476C135.514 303.342 147.704 302.59 158.457 298.764C172.54 293.743 186.824 281.54 186.381 265.403C186.18 261.456 184.931 257.59 182.783 254.341C180.676 251.119 177.749 248.514 174.473 246.568C173.44 245.964 172.527 247.4 173.453 248.098Z" fill="#091A3F"/>
<path d="M32.4905 394.31H62.6699C57.4476 385.718 50.6277 379.985 44.3716 379.838C37.9276 379.677 33.6316 385.463 32.4905 394.31Z" fill="#F1C900"/>
<path d="M25.147 386.188C30.0874 379.596 36.9879 377.113 44.5998 379.878C51.9702 382.577 57.8637 388.349 63.1263 394.27C63.6633 394.901 64.7239 394.243 64.3883 393.478C59.4613 381.744 45.8752 369.783 32.4368 375.34C30.2485 376.307 28.3288 377.784 26.8386 379.529C25.3484 381.288 24.2207 383.248 23.536 385.329C23.3749 385.812 23.6434 386.349 24.1267 386.51C24.4892 386.631 24.9054 386.497 25.147 386.188Z" fill="#091A3F"/>
<g opacity="0.6">
<path d="M82.861 282.668C82.0152 303.396 48.1171 320.392 34.9606 374.28C29.3758 397.143 10.7419 371.044 29.0805 328.178C46.0765 288.454 83.4517 268.061 82.861 282.668Z" fill="white"/>
</g>
<g opacity="0.6">
<path d="M133.688 254.663C128.869 260.745 113.859 262.852 100.528 271.74C86.2711 281.245 76.0949 273.096 97.5749 252.931C120.478 231.438 142.763 243.198 133.688 254.663Z" fill="white"/>
</g>
<path d="M346.031 396.659C347.334 396.659 348.381 395.612 348.381 394.31C348.394 383.892 347.454 373.434 345.588 363.204C342.192 344.544 335.761 326.594 326.471 309.867C312.147 284.104 291.445 262.315 266.609 246.836C262.756 244.42 258.742 242.138 254.674 240.03C232.953 228.766 208.559 222.081 184.153 220.711L183.857 220.698C183.723 220.684 183.602 220.684 183.468 220.671C181.884 220.591 180.394 220.523 178.957 220.497C176.031 220.416 173.01 220.416 169.949 220.483C149.046 221.007 128.64 225.276 109.268 233.143C102.73 235.788 96.2458 238.889 90.03 242.339C88.7278 243.064 87.3584 243.843 86.0025 244.662C85.2104 245.118 84.4184 245.615 83.6263 246.111C57.9577 261.805 36.7327 284.01 22.2471 310.323C8.13745 335.952 0.659729 364.936 0.606018 394.176C0.606018 394.793 0.847687 395.397 1.29071 395.84C1.73373 396.284 2.32443 396.525 2.95541 396.525L346.031 396.659ZM174.339 225.128C175.869 225.128 177.373 225.155 178.863 225.182C180.259 225.209 181.696 225.276 183.267 225.356L183.575 225.37C183.696 225.383 183.817 225.383 183.924 225.383C207.646 226.712 231.382 233.21 252.513 244.178C256.473 246.232 260.366 248.461 264.125 250.797C288.29 265.846 308.428 287.058 322.363 312.122C331.398 328.407 337.668 345.859 340.97 364.023C342.635 373.206 343.548 382.577 343.669 391.934L5.33163 391.8C6.21768 333.401 36.2897 280.547 86.0965 250.085C86.8617 249.602 87.6269 249.132 88.4055 248.689C89.7346 247.897 91.0771 247.145 92.3391 246.434C98.3803 243.077 104.677 240.057 111.054 237.479C129.889 229.813 149.744 225.665 170.083 225.155C171.506 225.155 172.929 225.128 174.339 225.128Z" fill="#091A3F"/>
<path d="M95.4806 189.726C95.8431 197.365 96.7292 204.534 98.1925 210.307C99.3605 214.871 103.026 218.335 107.657 219.194C112.826 220.161 120.76 220.778 131.299 219.1L138.884 125.555C138.884 125.555 130.587 124.817 121.74 125.985C115.605 126.803 109.201 128.522 105.08 132.053C98.2193 137.933 94.3664 166.098 95.4806 189.726Z" fill="white"/>
<path d="M118.598 222.295C122.371 222.295 126.721 222 131.634 221.221C132.614 221.06 133.353 220.268 133.433 219.275L141.018 125.729C141.112 124.561 140.24 123.528 139.072 123.42C138.723 123.393 130.439 122.668 121.445 123.863C113.51 124.91 107.536 127.126 103.67 130.428C95.8565 137.114 92.2183 166.461 93.3326 189.82C93.7085 197.916 94.6751 205.179 96.1116 210.83C97.4809 216.174 101.844 220.282 107.254 221.302C110.047 221.826 113.859 222.295 118.598 222.295ZM129.298 217.234C119.646 218.577 112.463 217.919 108.046 217.1C104.274 216.388 101.227 213.529 100.273 209.783C98.904 204.413 97.9911 197.432 97.6286 189.632C96.474 165.306 100.69 138.644 106.476 133.704C109.698 130.952 114.933 129.072 122.022 128.132C127.915 127.354 133.608 127.448 136.575 127.582L129.298 217.234Z" fill="#091A3F"/>
<g opacity="0.2">
<path d="M95.4805 189.726C95.843 197.365 96.7291 204.534 98.1924 210.307C99.3604 214.871 103.025 218.335 107.657 219.194C112.826 220.161 120.76 220.778 131.298 219.1L138.884 125.555C138.884 125.555 130.587 124.817 121.74 125.985C130.036 136.765 154.336 174.945 95.4805 189.726Z" fill="#091A3F"/>
</g>
<path d="M110.611 201.93C113.591 201.93 116.262 199.822 116.867 196.802C117.363 194.318 117.672 191.727 117.806 189.122C117.86 187.941 116.947 186.934 115.766 186.88C114.584 186.827 113.577 187.726 113.524 188.921C113.403 191.324 113.121 193.7 112.665 195.983C112.436 197.097 111.336 197.835 110.208 197.62L103.589 196.332C102.797 196.171 102.166 195.58 101.951 194.788C99.3336 184.974 100.636 172.986 101.32 168.287C101.361 168.005 101.602 167.804 101.884 167.804C101.898 167.804 101.898 167.804 101.911 167.804C110.1 168.126 111.429 168.421 111.55 168.461C112.691 168.77 113.873 168.099 114.182 166.958C114.49 165.817 113.819 164.635 112.678 164.326C112.262 164.219 111.013 163.87 102.072 163.521C99.602 163.414 97.4406 165.212 97.0782 167.683C96.3666 172.65 94.9973 185.323 97.8031 195.902C98.4341 198.265 100.381 200.091 102.77 200.561L109.389 201.849C109.792 201.89 110.208 201.93 110.611 201.93Z" fill="#091A3F"/>
<path d="M102.368 184.262C103.509 188.881 107.966 197.916 125.445 192.801C125.445 192.801 115.685 216.536 130.641 241.238C141.864 259.778 148.08 281.366 150.483 290.991C151.758 296.079 155.034 300.496 159.679 302.94C163.183 304.792 167.506 305.611 171.936 302.899C182.139 296.63 182.233 294.106 182.233 294.012C182.233 294.012 187.804 294.334 192.355 292.602C195.215 291.528 197.672 289.635 198.101 286.373C198.128 286.212 198.142 286.064 198.155 285.903C198.424 282.144 197.336 278.962 195.416 276.546C192.772 273.176 188.529 271.27 184.18 271.27C184.18 271.27 179.024 249.602 175.131 237.573L188.489 236.956L189.268 236.929C189.268 236.929 204.223 269.766 209.915 287.648C209.915 287.648 210.614 293.287 229.046 291.77C244.163 290.521 254.822 288.843 258.46 284.507C258.474 284.494 258.474 284.48 258.487 284.467C259.266 283.527 259.722 282.466 259.816 281.258C260.353 274.425 255.265 265.43 241.397 268.679C239.276 252.206 236.161 237.305 229.368 228.256L231.932 170.207C231.932 170.207 226.616 144.914 207.204 138.577C187.804 132.241 138.212 133.704 138.212 133.704C138.212 133.704 122.774 136.295 113.497 151.828C109.308 158.849 106.543 165.669 104.771 171.012V171.025C103.428 175.08 102.663 178.288 102.274 180.128C102.019 181.484 102.032 182.907 102.368 184.262Z" fill="white"/>
<path d="M165.989 306.792C168.446 306.792 170.822 306.108 173.064 304.725C178.541 301.355 182.112 298.455 183.602 296.173C185.697 296.16 189.644 295.932 193.134 294.603C193.174 294.589 193.215 294.576 193.255 294.549C198.397 292.562 199.9 289.179 200.249 286.668C200.276 286.467 200.303 286.266 200.316 286.051C200.612 281.943 199.511 278.197 197.108 275.19C194.45 271.82 190.355 269.645 185.898 269.189C184.743 264.423 181.132 249.75 178.018 239.56L187.925 239.104C190.758 245.386 202.867 272.559 207.834 288.118C208.224 290.145 211.016 295.368 229.234 293.864C245.25 292.548 256.003 290.75 260.111 285.849C260.138 285.809 260.179 285.769 260.205 285.729C261.239 284.453 261.843 283.003 261.964 281.392C262.327 276.72 260.528 272.196 257.144 269.283C254.674 267.162 250.325 265.014 243.236 266.101C241.357 252.18 238.403 237.157 231.556 227.558L234.08 170.26C234.094 170.086 234.067 169.898 234.04 169.723C233.812 168.636 228.24 143.142 207.888 136.496C188.355 130.119 140.213 131.448 138.172 131.516C138.078 131.516 137.971 131.529 137.877 131.542C137.206 131.65 121.351 134.483 111.685 150.687C108.073 156.728 105.08 163.333 102.77 170.3C102.757 170.354 102.744 170.408 102.73 170.462C101.321 174.758 100.542 178.06 100.22 179.658C99.8572 181.376 99.884 183.094 100.3 184.773C101.025 187.74 102.824 191.794 107.187 194.318C111.04 196.533 116.088 197.03 122.223 195.808C120.048 203.702 116.894 222.631 128.828 242.352C140.079 260.919 146.281 282.923 148.429 291.515C149.879 297.314 153.624 302.174 158.699 304.846C161.156 306.148 163.613 306.792 165.989 306.792ZM180.125 293.649C179.937 294.025 178.581 296.307 170.808 301.073C167.68 302.993 164.364 302.993 160.686 301.047C156.685 298.939 153.732 295.086 152.577 290.468C149.852 279.553 143.623 258.503 132.48 240.124C118.29 216.684 127.338 193.834 127.432 193.606C127.741 192.841 127.593 191.968 127.043 191.364C126.492 190.76 125.647 190.505 124.855 190.747C118.129 192.707 112.906 192.666 109.322 190.612C106.261 188.854 104.986 185.914 104.462 183.766C104.207 182.719 104.193 181.645 104.422 180.571C104.744 179.04 105.482 175.872 106.852 171.697C106.865 171.643 106.878 171.603 106.892 171.549C109.094 164.93 111.94 158.661 115.377 152.928C123.552 139.222 137.018 136.147 138.481 135.838C141.676 135.758 188.301 134.644 206.573 140.618C223.569 146.162 229.194 167.844 229.811 170.408L227.26 228.162C227.234 228.659 227.395 229.142 227.69 229.545C234.658 238.822 237.463 254.663 239.303 268.947C239.383 269.551 239.705 270.088 240.202 270.438C240.699 270.787 241.316 270.907 241.907 270.76C247.223 269.511 251.533 270.142 254.366 272.559C257.131 274.935 257.91 278.519 257.708 281.07C257.655 281.822 257.386 282.466 256.876 283.07C256.849 283.097 256.822 283.138 256.809 283.164C253.412 287.085 241.397 288.588 228.898 289.608C214.52 290.803 212.198 287.447 212.036 287.152C212.023 287.098 212.01 287.031 211.996 286.977C206.331 269.176 191.416 236.351 191.255 236.016C190.892 235.224 190.087 234.727 189.214 234.767L188.435 234.794C188.382 234.794 188.315 234.808 188.261 234.808L175.064 235.412C174.393 235.439 173.775 235.788 173.399 236.338C173.023 236.888 172.916 237.587 173.117 238.218C176.944 250.032 182.072 271.538 182.126 271.753C182.354 272.72 183.213 273.404 184.206 273.404C187.992 273.404 191.563 275.069 193.752 277.862C195.47 280.023 196.262 282.748 196.047 285.742C196.047 285.823 196.034 285.917 196.02 286.011C196.02 286.037 196.007 286.064 196.007 286.078C195.913 286.816 195.604 289.085 191.63 290.588C191.59 290.602 191.55 290.615 191.51 290.642C187.469 292.132 182.421 291.877 182.381 291.877C181.777 291.85 181.213 292.052 180.783 292.468C180.434 292.79 180.206 293.206 180.125 293.649ZM180.098 294.012C180.098 294.012 180.098 294.025 180.098 294.012C180.098 294.025 180.098 294.012 180.098 294.012ZM212.05 287.353C212.05 287.366 212.05 287.366 212.05 287.353C212.05 287.366 212.05 287.366 212.05 287.353Z" fill="#091A3F"/>
<path d="M143.435 213.287L177.507 230.928C179.038 231.72 180.756 232.055 182.475 231.908L237.893 226.927L242.256 226.538C245.465 226.256 248.244 224.215 249.479 221.235L267.2 178.637C267.777 177.268 267.576 175.711 266.703 174.529L263.87 170.703C263.065 169.616 261.789 168.985 260.433 168.998L201.135 169.871C198.41 169.911 195.98 171.643 195.067 174.221L184.394 204.239L146.093 206.87L144.24 207.004L143.435 213.287Z" fill="#B1B1BA"/>
<g opacity="0.61">
<path d="M260.715 175.402C261.588 176.583 261.776 178.141 261.212 179.51L243.491 222.108C242.578 224.323 240.793 226.014 238.618 226.86L242.256 226.538C245.465 226.256 248.244 224.215 249.479 221.235L267.2 178.637C267.777 177.268 267.576 175.711 266.703 174.529L263.87 170.703C263.065 169.616 261.789 168.985 260.433 168.998L201.135 169.871C200.034 169.884 198.974 170.18 198.048 170.703L254.433 169.871C255.788 169.857 257.064 170.488 257.869 171.576L260.715 175.402Z" fill="white"/>
</g>
<path d="M181.669 234.083C182.005 234.083 182.34 234.069 182.676 234.042L242.457 228.672C246.472 228.31 249.922 225.773 251.479 222.054L269.2 179.456C270.046 177.416 269.764 175.026 268.448 173.241L265.616 169.414C264.407 167.777 262.434 166.797 260.42 166.837L201.122 167.71C197.511 167.763 194.275 170.086 193.067 173.482L182.864 202.171L144.119 204.843C143.099 204.91 142.267 205.689 142.146 206.709L141.327 212.992C141.206 213.892 141.663 214.751 142.468 215.167L176.541 232.807C178.125 233.667 179.884 234.083 181.669 234.083ZM260.501 171.133C261.145 171.133 261.763 171.442 262.152 171.965L264.985 175.791C265.414 176.369 265.508 177.147 265.226 177.805L247.505 220.403C246.566 222.645 244.485 224.175 242.068 224.39L182.287 229.76C180.971 229.881 179.669 229.626 178.501 229.021L145.757 212.066L146.147 209.018L184.542 206.374C185.388 206.32 186.126 205.756 186.422 204.95L197.094 174.932C197.712 173.214 199.35 172.032 201.176 172.006L260.474 171.133C260.487 171.133 260.487 171.133 260.501 171.133Z" fill="#091A3F"/>
<path d="M175.802 232.19C176.702 232.19 177.534 231.626 177.843 230.726L186.448 204.91C186.824 203.782 186.22 202.574 185.092 202.198C183.965 201.822 182.756 202.426 182.381 203.554L173.775 229.37C173.399 230.498 174.003 231.706 175.131 232.082C175.346 232.149 175.588 232.19 175.802 232.19Z" fill="#091A3F"/>
<path d="M178.098 224.779C178.702 224.779 179.279 224.444 179.561 223.866C179.964 223.061 179.629 222.081 178.823 221.692L145.932 205.461C145.126 205.058 144.146 205.394 143.757 206.199C143.354 207.005 143.69 207.985 144.495 208.374L177.387 224.605C177.615 224.726 177.856 224.779 178.098 224.779Z" fill="#091A3F"/>
<path d="M189.281 232.901C189.482 232.901 189.697 232.888 189.899 232.874C190.798 232.781 191.442 231.988 191.348 231.089C191.255 230.189 190.449 229.545 189.563 229.639C188.65 229.733 187.791 229.371 187.2 228.659C186.623 227.934 186.462 227.021 186.757 226.149L201.283 182.732C201.927 180.785 203.74 179.483 205.794 179.483L262.407 178.49C263.078 178.476 263.682 178.785 264.072 179.322C264.461 179.873 264.555 180.544 264.327 181.175L263.924 182.303C263.615 183.148 264.058 184.075 264.904 184.383C265.75 184.679 266.676 184.249 266.985 183.403L267.388 182.276C267.965 180.651 267.71 178.839 266.703 177.429C265.696 176.02 264.045 175.187 262.34 175.241L205.754 176.234C202.33 176.234 199.283 178.436 198.195 181.698L183.669 225.115C183.025 227.035 183.401 229.115 184.663 230.7C185.804 232.096 187.495 232.901 189.281 232.901Z" fill="#091A3F"/>
<path d="M195.524 172.583L201.31 177.523L198.101 170.623C196.812 168.246 193.59 170.703 195.524 172.583Z" fill="#091A3F"/>
<g opacity="0.2">
<path d="M143.435 213.126L177.507 230.767C179.038 231.559 180.756 231.895 182.475 231.747L237.893 226.766L237.933 226.699C235.329 225.907 195.457 221.141 201.31 179.524L195.457 176.677L183.508 206.763C183.508 206.763 179.306 222.309 162.941 214.872C155.625 211.542 150.04 208.763 146.106 206.696L144.254 206.83L143.435 213.126Z" fill="#091A3F"/>
</g>
<path d="M183.992 269.135C176.514 270.787 169.506 274.17 163.438 278.774C165.116 277.969 166.794 277.19 168.539 276.573C173.601 274.72 179.024 273.525 184.394 273.404C187.509 273.284 187.093 268.679 183.992 269.135Z" fill="#091A3F"/>
<path d="M183.253 292.132C180.085 291.3 176.997 291.448 173.815 291.448C175.829 292.441 177.816 293.475 179.682 294.696C180.273 295.086 180.864 295.515 181.226 295.905C182.072 296.831 183.495 296.898 184.421 296.052C185.817 294.79 185.079 292.481 183.253 292.132Z" fill="#091A3F"/>
<path d="M240.806 266.611C236.537 268.692 232.174 270.612 228.294 273.324C229.395 272.921 230.536 272.666 231.664 272.424C235.074 271.713 238.564 271.189 242.001 270.733C243.196 270.585 244.028 269.484 243.867 268.303C243.719 266.853 242.108 265.98 240.806 266.611Z" fill="#091A3F"/>
<path d="M200.451 263C201.458 263 202.357 262.288 202.558 261.268C203.914 254.314 208.009 248.622 214.064 245.252C220.36 241.762 228.026 241.171 234.577 243.668C235.678 244.098 236.926 243.534 237.343 242.433C237.759 241.332 237.208 240.084 236.107 239.667C228.388 236.714 219.367 237.399 211.983 241.507C204.787 245.494 199.941 252.22 198.343 260.449C198.115 261.617 198.88 262.732 200.035 262.96C200.169 262.987 200.316 263 200.451 263Z" fill="#091A3F"/>
<path d="M189.281 239.05C189.751 239.05 190.207 238.902 190.597 238.607C191.778 237.962 199.417 234.794 206.291 232.029C207.391 231.586 207.928 230.337 207.485 229.236C207.042 228.135 205.794 227.598 204.693 228.041C188.395 234.579 188.033 235.036 187.616 235.559C186.878 236.486 187.026 237.828 187.952 238.58C188.341 238.902 188.811 239.05 189.281 239.05Z" fill="#091A3F"/>
<path d="M142.575 264.625C143.287 264.625 143.999 264.262 144.401 263.618C148.523 256.986 159.907 242.366 176.608 249.709C177.695 250.179 178.957 249.696 179.441 248.609C179.91 247.521 179.427 246.259 178.34 245.776C164.619 239.735 150.577 245.561 140.763 261.349C140.132 262.356 140.441 263.671 141.448 264.302C141.797 264.531 142.186 264.625 142.575 264.625Z" fill="#091A3F"/>
<path d="M149.677 195.566C150.483 195.566 151.315 195.472 152.174 195.258C156.564 194.157 160.753 192.237 163.666 189.968C166.257 187.954 167.721 184.84 167.68 181.537C169.197 182.839 170.674 184.048 171.399 184.504C172.822 185.404 174.742 185.31 176.313 184.262C177.36 183.564 179.709 181.416 178.877 176.503C177.762 169.911 165.022 162.89 162.485 161.547C159.37 159.896 147.382 160.809 142.186 161.292L130.721 160.621C130.587 160.608 130.439 160.621 130.305 160.634C124.492 161.44 119.82 165.226 117.511 171.039C114.504 178.57 115.981 187.74 121.283 194.372C122.022 195.298 123.378 195.446 124.291 194.707C124.304 194.694 124.331 194.68 124.344 194.653C124.801 194.935 125.378 195.029 125.942 194.895L140.642 191.391C142.186 192.922 145.448 195.566 149.677 195.566ZM164.66 173.885C164.297 173.885 163.935 173.979 163.612 174.153C162.807 174.596 162.391 175.509 162.552 176.409L163.29 180.436C163.72 182.813 162.861 185.162 161.048 186.572C158.618 188.465 154.913 190.156 151.141 191.096C146.737 192.197 143.112 187.726 143.072 187.672C142.562 187.028 141.703 186.719 140.897 186.921L124.962 190.72C124.667 190.787 124.411 190.921 124.183 191.082C120.263 185.753 119.176 178.436 121.498 172.623C123.23 168.287 126.492 165.561 130.694 164.904L142.106 165.575C142.213 165.575 142.32 165.575 142.428 165.575C149.906 164.863 158.954 164.608 160.498 165.333C166.969 168.743 174.124 174.073 174.661 177.214C174.916 178.718 174.728 179.926 174.151 180.53C173.923 180.772 173.708 180.826 173.614 180.839C172.473 180.06 168.445 176.543 166.096 174.449C165.68 174.073 165.17 173.885 164.66 173.885Z" fill="#091A3F"/>
<path d="M142.535 190.156L146.267 185.041L145.18 184.84L147.516 188.559L146.402 184.316C146.254 183.806 145.663 183.752 145.314 184.115L140.213 187.887C138.293 189.458 140.951 192.103 142.535 190.156Z" fill="#091A3F"/>
<path d="M145.22 164.125L147.516 154.325L141.663 162.514L145.22 164.125Z" fill="#091A3F"/>
<path d="M212.198 168.998L210.251 159.856L208.304 168.998H212.198Z" fill="#091A3F"/>
<path d="M195.134 174.516C196.289 174.516 197.229 173.603 197.282 172.448C197.323 171.267 196.396 170.274 195.215 170.233L173.869 169.455C172.674 169.414 171.694 170.341 171.654 171.522C171.614 172.703 172.54 173.697 173.721 173.737L195.067 174.516C195.081 174.516 195.107 174.516 195.134 174.516Z" fill="#091A3F"/>
<path d="M186.65 199.876C187.697 199.876 188.556 199.057 188.596 197.996C188.637 196.922 187.804 196.009 186.73 195.969L165.452 195.123C164.243 195.07 163.29 194.09 163.29 192.868V189.015C163.29 187.941 162.418 187.068 161.344 187.068C160.27 187.068 159.397 187.941 159.397 189.015V192.881C159.397 196.197 161.988 198.896 165.304 199.03L186.583 199.876C186.596 199.876 186.623 199.876 186.65 199.876Z" fill="#091A3F"/>
<path d="M187.871 194.103C188.905 194.103 189.778 193.284 189.818 192.237C189.858 191.163 189.026 190.25 187.952 190.21L173.695 189.606C173.225 189.592 172.795 189.391 172.486 189.042C172.178 188.693 172.017 188.25 172.043 187.78L172.419 181.202C172.486 180.128 171.654 179.201 170.58 179.148C169.506 179.094 168.58 179.913 168.526 180.987L168.15 187.565C168.07 189.082 168.58 190.532 169.6 191.66C170.62 192.787 172.017 193.445 173.534 193.512L187.791 194.116C187.818 194.103 187.845 194.103 187.871 194.103Z" fill="#091A3F"/>
<path d="M169.103 189.055L163.102 194.801L171.063 192.425C172.124 192.103 172.728 190.988 172.406 189.928C172.03 188.518 170.137 188.021 169.103 189.055Z" fill="#091A3F"/>
<path d="M110.06 133.543C112.477 136.094 115.86 137.638 119.377 137.758C116.974 135.181 113.577 133.664 110.06 133.543Z" fill="#091A3F"/>
<g opacity="0.3">
<path d="M195.43 276.532C196.195 279.714 197.094 283.097 198.128 286.36C198.155 286.198 198.168 286.051 198.182 285.89C198.45 282.131 197.349 278.949 195.43 276.532Z" fill="#000070"/>
</g>
<g opacity="0.2">
<path d="M188.502 236.942L189.281 236.915C189.281 236.915 204.236 269.753 209.929 287.635C209.929 287.635 210.627 293.273 229.059 291.756C244.176 290.508 254.835 288.83 258.473 284.493C258.5 284.453 258.514 284.44 258.514 284.44C258.514 284.44 253.332 276.009 237.074 281.285C220.816 286.547 217.89 268.665 217.89 268.665C217.89 268.665 200.988 239.909 210.251 229.411L188.502 236.942Z" fill="#091A3F"/>
</g>
<g opacity="0.2">
<path d="M102.65 184.424C103.791 189.042 108.248 198.077 125.727 192.962C125.727 192.962 115.967 216.697 130.923 241.399C142.146 259.939 148.362 281.527 150.765 291.152C152.04 296.24 155.316 300.657 159.961 303.101C163.465 304.953 167.788 305.772 172.218 303.06C182.421 296.791 182.515 294.267 182.515 294.173C182.515 294.173 188.086 294.495 192.637 292.763C192.637 292.763 169.869 295.596 168.419 286.319C166.969 277.043 168.419 276.304 168.419 276.304C168.419 276.304 148.335 241.48 145.489 233.64C142.629 225.799 146.751 223.316 146.751 223.316L174.057 231.438L142.844 212.576L143.703 199.943C143.703 199.943 156.725 201.393 160.766 193.579L163.371 196.479L170.567 189.283L170.352 179.309L163.371 175.509C163.371 175.509 157.705 187.417 147.784 181.242L143.703 178.866C143.703 178.866 103.375 189.579 105.066 171.16C103.724 175.214 102.958 178.423 102.569 180.262C102.3 181.645 102.314 183.068 102.65 184.424Z" fill="#091A3F"/>
</g>
<g opacity="0.2">
<path d="M175.802 153.519C175.802 153.519 137.098 162.783 123.928 139.047L135.393 134.416" fill="#091A3F"/>
</g>
<path d="M237.772 119.608C231.852 128.992 223.515 136.953 213.244 142.471C211.15 143.598 208.989 144.619 206.733 145.531C205.646 145.975 204.532 146.404 203.391 146.793C199.967 147.988 196.517 148.874 193.053 149.492C190.073 150.029 187.079 150.364 184.099 150.499C180.501 150.66 176.93 150.526 173.413 150.136C172.124 149.989 170.848 149.801 169.586 149.586C146.375 145.572 125.888 129.663 117.377 106.169C104.811 71.5732 122.975 33.6878 157.907 21.5248C164.633 19.1888 171.506 17.9671 178.299 17.7792C179.091 17.7523 179.883 17.7389 180.689 17.7523C182.823 17.7658 184.931 17.8866 187.039 18.088C191.899 18.5847 196.665 19.5916 201.243 21.0952C205.834 22.5853 210.251 24.5588 214.412 26.9753C215.742 27.7405 217.03 28.546 218.306 29.4052C220.212 30.694 222.051 32.0634 223.837 33.5536C232.697 40.9105 239.759 50.6167 243.934 62.1354C251.157 82.0581 248.217 103.041 237.772 119.608Z" fill="white"/>
<path d="M181.105 150.767C182.112 150.767 183.119 150.74 184.112 150.7C187.133 150.566 190.154 150.23 193.094 149.693C196.584 149.076 200.075 148.163 203.458 146.981C204.693 146.538 205.794 146.122 206.814 145.706C209.016 144.807 211.217 143.773 213.339 142.632C223.367 137.235 231.878 129.301 237.933 119.702C248.861 102.384 251.117 81.3868 244.109 62.0951C240.068 50.9389 233.087 41.0313 223.944 33.4327C222.213 31.9828 220.36 30.5866 218.4 29.271C217.151 28.4252 215.836 27.6063 214.493 26.8276C210.318 24.4111 205.874 22.4242 201.283 20.934C196.651 19.4304 191.859 18.4101 187.039 17.9268C184.945 17.712 182.797 17.6046 180.676 17.5912C179.83 17.5778 179.038 17.5912 178.286 17.6181C171.359 17.806 164.485 19.068 157.84 21.3636C140.817 27.2841 127.231 39.4203 119.565 55.5437C111.966 71.5329 111.121 89.5492 117.189 106.25C125.418 128.938 145.489 145.625 169.546 149.787C170.808 150.002 172.097 150.19 173.386 150.338C175.963 150.62 178.541 150.767 181.105 150.767ZM237.611 119.5C231.583 129.046 223.125 136.939 213.151 142.296C211.029 143.437 208.855 144.457 206.666 145.357C205.659 145.773 204.572 146.189 203.337 146.619C199.981 147.787 196.504 148.7 193.027 149.317C190.113 149.841 187.106 150.176 184.099 150.311C180.582 150.472 176.997 150.351 173.439 149.948C172.151 149.801 170.875 149.613 169.613 149.398C145.69 145.263 125.74 128.683 117.551 106.116C111.523 89.4955 112.356 71.6 119.914 55.6914C127.539 39.6619 141.045 27.5928 157.974 21.7127C164.579 19.417 171.412 18.1685 178.299 17.9805C179.051 17.9537 179.83 17.9403 180.676 17.9537C182.797 17.9671 184.918 18.0879 186.999 18.2893C191.791 18.7726 196.557 19.7795 201.162 21.2831C205.727 22.7598 210.143 24.7333 214.292 27.1498C215.621 27.9285 216.936 28.734 218.172 29.5797C220.105 30.882 221.957 32.2782 223.676 33.7146C232.765 41.2729 239.692 51.1269 243.719 62.2159C250.727 81.4002 248.485 102.276 237.611 119.5Z" fill="#091A3F"/>
<g opacity="0.2">
<path d="M117.377 106.183C125.902 129.663 146.375 145.585 169.586 149.599C170.848 149.814 172.124 150.002 173.413 150.149C176.93 150.552 180.514 150.687 184.099 150.525C187.079 150.391 190.073 150.069 193.053 149.519C196.517 148.901 199.967 148.001 203.391 146.82C204.518 146.417 205.633 146.001 206.733 145.558C208.975 144.645 211.15 143.612 213.245 142.484C223.515 136.953 231.852 129.005 237.772 119.621C241.021 114.466 243.558 108.868 245.277 103.014C239.41 111.848 231.382 119.326 221.581 124.588C219.487 125.716 217.326 126.736 215.07 127.663C213.983 128.106 212.869 128.522 211.728 128.925C208.304 130.119 204.854 131.005 201.39 131.636C198.41 132.173 195.416 132.496 192.436 132.643C188.838 132.804 185.267 132.67 181.75 132.267C180.461 132.12 179.185 131.932 177.923 131.717C154.712 127.716 134.225 111.794 125.714 88.3005C120.733 74.607 120.585 60.3899 124.384 47.4617C113.255 64.1892 109.966 85.7632 117.377 106.183Z" fill="#091A3F"/>
</g>
<path d="M181.105 152.029C182.126 152.029 183.159 152.002 184.166 151.962C187.241 151.828 190.328 151.479 193.309 150.942C196.866 150.311 200.424 149.371 203.861 148.176C205.123 147.733 206.237 147.304 207.271 146.874C209.513 145.961 211.741 144.914 213.916 143.746C224.146 138.242 232.805 130.16 238.994 120.373C250.137 102.719 252.432 81.3196 245.29 61.652C241.169 50.2811 234.067 40.1855 224.75 32.4392C222.991 30.9759 221.098 29.5394 219.112 28.2104C217.836 27.3512 216.494 26.5188 215.138 25.7267C210.882 23.2565 206.358 21.2428 201.686 19.7258C196.974 18.1953 192.087 17.1616 187.173 16.6514C185.039 16.4366 182.851 16.3158 180.689 16.3024C179.83 16.289 179.024 16.3024 178.246 16.3292C171.198 16.5172 164.19 17.806 157.437 20.1554C140.092 26.1832 126.251 38.561 118.437 54.9798C110.691 71.2777 109.819 89.6297 116.007 106.666C124.398 129.784 144.831 146.78 169.345 151.009C170.634 151.224 171.936 151.412 173.252 151.573C175.87 151.881 178.501 152.029 181.105 152.029ZM236.537 118.829C230.63 128.2 222.334 135.919 212.547 141.195C210.466 142.309 208.331 143.316 206.183 144.189C205.19 144.592 204.116 145.008 202.908 145.437C199.618 146.579 196.208 147.478 192.799 148.082C189.939 148.606 186.985 148.928 184.032 149.062C180.568 149.223 177.051 149.102 173.574 148.7C172.312 148.552 171.05 148.364 169.828 148.163C146.348 144.108 126.774 127.837 118.733 105.686C112.812 89.3881 113.645 71.8282 121.055 56.2418C128.533 40.5211 141.783 28.6937 158.377 22.9209C164.861 20.6789 171.56 19.4438 178.326 19.2559C179.078 19.229 179.83 19.2156 180.649 19.229C182.73 19.2425 184.824 19.3499 186.865 19.5647C191.563 20.048 196.249 21.028 200.773 22.5047C205.257 23.9546 209.593 25.8878 213.661 28.2506C214.977 29.0024 216.252 29.8079 217.474 30.6269C219.38 31.9157 221.192 33.2716 222.884 34.6812C231.798 42.0918 238.605 51.7712 242.552 62.6455C249.398 81.4673 247.197 101.94 236.537 118.829Z" fill="#091A3F"/>
<path d="M181.105 152.459C182.139 152.459 183.159 152.432 184.193 152.392C187.294 152.257 190.382 151.908 193.389 151.358C196.974 150.713 200.545 149.787 204.008 148.579C205.284 148.122 206.411 147.706 207.445 147.277C209.7 146.364 211.942 145.303 214.131 144.122C224.428 138.591 233.141 130.455 239.356 120.601C250.566 102.826 252.875 81.2927 245.693 61.5177C241.545 50.0796 234.402 39.9169 225.018 32.1304C223.246 30.6536 221.34 29.2172 219.34 27.8747C218.064 27.0155 216.708 26.1697 215.339 25.3776C211.056 22.894 206.505 20.8668 201.807 19.3364C197.068 17.7925 192.154 16.7453 187.214 16.2486C185.066 16.0338 182.864 15.913 180.689 15.8996C179.816 15.8861 179.011 15.8996 178.219 15.9264C171.13 16.1144 164.082 17.4032 157.289 19.766C139.837 25.8341 125.902 38.279 118.048 54.8052C110.248 71.2105 109.375 89.6833 115.605 106.814C124.049 130.079 144.603 147.169 169.264 151.438C170.553 151.653 171.882 151.855 173.198 152.002C175.829 152.311 178.487 152.459 181.105 152.459ZM236.188 118.601C230.321 127.904 222.078 135.583 212.359 140.819C210.291 141.933 208.17 142.927 206.035 143.8C205.042 144.202 203.981 144.605 202.773 145.035C199.497 146.176 196.128 147.062 192.731 147.666C189.885 148.176 186.959 148.512 184.032 148.646C180.595 148.807 177.105 148.686 173.641 148.283C172.392 148.136 171.144 147.961 169.909 147.746C146.576 143.719 127.123 127.542 119.149 105.552C113.269 89.3612 114.088 71.9221 121.458 56.4431C128.882 40.8298 142.052 29.0695 158.538 23.337C164.968 21.1085 171.641 19.8734 178.353 19.6988C179.091 19.672 179.843 19.6586 180.662 19.672C182.73 19.6854 184.811 19.7928 186.838 20.0076C191.51 20.4775 196.155 21.4709 200.652 22.9343C205.109 24.3842 209.419 26.3039 213.459 28.6533C214.762 29.4051 216.037 30.1972 217.245 31.0161C219.138 32.2915 220.937 33.6474 222.615 35.0436C231.476 42.4139 238.229 52.0128 242.162 62.8333C248.955 81.4807 246.767 101.82 236.188 118.601Z" fill="#091A3F"/>
<path d="M226.884 132.71C185.938 157.278 133.594 134.456 133.567 87.4682C133.54 55.5032 165.237 31.016 196.343 33.1775C218.977 34.7482 240.457 46.052 247.841 81.4001C247.841 81.4001 248.66 97.5235 243.639 107.901C238.604 118.279 231.932 127.515 231.932 127.515L226.884 132.71Z" fill="#142957"/>
<path d="M133.567 87.4816C133.608 134.469 185.952 157.278 226.884 132.724L227.905 131.663C184.18 136.469 142.589 108.102 141.649 60.5913C136.575 68.4584 133.567 77.6142 133.567 87.4816Z" fill="#132249"/>
<path d="M191.563 151.398C192.073 151.398 192.584 151.398 193.094 151.385L193.389 151.358C196.974 150.713 200.545 149.787 204.008 148.579C205.284 148.122 206.411 147.706 207.445 147.277C209.7 146.364 211.942 145.303 214.131 144.122C224.428 138.591 233.141 130.455 239.356 120.601C250.566 102.826 252.875 81.2927 245.693 61.5177C241.545 50.0796 234.402 39.9169 225.018 32.1304L224.871 32.0096L224.696 31.9156C216.843 27.7404 207.579 25.2434 197.162 24.5318C178.407 23.2296 158.726 30.3986 144.482 43.7027C131.648 55.6913 124.586 71.224 124.599 87.4414C124.613 105.095 130.963 120.641 142.951 132.375C155.369 144.511 173.01 151.398 191.563 151.398ZM192.879 147.626C174.809 147.948 157.598 141.423 145.61 129.676C134.359 118.655 128.399 104.048 128.385 87.428C128.372 72.2577 135.004 57.705 147.073 46.4414C160.565 33.8354 179.199 27.0557 196.92 28.2774C206.72 28.9621 215.433 31.2712 222.776 35.151C231.556 42.4945 238.269 52.0531 242.162 62.8065C248.942 81.4807 246.767 101.82 236.175 118.601C230.308 127.904 222.065 135.583 212.345 140.819C210.278 141.933 208.157 142.927 206.022 143.8C205.029 144.202 203.968 144.605 202.76 145.035C199.551 146.149 196.222 147.022 192.879 147.626Z" fill="#091A3F"/>
<path d="M191.349 143.397C203.579 143.397 216.024 140.014 227.234 133.288L227.368 133.18L232.456 127.891C232.523 127.797 239.222 118.48 244.216 108.183C249.264 97.7786 248.526 82.0177 248.485 81.3599L248.472 81.2525C242.122 50.8583 224.589 34.4663 196.37 32.5063C179.964 31.3786 162.727 37.6346 150.255 49.2875C139.045 59.759 132.869 73.3183 132.883 87.4682C132.896 108.022 142.965 125.501 160.511 135.436C169.936 140.752 180.555 143.397 191.349 143.397ZM226.468 132.187C205.794 144.551 180.797 145.357 161.196 134.268C144.079 124.588 134.266 107.525 134.252 87.4682C134.239 73.6942 140.253 60.484 151.194 50.2676C163.398 38.8697 180.273 32.7345 196.302 33.8488C223.837 35.7551 240.954 51.7846 247.17 81.4807C247.21 82.4876 247.787 97.7921 243.021 107.606C238.229 117.473 231.879 126.414 231.395 127.072L226.468 132.187Z" fill="#091A3F"/>
<path d="M103.979 82.6219C102.394 95.6173 108.838 107.485 118.37 109.123C127.915 110.774 136.924 101.578 138.508 88.5826C138.521 88.502 138.521 88.4081 138.535 88.3275C140.011 75.4395 133.581 63.7061 124.116 62.0682C116.746 60.7928 109.684 65.9883 106.127 74.4058C105.079 76.9163 104.341 79.6684 103.979 82.6219Z" fill="white"/>
<g opacity="0.2">
<path d="M103.979 82.6219C102.394 95.6173 108.838 107.485 118.37 109.123C127.915 110.774 136.924 101.578 138.508 88.5826C138.521 88.502 138.521 88.408 138.535 88.3275C137.326 89.482 135.527 90.5158 133.379 89.6834C129.607 88.2335 123.673 78.6883 123.673 78.6883C123.673 78.6883 116.075 76.782 106.127 74.4192C105.079 76.9162 104.341 79.6684 103.979 82.6219Z" fill="#091A3F"/>
</g>
<path d="M120.626 111.204C123.995 111.204 127.311 110.049 130.318 107.807C135.729 103.779 139.407 96.8656 140.387 88.8106C142.092 74.862 134.937 62.0412 124.438 60.2288C120.196 59.4904 115.954 60.5913 112.181 63.3971C106.771 67.4246 103.093 74.3385 102.113 82.3935C100.408 96.342 107.563 109.163 118.061 110.975C118.907 111.136 119.766 111.204 120.626 111.204ZM121.901 63.7864C122.532 63.7864 123.163 63.8401 123.807 63.9475C132.359 65.4243 138.132 76.3791 136.655 88.3676C135.809 95.2949 132.601 101.43 128.077 104.8C125.15 106.975 121.901 107.834 118.692 107.283C110.141 105.807 104.368 94.8519 105.845 82.8633C106.69 75.936 109.899 69.8008 114.423 66.4311C116.773 64.6725 119.323 63.7864 121.901 63.7864Z" fill="#091A3F"/>
<path d="M114.154 105.694C106.88 105.228 101.537 96.2071 102.219 85.5443C102.901 74.8815 109.351 66.6149 116.625 67.0803C123.899 67.5458 129.242 76.567 128.56 87.2298C127.878 97.8926 121.428 106.159 114.154 105.694Z" fill="white"/>
<g opacity="0.2">
<path d="M113.134 105.565C105.939 104.263 101.119 94.6239 102.368 84.0181C102.502 82.8636 102.703 81.7493 102.972 80.6887C104.019 88.2201 108.194 94.1808 113.792 95.1877C120.115 96.3288 126.17 90.7575 128.452 82.3131C128.681 84.3672 128.681 86.5286 128.426 88.7437C127.177 99.336 120.33 106.867 113.134 105.565Z" fill="#091A3F"/>
</g>
<path d="M114.772 107.592C117.269 107.592 119.74 106.733 122.008 105.055C126.398 101.806 129.486 95.7917 130.305 88.9584C131.688 77.2115 126.291 66.8474 118.008 65.3438C114.839 64.7665 111.658 65.5854 108.812 67.6932C104.422 70.942 101.334 76.9564 100.515 83.7897C99.1322 95.5366 104.529 105.901 112.812 107.404C113.457 107.525 114.114 107.592 114.772 107.592ZM116.061 68.9283C116.491 68.9283 116.92 68.9685 117.336 69.0491C123.458 70.1499 127.687 79.0776 126.559 88.5153C125.875 94.3418 123.337 99.403 119.766 102.034C117.766 103.511 115.591 104.102 113.47 103.712C107.348 102.612 103.119 93.684 104.247 84.2328C104.932 78.4063 107.483 73.3451 111.04 70.7138C112.638 69.5324 114.356 68.9283 116.061 68.9283Z" fill="#091A3F"/>
<g opacity="0.5">
<path d="M179.253 46.5354C179.253 46.5354 207.15 45.636 221.89 63.0348C221.904 63.0482 221.917 63.075 221.931 63.0885C225.032 66.7535 227.744 75.8691 228.549 80.5678C229.623 86.7702 229.435 89.8579 229.126 93.7512C228.173 105.579 225.475 110.935 225.475 110.935C232.805 105.27 237.222 98.5036 238.121 88.6631C238.202 87.6965 238.255 86.6896 238.282 85.6559C238.282 85.4142 238.282 85.186 238.282 84.9444V84.9309C238.175 82.8366 237.933 81.427 237.396 78.3527C235.772 69.0626 231.503 56.7519 220.4 50.2676C199.632 38.1045 178.366 45.2198 179.253 46.5354Z" fill="white"/>
</g>
<g opacity="0.5">
<path d="M154.248 90.4068C149.59 88.6815 147.421 82.9426 149.403 77.5886C151.386 72.2346 156.77 69.2929 161.429 71.0182C166.087 72.7435 168.257 78.4824 166.274 83.8364C164.291 89.1904 158.907 92.132 154.248 90.4068Z" fill="white"/>
</g>
<g opacity="0.5">
<path d="M149.655 103.56C147.804 102.671 147.131 100.227 148.151 98.1017C149.172 95.9764 151.5 94.9742 153.352 95.8633C155.203 96.7524 155.876 99.1961 154.856 101.321C153.835 103.447 151.507 104.449 149.655 103.56Z" fill="white"/>
</g>
<path d="M46.2242 122.319L41.8745 129.797L33.2556 130.442C30.7988 130.63 29.6175 133.543 31.2687 135.382L37.0281 141.826L34.9875 150.23C34.4102 152.62 36.8132 154.647 39.0686 153.653L46.976 150.163L54.3329 154.701C56.4272 155.989 59.0987 154.325 58.8437 151.868L57.971 143.262L64.5627 137.664C66.4422 136.067 65.677 133.019 63.2739 132.496L54.8296 130.67L51.5405 122.669C50.6142 120.4 47.4727 120.185 46.2242 122.319Z" fill="#F1C900"/>
<g opacity="0.2">
<path d="M31.2688 135.382L37.0281 141.826L34.9875 150.23C34.4102 152.62 36.8133 154.647 39.0687 153.653L46.9761 150.163L54.3329 154.701C56.2661 155.895 58.6961 154.553 58.8572 152.405C58.4142 152.365 57.9845 152.217 57.5684 151.962L50.2115 147.424L42.3041 150.915C40.0487 151.908 37.6322 149.881 38.2229 147.491L40.2636 139.087L34.5042 132.643C33.9135 131.972 33.6853 131.167 33.7524 130.388L33.2557 130.428C30.7989 130.616 29.6175 133.543 31.2688 135.382Z" fill="#091A3F"/>
</g>
<g opacity="0.61">
<path d="M45.6603 123.3C46.6404 123.434 47.5398 124.051 47.9829 125.112L51.272 133.113L59.7163 134.939C62.1194 135.463 62.8846 138.51 61.0185 140.108L54.4269 145.692L55.2995 154.298C55.3263 154.566 55.3129 154.821 55.2726 155.076C57.1387 155.506 59.0719 153.976 58.8571 151.881L57.9845 143.276L64.5762 137.691C66.4557 136.094 65.6904 133.046 63.2874 132.522L54.8296 130.697L51.5539 122.695C50.6142 120.427 47.4727 120.198 46.2376 122.333L45.6603 123.3Z" fill="white"/>
</g>
<path d="M55.9036 156.969C56.7763 156.969 57.6623 156.728 58.4409 156.231C59.9982 155.251 60.844 153.519 60.6695 151.693L59.8908 144.041L65.7576 139.06C67.1538 137.866 67.7445 136.026 67.3014 134.241C66.8584 132.455 65.4622 131.113 63.6632 130.724L56.1453 129.099L53.2186 121.984C52.5205 120.279 50.9498 119.151 49.1106 119.017C47.2713 118.896 45.5664 119.796 44.64 121.38L40.7736 128.025L33.108 128.602C31.2822 128.737 29.7114 129.891 29.0268 131.583C28.3421 133.288 28.6777 135.194 29.8994 136.563L35.0278 142.296L33.2154 149.774C32.7858 151.559 33.3899 153.398 34.7995 154.58C36.2091 155.761 38.1289 156.03 39.807 155.291L46.8418 152.19L53.3797 156.231C54.1584 156.728 55.031 156.969 55.9036 156.969ZM48.8018 122.655C48.8286 122.655 48.8555 122.655 48.8823 122.655C49.0971 122.669 49.6207 122.762 49.8624 123.367L53.1515 131.368C53.3797 131.918 53.863 132.335 54.4537 132.455L62.898 134.281C63.529 134.415 63.717 134.926 63.7707 135.127C63.8244 135.328 63.8915 135.865 63.3947 136.281L56.8031 141.88C56.3466 142.269 56.105 142.86 56.1721 143.45L57.0448 152.056C57.1119 152.7 56.6957 153.036 56.5078 153.143C56.3198 153.264 55.8365 153.492 55.2861 153.143L47.9292 148.606C47.419 148.297 46.7881 148.243 46.2376 148.485L38.3303 151.975C37.7396 152.23 37.2966 151.948 37.122 151.801C36.9609 151.667 36.585 151.277 36.7461 150.646L38.7868 142.242C38.9344 141.665 38.7733 141.047 38.3706 140.604L32.6113 134.16C32.1817 133.677 32.3159 133.167 32.3964 132.965C32.477 132.764 32.7321 132.294 33.3765 132.241L41.9953 131.596C42.586 131.556 43.123 131.22 43.4318 130.697L47.7815 123.232C48.0903 122.736 48.5467 122.655 48.8018 122.655Z" fill="#091A3F"/>
<path d="M308.992 149.653L304.642 157.13L296.023 157.775C293.566 157.963 292.385 160.876 294.036 162.715L299.796 169.159L297.755 177.563C297.178 179.953 299.581 181.98 301.836 180.987L309.744 177.496L317.1 182.034C319.195 183.323 321.866 181.658 321.611 179.201L320.739 170.596L327.33 164.997C329.21 163.4 328.445 160.352 326.042 159.829L317.597 158.003L314.308 150.002C313.368 147.746 310.227 147.532 308.992 149.653Z" fill="#F1C900"/>
<g opacity="0.2">
<path d="M294.023 162.729L299.782 169.173L297.742 177.577C297.164 179.966 299.567 181.994 301.823 181L309.73 177.51L317.087 182.047C319.02 183.242 321.45 181.9 321.611 179.752C321.168 179.711 320.739 179.564 320.323 179.309L312.966 174.771L305.058 178.261C302.803 179.255 300.386 177.228 300.977 174.838L303.018 166.434L297.258 159.99C296.668 159.319 296.439 158.513 296.507 157.735L296.01 157.775C293.567 157.963 292.385 160.889 294.023 162.729Z" fill="#091A3F"/>
</g>
<g opacity="0.61">
<path d="M308.428 150.633C309.408 150.767 310.307 151.385 310.75 152.445L314.04 160.446L322.484 162.272C324.887 162.796 325.652 165.843 323.786 167.441L317.194 173.026L318.067 181.631C318.094 181.9 318.08 182.155 318.04 182.41C319.906 182.839 321.839 181.309 321.625 179.215L320.752 170.609L327.344 165.024C329.223 163.427 328.458 160.379 326.055 159.856L317.597 158.03L314.321 150.029C313.382 147.76 310.24 147.532 309.005 149.666L308.428 150.633Z" fill="white"/>
</g>
<path d="M318.658 184.316C319.544 184.316 320.417 184.074 321.195 183.578C322.753 182.598 323.598 180.866 323.424 179.04L322.645 171.388L328.512 166.407C329.908 165.212 330.499 163.373 330.056 161.588C329.613 159.802 328.216 158.46 326.418 158.07L318.9 156.446L315.986 149.331C315.288 147.626 313.717 146.498 311.878 146.377C310.039 146.256 308.334 147.156 307.408 148.74L303.541 155.385L295.876 155.962C294.05 156.097 292.479 157.251 291.794 158.943C291.11 160.648 291.445 162.554 292.667 163.923L297.795 169.656L295.983 177.134C295.553 178.919 296.158 180.758 297.567 181.94C298.977 183.121 300.897 183.39 302.575 182.651L309.609 179.55L316.147 183.591C316.913 184.074 317.785 184.316 318.658 184.316ZM311.556 150.002C311.583 150.002 311.61 150.002 311.637 150.002C311.851 150.015 312.375 150.109 312.63 150.713L315.919 158.715C316.147 159.265 316.631 159.681 317.221 159.802L325.666 161.628C326.297 161.762 326.485 162.272 326.538 162.474C326.592 162.688 326.659 163.212 326.162 163.628L319.571 169.226C319.114 169.616 318.873 170.206 318.94 170.797L319.812 179.403C319.88 180.047 319.463 180.383 319.275 180.49C319.087 180.611 318.604 180.839 318.054 180.49L310.697 175.952C310.187 175.643 309.556 175.59 309.005 175.831L301.098 179.322C300.507 179.577 300.064 179.295 299.89 179.147C299.729 179.013 299.353 178.624 299.514 177.993L301.554 169.589C301.702 169.012 301.541 168.394 301.138 167.951L295.379 161.507C294.949 161.024 295.084 160.514 295.164 160.312C295.245 160.111 295.5 159.641 296.144 159.587L304.763 158.943C305.354 158.903 305.891 158.567 306.199 158.043L310.549 150.566C310.858 150.069 311.314 150.002 311.556 150.002Z" fill="#091A3F"/>
<path d="M276.423 3.61554L272.073 11.0933L263.454 11.7377C260.997 11.9256 259.816 14.8388 261.467 16.6781L267.227 23.1221L265.186 31.5261C264.609 33.9158 267.012 35.9429 269.267 34.9495L277.174 31.459L284.531 35.9966C286.626 37.2854 289.297 35.6207 289.042 33.164L288.17 24.5585L294.761 18.9603C296.641 17.3627 295.875 14.3153 293.472 13.7917L285.028 11.9659L281.739 3.96459C280.813 1.70919 277.671 1.48097 276.423 3.61554Z" fill="#F1C900"/>
<g opacity="0.2">
<path d="M261.467 16.6782L267.227 23.1222L265.186 31.5262C264.609 33.9159 267.012 35.9431 269.267 34.9496L277.175 31.4591L284.531 35.9968C286.465 37.1916 288.895 35.8491 289.056 33.7011C288.613 33.6608 288.183 33.5131 287.767 33.2581L280.41 28.7204L272.503 32.2109C270.247 33.2044 267.831 31.1772 268.421 28.7875L270.462 20.3835L264.703 13.9395C264.112 13.2682 263.884 12.4627 263.951 11.6841L263.454 11.7244C260.997 11.9257 259.816 14.839 261.467 16.6782Z" fill="#091A3F"/>
</g>
<g opacity="0.61">
<path d="M275.859 4.59567C276.839 4.72992 277.738 5.34747 278.181 6.40804L281.47 14.4093L289.915 16.2351C292.318 16.7587 293.083 19.8062 291.217 21.4038L284.625 26.9886L285.498 35.594C285.525 35.8625 285.511 36.1176 285.471 36.3726C287.337 36.8022 289.27 35.2718 289.056 33.1775L288.183 24.5721L294.775 18.9873C296.654 17.3897 295.889 14.3422 293.486 13.8186L285.028 11.9928L281.752 3.99154C280.813 1.72272 277.671 1.49449 276.436 3.62906L275.859 4.59567Z" fill="white"/>
</g>
<path d="M286.089 38.2655C286.961 38.2655 287.847 38.0239 288.626 37.5272C290.183 36.5471 291.029 34.8153 290.855 32.9895L290.076 25.3372L295.943 20.3566C297.339 19.1618 297.93 17.3225 297.487 15.537C297.044 13.7515 295.647 12.409 293.848 12.0196L286.33 10.3952L283.404 3.27997C282.706 1.575 281.135 0.447298 279.296 0.313048C277.457 0.192223 275.752 1.0917 274.825 2.67585L270.959 9.32122L263.293 9.8985C261.467 10.0327 259.897 11.1873 259.212 12.8788C258.527 14.5838 258.863 16.4902 260.085 17.8595L265.213 23.592L263.401 31.0697C262.971 32.8553 263.575 34.6945 264.985 35.8759C266.394 37.0573 268.314 37.3258 269.992 36.5874L277.027 33.4862L283.565 37.5272C284.357 38.0373 285.216 38.2655 286.089 38.2655ZM278.987 3.95122C279.014 3.95122 279.041 3.95122 279.068 3.95122C279.282 3.96465 279.806 4.05862 280.048 4.66275L283.337 12.6641C283.565 13.2145 284.048 13.6307 284.639 13.7515L293.083 15.5773C293.714 15.7115 293.902 16.2083 293.956 16.4231C294.01 16.6379 294.077 17.1614 293.58 17.5776L286.988 23.1758C286.532 23.5652 286.29 24.1559 286.357 24.7466L287.23 33.352C287.297 33.9964 286.881 34.332 286.693 34.4394C286.505 34.5602 286.022 34.7884 285.471 34.4394L278.114 29.9018C277.604 29.5795 276.973 29.5393 276.423 29.7809L268.515 33.2714C267.925 33.5265 267.482 33.2446 267.307 33.0969C267.146 32.9627 266.77 32.5733 266.931 31.9424L268.972 23.5383C269.12 22.961 268.958 22.3435 268.556 21.9005L262.796 15.4565C262.367 14.9732 262.501 14.463 262.582 14.2616C262.662 14.0602 262.917 13.5904 263.562 13.5367L272.18 12.8923C272.771 12.852 273.308 12.5164 273.617 11.9928L277.967 4.5285C278.289 4.03177 278.745 3.95122 278.987 3.95122Z" fill="#091A3F"/>
<path fill-rule="evenodd" clip-rule="evenodd" d="M218.081 190.422C215.808 192.448 214.555 194.794 215.282 195.661C216.008 196.528 218.44 195.589 220.713 193.562C222.986 191.536 224.239 189.19 223.512 188.323C222.786 187.456 220.354 188.395 218.081 190.422ZM218.245 190.608C217.264 191.432 216.844 192.434 217.14 192.81C217.437 193.186 218.338 192.794 219.32 191.97C220.302 191.145 220.857 190.172 220.56 189.796C220.263 189.42 219.227 189.783 218.245 190.608Z" fill="#D7D1DA"/>
<path d="M218.66 209.099C222.588 211.965 235.84 198.544 234.847 192.3C233.847 190.806 233.284 190.088 232.257 189.815C234.234 192.883 228.576 200.804 224.396 204.136C220.294 207.15 217.954 208.788 216.641 206.016C217.039 207.61 217.37 207.577 218.66 209.099Z" fill="#D7D1DA"/>
<path d="M223.764 210.598C227.664 209.324 236.051 200.828 236.202 196.012C236.586 196.067 236.757 196.614 237 198.327C236.834 201.76 230.525 210.179 225.179 211.157C223.523 211.164 223.263 211.032 223.764 210.598Z" fill="#D7D1DA"/>
<path d="M224.517 208.92C223.288 208.809 222.032 208.351 221.595 208.144C221.082 208.919 221.009 210.507 221.701 210.645C221.822 210.885 224.032 211.175 225.074 211.157C223.979 211.066 223.975 210.054 224.517 208.92Z" fill="white"/>
<path d="M216.25 206.699C216.189 206.238 216.345 205.233 217.334 203.592C222.032 196.594 233.23 190.292 236.021 194.133C236.785 195.94 237.045 196.773 236.985 198.389C236.529 195.399 234.388 195.399 229.892 197.037C225.244 198.953 217.621 205.567 218.599 209.029C217.577 208.191 217.048 207.691 216.25 206.699Z" fill="white"/>
<path d="M215 199.321C215.217 197.283 216.526 194.454 217.153 193.294C217.254 193.662 217.531 194.739 217.695 194.568C221.063 191.048 227.845 187.485 230.901 188.541C232.154 188.804 234.083 190.97 234.847 192.3C231.917 188.9 224.479 191.325 218.734 196.804C218.819 197.041 219.522 198.083 219.864 198.575C217.985 198.895 216.93 199.073 215 199.321Z" fill="white"/>
<path fill-rule="evenodd" clip-rule="evenodd" d="M232.88 208.02C235.084 206.056 236.299 203.781 235.595 202.94C234.89 202.099 232.532 203.01 230.329 204.975C228.125 206.94 226.91 209.214 227.615 210.055C228.319 210.896 230.677 209.985 232.88 208.02ZM232.721 207.84C233.673 207.041 234.08 206.07 233.793 205.705C233.505 205.34 232.631 205.72 231.679 206.519C230.728 207.319 230.189 208.262 230.477 208.627C230.764 208.991 231.769 208.639 232.721 207.84Z" fill="white"/>
</svg>
