<svg width="1235" height="1050" viewBox="0 0 1235 1050" fill="none" xmlns="http://www.w3.org/2000/svg">
<path d="M106.472 886.158C128.058 886.158 146.105 896.461 150.705 910.348C161.321 893.886 185.03 882.351 212.809 882.351C234.394 882.351 253.68 889.406 266.066 900.269C277.389 885.486 300.037 875.295 326.046 875.295C350.109 875.295 371.164 883.918 383.195 897.021C391.157 890.414 403.366 886.158 416.813 886.158C433.621 886.158 448.307 892.766 455.561 902.509C475.024 883.918 506.518 871.824 542.081 871.824C575.876 871.824 605.954 882.687 625.417 899.597C634.794 886.83 654.08 878.095 676.197 878.095C699.021 878.095 718.661 887.39 727.861 900.717C736.177 893.886 748.562 889.63 762.54 889.63C781.118 889.63 797.042 897.245 804.119 908.22C812.789 889.07 838.444 875.295 868.877 875.295C895.417 875.295 918.595 885.934 929.565 901.277C935.05 895.453 944.427 891.646 955.043 891.646C964.067 891.646 972.206 894.446 977.868 898.813C992.022 879.327 1021.22 866 1054.83 866C1102.43 866 1141 892.654 1141 925.579V1050H61V917.628C61 900.269 81.3473 886.158 106.472 886.158Z" fill="white"/>
<g opacity="0.2">
<path d="M121.141 436.847C164.583 424.309 190.29 376.504 178.558 330.072C166.827 283.64 122.101 256.165 78.6585 268.703C35.2166 281.242 9.51004 329.047 21.2413 375.478C32.9725 421.91 77.6991 449.386 121.141 436.847Z" stroke="white" stroke-width="2" stroke-miterlimit="10"/>
<path d="M98.0799 327.18C79.4367 338.25 60.5633 351.288 41.6899 357.438C33.404 360.144 26.0389 361.374 18.9038 361.866C19.5943 368.754 20.9752 375.642 23.2768 382.285C29.2611 383.023 35.4755 383.515 43.5312 382.039C63.095 378.594 87.2623 362.85 109.358 349.812C131.223 336.528 157.922 325.95 176.566 329.394C177.256 329.394 177.716 329.64 178.407 329.64C177.716 327.18 177.026 324.72 176.335 322.506C174.494 317.34 172.423 312.42 169.891 307.746C165.748 306.516 161.145 305.778 155.16 305.778C137.898 306.024 116.493 315.864 98.0799 327.18Z" stroke="white" stroke-width="2" stroke-miterlimit="10"/>
<path d="M52.0462 327.672C66.3163 321.522 83.8087 318.324 99.9201 314.388C116.262 310.452 133.524 304.548 143.881 296.184C148.024 292.74 150.786 289.788 153.088 286.836C150.556 284.376 147.564 282.162 144.802 280.194C134.445 289.542 115.801 296.922 98.3091 301.104C79.2055 306.024 57.3399 310.452 43.5301 317.832C35.7045 322.014 31.7919 326.196 26.9585 330.624C24.887 332.592 22.3551 334.806 19.8233 337.02C19.1328 341.694 18.6725 346.368 18.4424 351.042C28.3394 341.694 36.6252 334.314 52.0462 327.672Z" stroke="white" stroke-width="2" stroke-miterlimit="10"/>
<path d="M136.055 365.065C151.706 359.407 168.739 352.027 180.937 344.401C180.707 341.203 180.247 338.005 179.556 334.561C167.127 341.941 151.476 349.075 136.746 354.487C115.571 362.359 91.6339 370.723 75.5225 379.825C66.3159 384.991 61.4825 389.173 55.4982 393.847C50.4346 398.029 44.2203 402.703 37.3154 408.115C38.6964 409.838 40.0773 411.56 41.6884 413.282C54.3474 402.949 64.7048 394.831 82.8877 385.975C98.769 378.103 118.103 371.707 136.055 365.065Z" stroke="white" stroke-width="2" stroke-miterlimit="10"/>
<path d="M26.4976 315.372C45.1408 310.206 67.0063 296.184 87.0305 284.376C97.3878 277.98 109.126 272.322 120.174 268.386C104.753 264.204 87.9512 264.696 71.8397 270.846C51.1251 279.21 35.2438 295.446 26.4976 315.372Z" stroke="white" stroke-width="2" stroke-miterlimit="10"/>
<path d="M118.102 385.729C99.4589 396.799 80.5855 409.837 61.7121 415.987C56.8787 417.709 52.2754 418.693 47.9023 419.431C56.8787 427.304 67.2361 433.208 78.2839 436.406C94.6255 430.01 112.578 418.447 129.38 408.607C143.19 400.243 158.841 393.109 173.341 389.665C176.794 381.793 179.095 373.429 180.246 364.819C178.635 364.573 177.024 364.573 175.183 364.573C158.151 364.819 136.515 374.659 118.102 385.729Z" stroke="white" stroke-width="2" stroke-miterlimit="10"/>
<path d="M96.9272 439.604C107.054 440.096 117.642 438.374 127.769 434.438C141.349 429.026 152.857 420.17 161.833 409.099C155.619 409.099 149.405 409.345 141.579 412.051C127.769 416.479 112.118 427.796 96.9272 439.604Z" stroke="white" stroke-width="2" stroke-miterlimit="10"/>
</g>
<g opacity="0.2">
<path d="M1029.31 74.1667C1031.69 69.6488 1034.34 65.1309 1037.78 61.1446C1064.25 27.925 1112.68 22.3441 1146.03 49.1855C1179.11 75.7612 1184.67 124.395 1157.94 157.88C1154.76 161.866 1151.58 165.321 1147.88 168.245" stroke="white" stroke-width="2" stroke-miterlimit="10"/>
<path d="M1120.89 183.127C1097.33 190.568 1070.6 186.316 1049.96 169.573C1029.31 152.831 1019.52 127.849 1021.37 103.134" stroke="white" stroke-width="2" stroke-miterlimit="10"/>
<path d="M1166.94 143.795C1179.64 158.943 1185.46 170.902 1181.76 175.42C1174.35 184.721 1130.94 162.664 1085.16 125.723C1039.37 88.7831 1008.14 51.3114 1015.55 41.7442C1019.26 36.9605 1031.96 40.1496 1049.43 49.1854L1055.51 44.6675C1003.64 10.1191 962.09 -6.88933 952.827 4.53821C940.388 20.2179 992.79 82.9365 1069.81 144.858C1146.82 206.779 1219.34 244.251 1231.78 228.571C1241.04 217.144 1215.1 179.938 1170.11 136.619" stroke="white" stroke-width="2" stroke-miterlimit="10"/>
</g>
</svg>
