<svg width="29" height="33" viewBox="0 0 29 33" fill="none" xmlns="http://www.w3.org/2000/svg">
<path fill-rule="evenodd" clip-rule="evenodd" d="M27.069 4.89374L16.7688 0.479355C15.2775 -0.159785 13.5894 -0.159785 12.0981 0.479355L1.79783 4.89374C1.07122 5.20514 0.600098 5.91961 0.600098 6.71015V17.0909C0.600098 20.9202 2.44941 24.5137 5.56542 26.7394L12.1362 31.4328C13.5104 32.4144 15.3565 32.4144 16.7307 31.4328L23.3015 26.7394C26.4175 24.5137 28.2668 20.9202 28.2668 17.0909V6.71015C28.2668 5.91961 27.7957 5.20514 27.069 4.89374ZM21.1429 11.9608C21.4879 11.5295 21.418 10.9002 20.9867 10.5552C20.5555 10.2102 19.9262 10.2801 19.5812 10.7114L12.3744 19.7199L9.212 16.5576C8.82147 16.167 8.18831 16.167 7.79779 16.5576C7.40726 16.9481 7.40726 17.5812 7.79779 17.9718L11.3552 21.5291C11.9873 22.1613 13.0286 22.1036 13.5871 21.4055L21.1429 11.9608Z" fill="#758AB9"/>
</svg>
