<svg width="28" height="34" viewBox="0 0 28 34" fill="none" xmlns="http://www.w3.org/2000/svg">
<path fill-rule="evenodd" clip-rule="evenodd" d="M27.3999 9.07894V6.75C27.3999 3.02208 21.3557 0 13.8999 0C6.44406 0 0.399902 3.02208 0.399902 6.75V9.07894C1.13324 10.2771 2.41346 11.3214 4.0465 12.1379C6.69557 13.4624 10.2402 14.1875 13.8999 14.1875C17.5596 14.1875 21.1042 13.4624 23.7533 12.1379C25.3863 11.3214 26.6666 10.2771 27.3999 9.07894ZM27.3999 12.1084C26.5774 12.8289 25.6291 13.4361 24.6477 13.9267C21.6572 15.422 17.7899 16.1875 13.8999 16.1875C10.0099 16.1875 6.1426 15.422 3.15208 13.9267C2.17072 13.4361 1.22236 12.8289 0.399902 12.1084V19.2039C1.13324 20.4021 2.41346 21.4464 4.0465 22.2629C6.69557 23.5874 10.2402 24.3125 13.8999 24.3125C17.5596 24.3125 21.1042 23.5874 23.7533 22.2629C25.3863 21.4464 26.6666 20.4021 27.3999 19.2039V12.1084ZM27.3999 22.2334C26.5774 22.9539 25.6291 23.5611 24.6477 24.0517C21.6572 25.547 17.7899 26.3125 13.8999 26.3125C10.0099 26.3125 6.1426 25.547 3.15208 24.0517C2.17072 23.5611 1.22236 22.9539 0.399902 22.2334V27C0.399902 30.7279 6.44406 33.75 13.8999 33.75C21.3557 33.75 27.3999 30.7279 27.3999 27V22.2334Z" fill="#758AB9"/>
</svg>
