<svg width="41" height="40" viewBox="0 0 41 40" fill="none" xmlns="http://www.w3.org/2000/svg">
<path fill-rule="evenodd" clip-rule="evenodd" d="M21.1967 29.8091C23.2381 28.7888 32.4668 23.6952 32.4668 14.9999C32.4668 8.5566 27.2434 3.33325 20.8001 3.33325C14.3568 3.33325 9.13342 8.5566 9.13342 14.9999C9.13342 23.6952 18.3621 28.7888 20.4035 29.8091C20.6583 29.9365 20.9419 29.9365 21.1967 29.8091ZM20.8001 19.9999C23.5615 19.9999 25.8001 17.7613 25.8001 14.9999C25.8001 12.2385 23.5615 9.99992 20.8001 9.99992C18.0387 9.99992 15.8001 12.2385 15.8001 14.9999C15.8001 17.7613 18.0387 19.9999 20.8001 19.9999Z" fill="#758AB9"/>
<path d="M30.9037 27.5C31.9277 28.2601 32.4668 29.1223 32.4668 30C32.4668 30.8777 31.9277 31.7399 30.9037 32.5C29.8798 33.2601 28.407 33.8913 26.6334 34.3301C24.8599 34.769 22.848 35 20.8001 35C18.7522 35 16.7403 34.769 14.9668 34.3301C13.1932 33.8913 11.7204 33.2601 10.6965 32.5C9.6725 31.7399 9.13342 30.8777 9.13342 30C9.13342 29.1223 9.6725 28.2601 10.6965 27.5" stroke="#758AB9" stroke-width="2" stroke-linecap="round"/>
</svg>
