<svg width="34" height="34" viewBox="0 0 34 34" fill="none" xmlns="http://www.w3.org/2000/svg">
<path fill-rule="evenodd" clip-rule="evenodd" d="M15.5183 0V9.9737C14.0275 9.89339 12.5642 9.63402 11.186 9.20586C9.50033 8.68219 7.98346 7.91902 6.71734 6.96943C5.91277 6.36601 5.22212 5.69693 4.65531 4.98111C7.44481 2.11331 11.2653 0.253484 15.5183 0ZM17.5183 1.13602e-05V9.97369C19.0091 9.89339 20.4724 9.63402 21.8506 9.20586C23.5363 8.68219 25.0531 7.91902 26.3193 6.96943C27.1238 6.36604 27.8144 5.697 28.3812 4.98121C25.5917 2.1134 21.7713 0.253543 17.5183 1.13602e-05ZM29.7056 6.52046C29.076 7.2654 28.3422 7.95223 27.5193 8.56943C26.0536 9.66865 24.3275 10.5307 22.4439 11.1158C20.8701 11.6047 19.2063 11.8943 17.5183 11.9763V15.5165L33.0362 15.5165C32.8351 12.1471 31.6257 9.0492 29.7056 6.52046ZM33.0364 17.5165L17.5183 17.5165V21.0568C19.2063 21.1388 20.8701 21.4283 22.4439 21.9173C24.3275 22.5024 26.0536 23.3644 27.5193 24.4636C28.3427 25.0813 29.077 25.7686 29.7069 26.5141C31.6268 23.9849 32.8359 20.8865 33.0364 17.5165ZM28.3826 28.0536C27.8155 27.3372 27.1244 26.6675 26.3193 26.0636C25.0531 25.1141 23.5363 24.3509 21.8506 23.8272C20.4724 23.399 19.0091 23.1397 17.5183 23.0594V33.0362C21.772 32.7826 25.593 30.9222 28.3826 28.0536ZM15.5183 33.0362V23.0594C14.0275 23.1397 12.5642 23.399 11.186 23.8272C9.50033 24.3509 7.98346 25.1141 6.71734 26.0636C5.91212 26.6676 5.221 27.3372 4.65393 28.0537C7.44355 30.9223 11.2646 32.7827 15.5183 33.0362ZM3.32963 26.5142C3.95955 25.7687 4.69382 25.0813 5.51734 24.4636C6.98297 23.3644 8.70914 22.5024 10.5927 21.9173C12.1665 21.4283 13.8303 21.1388 15.5183 21.0568V17.5165L0 17.5165C0.200554 20.8865 1.40965 23.985 3.32963 26.5142ZM0.000188278 15.5165L15.5183 15.5165V11.9763C13.8303 11.8943 12.1665 11.6047 10.5927 11.1158C8.70914 10.5307 6.98297 9.66865 5.51734 8.56943C4.69437 7.9522 3.96053 7.26532 3.3309 6.52034C1.41078 9.0491 0.201353 12.147 0.000188278 15.5165Z" fill="#758AB9"/>
</svg>
