<svg width="21" height="16" viewBox="0 0 21 16" fill="none" xmlns="http://www.w3.org/2000/svg">
<path d="M8.02304 15.0316C7.41585 15.0316 7.47105 14.8208 7.30545 14.2938L5.53906 8.75983L19.063 1.17041" fill="#C8DAEA"/>
<path d="M8.02319 15.0316C8.40959 15.0316 8.63039 14.8208 8.90639 14.61L11.3904 12.3437L8.29919 10.5518" fill="#A9C9DD"/>
<path d="M8.29912 10.5518L15.7511 15.7695C16.5239 16.2439 17.1862 15.9803 17.407 15.0317L20.443 1.43395C20.719 0.274458 19.9462 -0.252585 19.1182 0.116345L1.39918 6.65168C0.239985 7.07331 0.239985 7.75847 1.17838 8.02199L5.75994 9.3923L16.2479 3.01508C16.7447 2.75156 17.1862 2.85697 16.8551 3.2259" fill="white"/>
</svg>
