<svg width="40" height="40" viewBox="0 0 40 40" fill="none" xmlns="http://www.w3.org/2000/svg">
<circle cx="20" cy="20" r="20" fill="#192E73"/>
<g clip-path="url(#clip0_749_3446)">
<path d="M30.9627 15.0316C31.1667 15.5677 30.54 16.8186 29.0824 18.7844C28.8783 19.0525 28.616 19.4099 28.2953 19.8567C27.6248 20.6906 27.2459 21.2416 27.1584 21.5097C27.0126 21.8671 27.0709 22.2096 27.3333 22.5373C27.4791 22.716 27.8143 23.0734 28.339 23.6095H28.3828V23.6542C29.578 24.7562 30.3796 25.6944 30.7877 26.4688L30.8752 26.6475L30.9627 26.9826V27.4071L30.6566 27.7421L29.9132 27.8985L26.7211 27.9879C26.5171 28.0176 26.2766 27.9879 25.9996 27.8985C25.7227 27.8091 25.5114 27.7198 25.3656 27.6304L25.1032 27.4517C24.8409 27.273 24.5494 27.005 24.2287 26.6475C23.908 26.2901 23.6238 25.9625 23.376 25.6647C23.1282 25.3668 22.8732 25.1211 22.6108 24.9275C22.3484 24.7339 22.1152 24.6669 21.9112 24.7264C21.882 24.7264 21.8456 24.7413 21.8018 24.7711C21.7581 24.8009 21.6852 24.8679 21.5832 24.9722C21.4812 25.0764 21.3937 25.203 21.3208 25.3519C21.248 25.5008 21.1824 25.7168 21.1241 25.9997C21.0658 26.2827 21.0366 26.6178 21.0366 27.005C21.0366 27.1241 21.022 27.2358 20.9929 27.34C20.9637 27.4443 20.9346 27.5262 20.9054 27.5858L20.8617 27.6304C20.6868 27.8091 20.4536 27.8985 20.1621 27.8985H18.7628C18.1506 27.9581 17.5312 27.8985 16.9044 27.7198C16.2777 27.5411 15.7311 27.3103 15.2647 27.0273C14.7982 26.7443 14.3755 26.4614 13.9966 26.1784C13.6176 25.8955 13.3261 25.6498 13.122 25.4413L12.8159 25.1285C12.7285 25.069 12.6119 24.9498 12.4661 24.7711C12.3204 24.5924 12.0216 24.2052 11.5697 23.6095C11.1179 23.0138 10.6733 22.3735 10.236 21.6884C9.79877 21.0034 9.28863 20.1024 8.7056 18.9855C8.12257 17.8685 7.58327 16.7144 7.0877 15.523C7.0294 15.3741 7.00024 15.2549 7.00024 15.1656C7.00024 15.0762 7.01482 15.0018 7.04397 14.9422L7.0877 14.8975C7.2043 14.7188 7.43751 14.6295 7.78733 14.6295H11.2418C11.3292 14.6295 11.4167 14.6518 11.5041 14.6965L11.7228 14.8082L11.7665 14.8528C11.9122 14.9422 12.0143 15.0762 12.0726 15.2549C12.2475 15.6719 12.4443 16.1112 12.6629 16.5729C12.8815 17.0346 13.0491 17.3845 13.1658 17.6228L13.3407 17.9802C13.603 18.4866 13.8435 18.9259 14.0622 19.2982C14.2808 19.6705 14.4776 19.9609 14.6525 20.1694C14.8274 20.3779 15.0023 20.5417 15.1772 20.6608C15.3521 20.78 15.4979 20.8396 15.6145 20.8396C15.7311 20.8396 15.8477 20.8247 15.9643 20.7949L16.008 20.7279L16.1611 20.4375L16.336 19.8567L16.4453 18.8291V17.2207C16.4161 16.8931 16.3724 16.5878 16.3141 16.3048C16.2558 16.0219 16.1975 15.8208 16.1392 15.7017L16.0955 15.5677C15.8914 15.2698 15.527 15.0762 15.0023 14.9869C14.9148 14.9869 14.944 14.8826 15.0897 14.6741C15.2355 14.5252 15.3958 14.4061 15.5707 14.3167C16.008 14.0784 16.9992 13.9742 18.5442 14.004C19.2147 14.004 19.7831 14.0636 20.2495 14.1827C20.3953 14.2125 20.5265 14.2646 20.6431 14.3391C20.7597 14.4135 20.8471 14.5178 20.9054 14.6518C20.9637 14.7858 21.0075 14.9199 21.0366 15.0539C21.0658 15.1879 21.0803 15.3815 21.0803 15.6347V16.3272C21.0512 16.5655 21.0366 16.8633 21.0366 17.2207V18.293C21.0366 18.3823 21.0293 18.561 21.0148 18.8291C21.0002 19.0972 20.9929 19.3056 20.9929 19.4546C20.9929 19.6035 21.0075 19.7748 21.0366 19.9684C21.0658 20.162 21.1168 20.3258 21.1897 20.4598C21.2625 20.5938 21.3573 20.6906 21.4739 20.7502C21.5322 20.78 21.5978 20.8023 21.6707 20.8172C21.7435 20.8321 21.8529 20.7874 21.9986 20.6832C22.1444 20.5789 22.3047 20.43 22.4796 20.2364C22.6545 20.0428 22.8732 19.7524 23.1355 19.3652C23.3979 18.978 23.6748 18.5312 23.9663 18.0249C24.4619 17.1314 24.9137 16.1634 25.3219 15.1209C25.351 15.0613 25.3875 14.9943 25.4312 14.9199C25.4749 14.8454 25.5259 14.7933 25.5842 14.7635H25.628L25.6717 14.7188L25.8466 14.6741H26.109L29.6946 14.6295C30.0152 14.5997 30.2849 14.6146 30.5035 14.6741C30.7222 14.7337 30.846 14.8082 30.8752 14.8975L30.9627 15.0316Z" fill="white"/>
</g>
<defs>
<clipPath id="clip0_749_3446">
<rect width="24" height="24" fill="white" transform="translate(7.00024 8.99902)"/>
</clipPath>
</defs>
</svg>
