<svg width="56" height="56" viewBox="0 0 56 56" fill="none" xmlns="http://www.w3.org/2000/svg">
<rect width="56" height="56" rx="8" fill="#23C033"/>
<g clip-path="url(#clip0_581_3007)">
<path d="M28.0001 14.6667C20.6401 14.6667 14.6667 20.64 14.6667 28C14.6667 35.36 20.6401 41.3333 28.0001 41.3333C35.3601 41.3333 41.3334 35.36 41.3334 28C41.3334 20.64 35.3601 14.6667 28.0001 14.6667ZM28.0801 37.3333V34.6533C28.0534 34.6533 28.0267 34.6533 28.0001 34.6533C26.2934 34.6533 24.5867 34 23.2801 32.7067C21.0001 30.4267 20.7201 26.9067 22.4267 24.32L23.8934 25.7867C22.9467 27.56 23.1867 29.8 24.6801 31.2933C25.6134 32.2267 26.8401 32.6667 28.0667 32.64V29.7867L31.8401 33.56L28.0801 37.3333ZM33.5601 31.68L32.0934 30.2133C33.0401 28.44 32.8001 26.2 31.3067 24.7067C30.3867 23.7867 29.2001 23.3333 28.0001 23.3333C27.9734 23.3333 27.9467 23.3333 27.9201 23.3333V26.2L24.1467 22.44L27.9201 18.6667V21.36C29.6534 21.3333 31.4001 21.96 32.7201 23.2933C34.9867 25.56 35.2667 29.0933 33.5601 31.68Z" fill="white"/>
</g>
<defs>
<clipPath id="clip0_581_3007">
<rect width="32" height="32" fill="white" transform="translate(12 12)"/>
</clipPath>
</defs>
</svg>
