<svg width="56" height="56" viewBox="0 0 56 56" fill="none" xmlns="http://www.w3.org/2000/svg">
<rect width="56" height="56" rx="8" fill="#282C97"/>
<g clip-path="url(#clip0_581_3061)">
<path d="M28 14.6667C20.64 14.6667 14.6666 20.64 14.6666 28C14.6666 35.36 20.64 41.3333 28 41.3333C35.36 41.3333 41.3333 35.36 41.3333 28C41.3333 20.64 35.36 14.6667 28 14.6667ZM26.6666 38.5733C21.4 37.92 17.3333 33.44 17.3333 28C17.3333 27.1733 17.44 26.3867 17.6133 25.6133L24 32V33.3333C24 34.8 25.2 36 26.6666 36V38.5733ZM35.8666 35.1867C35.52 34.1067 34.5333 33.3333 33.3333 33.3333H32V29.3333C32 28.6 31.4 28 30.6666 28H22.6666V25.3333H25.3333C26.0666 25.3333 26.6666 24.7333 26.6666 24V21.3333H29.3333C30.8 21.3333 32 20.1333 32 18.6667V18.12C35.9066 19.7067 38.6666 23.5333 38.6666 28C38.6666 30.7733 37.6 33.2933 35.8666 35.1867Z" fill="white"/>
</g>
<defs>
<clipPath id="clip0_581_3061">
<rect width="32" height="32" fill="white" transform="translate(12 12)"/>
</clipPath>
</defs>
</svg>
