<svg width="14" height="14" viewBox="0 0 14 14" fill="none" xmlns="http://www.w3.org/2000/svg">
<path d="M6.99992 0.333374C3.31992 0.333374 0.333252 3.32004 0.333252 7.00004C0.333252 10.68 3.31992 13.6667 6.99992 13.6667C10.6799 13.6667 13.6666 10.68 13.6666 7.00004C13.6666 3.32004 10.6799 0.333374 6.99992 0.333374ZM7.93992 11.06V12.3334H6.15992V11.0467C5.01992 10.8067 4.05325 10.0734 3.97992 8.78004H5.28659C5.35325 9.48004 5.83325 10.0267 7.05325 10.0267C8.35992 10.0267 8.65325 9.37337 8.65325 8.96671C8.65325 8.41337 8.35992 7.89337 6.87325 7.54004C5.21992 7.14004 4.08659 6.46004 4.08659 5.09337C4.08659 3.94671 5.01325 3.20004 6.15992 2.95337V1.66671H7.93992V2.96671C9.17992 3.26671 9.79992 4.20671 9.83992 5.22671H8.53325C8.49992 4.48671 8.10659 3.98004 7.05325 3.98004C6.05325 3.98004 5.45325 4.43337 5.45325 5.07337C5.45325 5.63337 5.88659 6.00004 7.23325 6.34671C8.57992 6.69337 10.0199 7.27337 10.0199 8.95337C10.0133 10.1734 9.09992 10.84 7.93992 11.06Z" fill="#282C97"/>
</svg>
