<svg width="16" height="12" viewBox="0 0 16 12" fill="none" xmlns="http://www.w3.org/2000/svg">
<path fill-rule="evenodd" clip-rule="evenodd" d="M11.3137 6.7533C12.2271 7.3733 12.8671 8.2133 12.8671 9.3333V11.3333H15.5337V9.3333C15.5337 7.87996 13.1537 7.01996 11.3137 6.7533Z" fill="#282C97"/>
<path d="M6.20036 5.99996C7.67312 5.99996 8.86702 4.80605 8.86702 3.33329C8.86702 1.86053 7.67312 0.666626 6.20036 0.666626C4.7276 0.666626 3.53369 1.86053 3.53369 3.33329C3.53369 4.80605 4.7276 5.99996 6.20036 5.99996Z" fill="#282C97"/>
<path fill-rule="evenodd" clip-rule="evenodd" d="M10.2004 5.99996C11.6737 5.99996 12.8671 4.80663 12.8671 3.33329C12.8671 1.85996 11.6737 0.666626 10.2004 0.666626C9.88705 0.666626 9.59372 0.733292 9.31372 0.826626C9.86705 1.51329 10.2004 2.38663 10.2004 3.33329C10.2004 4.27996 9.86705 5.15329 9.31372 5.83996C9.59372 5.93329 9.88705 5.99996 10.2004 5.99996Z" fill="#282C97"/>
<path fill-rule="evenodd" clip-rule="evenodd" d="M6.20028 6.66663C4.42028 6.66663 0.866943 7.55996 0.866943 9.33329V11.3333H11.5336V9.33329C11.5336 7.55996 7.98028 6.66663 6.20028 6.66663Z" fill="#282C97"/>
</svg>
