<svg width="14" height="14" viewBox="0 0 14 14" fill="none" xmlns="http://www.w3.org/2000/svg">
<path d="M10.0026 7.70042L8.58838 9.11462L12.5859 13.1121L14.0001 11.6979L10.0026 7.70042Z" fill="#282C97"/>
<path d="M11.0665 5.6667C12.3531 5.6667 13.3998 4.62003 13.3998 3.33337C13.3998 2.9467 13.2931 2.5867 13.1265 2.2667L11.3265 4.0667L10.3331 3.07337L12.1331 1.27337C11.8131 1.1067 11.4531 1.00003 11.0665 1.00003C9.7798 1.00003 8.73314 2.0467 8.73314 3.33337C8.73314 3.6067 8.78647 3.8667 8.87314 4.1067L7.6398 5.34003L6.45314 4.15337L6.92647 3.68003L5.98647 2.74003L7.3998 1.3267C6.6198 0.546699 5.35314 0.546699 4.57314 1.3267L2.21314 3.6867L3.15314 4.6267H1.27314L0.799805 5.10003L3.1598 7.46003L3.63314 6.9867V5.10003L4.57314 6.04003L5.04647 5.5667L6.23314 6.75337L1.29314 11.6934L2.70647 13.1067L10.2931 5.5267C10.5331 5.61337 10.7931 5.6667 11.0665 5.6667Z" fill="#282C97"/>
</svg>
