<svg width="14" height="14" viewBox="0 0 14 14" fill="none" xmlns="http://www.w3.org/2000/svg">
<path d="M6.79997 0.333374C3.11997 0.333374 0.133301 3.32004 0.133301 7.00004C0.133301 10.68 3.11997 13.6667 6.79997 13.6667C10.48 13.6667 13.4666 10.68 13.4666 7.00004C13.4666 3.32004 10.48 0.333374 6.79997 0.333374ZM6.1333 12.2867C3.49997 11.96 1.46663 9.72004 1.46663 7.00004C1.46663 6.58671 1.51997 6.19337 1.60663 5.80671L4.79997 9.00004V9.66671C4.79997 10.4 5.39997 11 6.1333 11V12.2867ZM10.7333 10.5934C10.56 10.0534 10.0666 9.66671 9.46663 9.66671H8.79997V7.66671C8.79997 7.30004 8.49997 7.00004 8.1333 7.00004H4.1333V5.66671H5.46663C5.8333 5.66671 6.1333 5.36671 6.1333 5.00004V3.66671H7.46663C8.19997 3.66671 8.79997 3.06671 8.79997 2.33337V2.06004C10.7533 2.85337 12.1333 4.76671 12.1333 7.00004C12.1333 8.38671 11.6 9.64671 10.7333 10.5934Z" fill="#282C97"/>
</svg>
